<svg xmlns="http://www.w3.org/2000/svg" viewBox="0 0 3501.93 427.68"><defs><style>.cls-1{fill:#f1f2f1;}.cls-1,.cls-2,.cls-3,.cls-4{stroke:#424042;stroke-miterlimit:10;}.cls-1,.cls-2,.cls-4{stroke-width:3px;}.cls-2{fill:#a7a9ac;}.cls-3,.cls-4{fill:#d1d3d4;}.cls-3{stroke-width:2px;}.cls-5{fill:#304955;}.cls-6{fill:#040000;}.cls-7{fill:#5b707f;}.cls-8{fill:#de551a;}.cls-9{fill:#f08942;}.cls-10{fill:#ed7033;}.cls-11{fill:#80929f;}.cls-12{fill:#bdb378;}.cls-13{fill:#1c3440;}.cls-14{fill:#d2d3d4;}</style></defs><title>資產 2</title><g id="圖層_2" data-name="圖層 2"><g id="圖層_1-2" data-name="圖層 1"><rect class="cls-1" x="3024.34" y="76.68" width="64.73" height="12.46"/><path class="cls-2" d="M3009.5,106.08a4.55,4.55,0,0,1-4.67,4.42h-.46a4.55,4.55,0,0,1-4.67-4.42V59.84a4.55,4.55,0,0,1,4.67-4.43h.46a4.55,4.55,0,0,1,4.67,4.43Z"/><path class="cls-3" d="M3022.74,94.09h0a2,2,0,0,0,2-2V74.73a2,2,0,0,0-2-2h0"/><rect class="cls-4" x="3009.5" y="46.01" width="12.47" height="73.9" rx="5.94" ry="5.94"/><rect class="cls-4" x="2993.47" y="71.93" width="5.64" height="22.16"/><path class="cls-5" d="M3022.15,168.52c-.48,12.35,16.83,25.52,32,28.07,18.13,9.1,38.41,16.08,67.29,8.93,0,0,12.36-53.19,2.09-51.33-14.46,2.62-19.52-15.49-29-16.41-18.87-1.83-38.1,21.88-38.1,21.88S3022.8,151.79,3022.15,168.52Z"/><path class="cls-5" d="M3085.82,76.7s7.07,28.87-24.89,33.44-46.27-46.48-15.84-49.08S3085.11,58,3085.82,76.7Z"/><path class="cls-6" d="M3184,354.88v37.24s-5.5,12.63-5.78,21.88c-.46,15.53,30.07,24,40.18-9.09l4.45-46.13Z"/><path class="cls-6" d="M3388.45,354.88v37.24s5.51,12.63,5.78,21.88c.46,15.53-30.07,24-40.17-9.09l-4.45-46.13Z"/><path class="cls-7" d="M3452.68,191.28C3451.08,77.1,3377,19.73,3285.8,19.73c-91.72,0-166.15,58-166.91,173.55,0,.59,0,1.18,0,1.78,0,116.69,74.74,161.53,166.93,161.53s166.92-44.84,166.92-161.53C3452.72,193.79,3452.7,192.53,3452.68,191.28Z"/><path class="cls-7" d="M3245.48,203.19s25.5-12.07,43.23,3c0,0,18.62-17.59,33-2.55L3294,235.3l-10.16-8.24S3266.3,204.5,3245.48,203.19Z"/><path class="cls-8" d="M3232.62,346.65c0,31-12.79,44.15-28.56,44.15s-28.56-13.12-28.56-44.15,12.79-56.19,28.56-56.19S3232.62,315.61,3232.62,346.65Z"/><path class="cls-8" d="M3166.46,323.74s6.19,8.65,9.16,27.85l15.73-19.2Z"/><path class="cls-8" d="M3227.47,374.83s2.67-10.53,13.92-8.14l-7-19.38S3220,358,3227.47,374.83Z"/><path class="cls-8" d="M3340.79,346.65c0,31,12.79,44.15,28.56,44.15s28.56-13.12,28.56-44.15-12.79-56.19-28.56-56.19S3340.79,315.61,3340.79,346.65Z"/><path class="cls-8" d="M3407,323.74s-6.19,8.65-9.16,27.85l-15.72-19.2Z"/><path class="cls-8" d="M3345.95,374.83s-7.91-10.16-19.16-7.76l12.2-19.75S3353.45,358,3345.95,374.83Z"/><path class="cls-8" d="M3136,279.42S3282.56,318,3436.41,278c0,0-22.26,88.85-150.09,94C3286.32,372,3176.85,380.5,3136,279.42Z"/><path class="cls-9" d="M3135.27,278s0,8.6,4.79,10.76c2.67,1.2-.79,6.29,1,8.84,7.84,11.13,83,15.13,119.86-4.29C3260.92,293.34,3142.19,281.63,3135.27,278Z"/><path class="cls-9" d="M3437.89,278s.4,8.6-4.41,10.76c-2.67,1.2.79,6.29-1,8.84-7.86,11.13-83.29,15.13-120.24-4.29C3312.23,293.34,3430.95,281.63,3437.89,278Z"/><path class="cls-10" d="M3279.09,290.45s-29.28-3-29.32,18.31a119.43,119.43,0,0,1-6.71,38.56s16.05,10.49,30.16,4.28-7.6-54,29.28-58.67Z"/><path class="cls-10" d="M3309.6,290.45s29.28-3,29.33,18.31a119.37,119.37,0,0,0,6.71,38.56s-16.05,10.49-30.16,4.28,7.59-54-29.29-58.67Z"/><path class="cls-9" d="M3279.09,290.45s18-3.76,30.51,0c0,0,2,11.45-3.48,16h-23.55S3275.34,297.57,3279.09,290.45Z"/><path class="cls-11" d="M3326.79,71.45s25.41-48.37,79-65.92l-14.43,19.05,23.4,7.48S3338.47,56.72,3326.79,71.45Z"/><path class="cls-11" d="M3255.41,78.18s-17-51.93-66.88-78.18l11.05,21.19-24.32,3.47S3246.35,61.71,3255.41,78.18Z"/><path class="cls-11" d="M3393.81,84.83c10.46,38.14-48.82,53.46-109,53.46s-115.25-16-109-53.46c9.58-57.71,109,17.94,109,17.94S3378.26,28.17,3393.81,84.83Z"/><circle class="cls-12" cx="3217.77" cy="104.72" r="14.05"/><path class="cls-13" d="M3228,107.36a9.15,9.15,0,1,1-9.15-9.15A9.14,9.14,0,0,1,3228,107.36Z"/><path class="cls-13" d="M3204.95,82.94s16.54-7.53,26.15,10.9S3204.95,82.94,3204.95,82.94Z"/><circle class="cls-12" cx="3347.03" cy="104.72" r="14.05"/><path class="cls-13" d="M3338.5,107.36a9.15,9.15,0,1,0,9.15-9.15A9.14,9.14,0,0,0,3338.5,107.36Z"/><path class="cls-13" d="M3363.3,87.48s-13.47-12.2-28.22,2.45S3363.3,87.48,3363.3,87.48Z"/><path class="cls-13" d="M3292.39,130.7c-3.55,12.64-10.65,21.7-15.86,20.23s-6.54-12.89-3-25.53,9.21-16.55,14.41-15.09S3295.95,118.06,3292.39,130.7Z"/><path class="cls-14" d="M3131.93,118.65s77.47,50.83,136.9,63c0,0,14.88,3.52,19.28,25.22,3.54,17.42-9.1,1.93-25.37-12.58-15.63-13.95-115.84-6.69-141.2-35.7C3121.53,158.62,3118.87,120.4,3131.93,118.65Z"/><path class="cls-14" d="M3439.21,117.47s-75.29,52-134.26,64.22c0,0-12.47,3.52-16.84,25.22-3.51,17.42,6.74,1.93,22.88-12.58,15.51-13.95,113.2-11,138.37-40.06C3449.35,154.27,3456.37,130.55,3439.21,117.47Z"/><path class="cls-5" d="M3444.92,190.53c13.19,12.45,20.34,10.28,18,11.24-9.19,3.8-15.12,18.8-24.1,31.47,0,0,1,2-13.26-.41-7.66-1.3-10.11,9.13-4.28,11.78,14,6.34,1,18.72-4.27,26.17s13.56,17.65,30.81-15.3c28.18-8.12,49.27-33.63,53.51-53.72,4.71-22.36-21.09-25.08-27.63-44.15-4.82-14.06-23.89-21.69-23.89-21.69S3436.61,157.49,3444.92,190.53Z"/><path class="cls-2" d="M3104.32,106.08a4.55,4.55,0,0,0,4.67,4.42h.47a4.55,4.55,0,0,0,4.67-4.42V59.84a4.55,4.55,0,0,0-4.67-4.43H3109a4.55,4.55,0,0,0-4.67,4.43Z"/><path class="cls-3" d="M3091.32,94.09h0a2,2,0,0,1-2-2V74.73a2,2,0,0,1,2-2h0"/><rect class="cls-4" x="3091.85" y="46.01" width="12.46" height="73.9" rx="5.94" ry="5.94"/><rect class="cls-4" x="3114.7" y="71.93" width="5.64" height="22.16"/><path class="cls-5" d="M3061.27,150.94c5.48-10.32,1.1-23.48.64-34.49a67.84,67.84,0,0,1,2.59-21.62s5.59.6,11.22-14.89c5.08-14-2.74-14.31-2.74-14.31-19.87-5.14-33.26,25.83-33.26,25.83-30.79,68.57-23.13,67-5.82,94.4,9-9,16.16-18.93,26.08-26.84C3058.65,157.76,3058.87,155.46,3061.27,150.94Z"/><path class="cls-5" d="M3166,170.13c-5.3-17.24-12.86-20.37-17.57-24.12-13.19-10.52-30.87,9.92-34.26,6.93-5.73,11.91-10.47,24.86-15.31,37.77.45.52.87,1,1.26,1.52,6.8,8.75,20.3,20.29,43.14,9.9C3146.52,200.66,3169.86,183.5,3166,170.13Z"/><path class="cls-13" d="M3071.66,164.86s13.43,9.63,30.63,6.33c0,0-18.61,10.6-30.63-5.42"/><path class="cls-6" d="M2582,354.88v37.24s-5.5,12.63-5.78,21.88c-.46,15.53,30.07,24,40.18-9.09l4.45-46.13Z"/><path class="cls-6" d="M2786.48,354.88v37.24s5.51,12.63,5.78,21.88c.46,15.53-30.07,24-40.17-9.09l-4.45-46.13Z"/><path class="cls-7" d="M2850.71,191.28C2849.12,77.1,2775,19.73,2683.83,19.73c-91.72,0-166.15,58-166.91,173.55,0,.59,0,1.18,0,1.78,0,116.69,74.74,161.53,166.93,161.53s166.92-44.84,166.92-161.53C2850.75,193.79,2850.73,192.53,2850.71,191.28Z"/><path class="cls-7" d="M2643.51,203.19s25.5-12.07,43.23,3c0,0,18.62-17.59,33-2.55l-27.71,31.67-10.16-8.24S2664.33,204.5,2643.51,203.19Z"/><path class="cls-8" d="M2630.65,346.65c0,31-12.79,44.15-28.56,44.15s-28.56-13.12-28.56-44.15,12.79-56.19,28.56-56.19S2630.65,315.61,2630.65,346.65Z"/><path class="cls-8" d="M2564.49,323.74s6.19,8.65,9.16,27.85l15.73-19.2Z"/><path class="cls-8" d="M2625.5,374.83s2.67-10.53,13.92-8.14l-7-19.38S2618,358,2625.5,374.83Z"/><path class="cls-8" d="M2738.82,346.65c0,31,12.79,44.15,28.56,44.15s28.56-13.12,28.56-44.15-12.79-56.19-28.56-56.19S2738.82,315.61,2738.82,346.65Z"/><path class="cls-8" d="M2805,323.74s-6.19,8.65-9.16,27.85l-15.72-19.2Z"/><path class="cls-8" d="M2744,374.83s-7.91-10.16-19.16-7.76l12.2-19.75S2751.48,358,2744,374.83Z"/><path class="cls-8" d="M2534.06,279.42S2680.59,318,2834.44,278c0,0-22.26,88.85-150.09,94C2684.35,372,2574.88,380.5,2534.06,279.42Z"/><path class="cls-9" d="M2533.3,278s0,8.6,4.79,10.76c2.67,1.2-.79,6.29,1,8.84,7.84,11.13,83,15.13,119.86-4.29C2659,293.34,2540.22,281.63,2533.3,278Z"/><path class="cls-9" d="M2835.92,278s.4,8.6-4.41,10.76c-2.67,1.2.79,6.29-1,8.84-7.86,11.13-83.29,15.13-120.24-4.29C2710.26,293.34,2829,281.63,2835.92,278Z"/><path class="cls-10" d="M2677.12,290.45s-29.28-3-29.32,18.31a119.43,119.43,0,0,1-6.71,38.56s16.05,10.49,30.16,4.28-7.6-54,29.28-58.67Z"/><path class="cls-10" d="M2707.63,290.45s29.28-3,29.33,18.31a119.37,119.37,0,0,0,6.71,38.56s-16.05,10.49-30.16,4.28,7.59-54-29.29-58.67Z"/><path class="cls-9" d="M2677.12,290.45s18-3.76,30.51,0c0,0,2,11.45-3.48,16H2680.6S2673.37,297.57,2677.12,290.45Z"/><path class="cls-11" d="M2724.82,71.45s25.41-48.37,79-65.92l-14.43,19.05,23.4,7.48S2736.5,56.72,2724.82,71.45Z"/><path class="cls-11" d="M2653.44,78.18s-17-51.93-66.88-78.18l11.05,21.19-24.32,3.47S2644.38,61.71,2653.44,78.18Z"/><path class="cls-11" d="M2791.84,84.83c10.46,38.14-48.82,53.46-109,53.46s-115.25-16-109-53.46c9.58-57.71,109,17.94,109,17.94S2776.29,28.17,2791.84,84.83Z"/><circle class="cls-12" cx="2615.81" cy="104.72" r="14.05"/><path class="cls-13" d="M2626,107.36a9.15,9.15,0,1,1-9.15-9.15A9.14,9.14,0,0,1,2626,107.36Z"/><path class="cls-13" d="M2603,82.94s16.54-7.53,26.15,10.9S2603,82.94,2603,82.94Z"/><circle class="cls-12" cx="2745.06" cy="104.72" r="14.05"/><path class="cls-13" d="M2736.53,107.36a9.15,9.15,0,1,0,9.15-9.15A9.14,9.14,0,0,0,2736.53,107.36Z"/><path class="cls-13" d="M2761.33,87.48s-13.47-12.2-28.22,2.45S2761.33,87.48,2761.33,87.48Z"/><path class="cls-13" d="M2690.42,130.7c-3.55,12.64-10.65,21.7-15.86,20.23s-6.54-12.89-3-25.53,9.21-16.55,14.41-15.09S2694,118.06,2690.42,130.7Z"/><path class="cls-14" d="M2530,118.65s77.47,50.83,136.9,63c0,0,14.88,3.52,19.28,25.22,3.54,17.42-9.1,1.93-25.37-12.58-15.63-13.95-115.84-6.69-141.2-35.7C2519.56,158.62,2516.9,120.4,2530,118.65Z"/><path class="cls-14" d="M2837.24,117.47s-75.29,52-134.26,64.22c0,0-12.47,3.52-16.84,25.22-3.51,17.42,6.74,1.93,22.88-12.58,15.51-13.95,113.2-11,138.37-40.06C2847.38,154.27,2854.4,130.55,2837.24,117.47Z"/><path class="cls-5" d="M2843,190.53c13.19,12.45,20.34,10.28,18,11.24-9.19,3.8-15.12,18.8-24.1,31.47,0,0,1,2-13.26-.41-7.66-1.3-10.11,9.13-4.28,11.78,14,6.34,1,18.72-4.27,26.17s13.56,17.65,30.81-15.3c28.18-8.12,49.27-33.63,53.51-53.72,4.71-22.36-21.09-25.08-27.63-44.15-4.82-14.06-23.89-21.69-23.89-21.69S2834.64,157.49,2843,190.53Z"/><rect class="cls-1" x="2424.34" y="69.02" width="64.73" height="12.46"/><path class="cls-2" d="M2409.5,98.42a4.55,4.55,0,0,1-4.67,4.42h-.46a4.55,4.55,0,0,1-4.67-4.42V52.18a4.55,4.55,0,0,1,4.67-4.43h.46a4.55,4.55,0,0,1,4.67,4.43Z"/><path class="cls-3" d="M2422.75,86.43h0a2,2,0,0,0,2-2V67.06a2,2,0,0,0-2-2h0"/><rect class="cls-4" x="2409.5" y="38.35" width="12.47" height="73.9" rx="5.94" ry="5.94"/><rect class="cls-4" x="2393.48" y="64.27" width="5.64" height="22.16"/><path class="cls-5" d="M2420.09,155.33c-1.91,12.21,13.75,27.3,28.5,31.6,16.95,11.15,36.28,20.44,65.8,16.71,0,0,18.49-50.74,8.05-50.74s-19.93-11.95-29.28-14c-18.53-4-38,11.59-38,11.59S2422.68,138.79,2420.09,155.33Z"/><path class="cls-5" d="M2487.76,66.12s7.07,28.87-24.89,33.44S2416.6,53.08,2447,50.48,2487.05,47.47,2487.76,66.12Z"/><path class="cls-2" d="M2504.32,98.42a4.55,4.55,0,0,0,4.67,4.42h.47a4.55,4.55,0,0,0,4.67-4.42V52.18a4.55,4.55,0,0,0-4.67-4.43H2509a4.55,4.55,0,0,0-4.67,4.43Z"/><path class="cls-3" d="M2491.32,86.43h0a2,2,0,0,1-2-2V67.06a2,2,0,0,1,2-2h0"/><rect class="cls-4" x="2491.85" y="38.35" width="12.46" height="73.9" rx="5.94" ry="5.94"/><rect class="cls-4" x="2514.71" y="64.27" width="5.64" height="22.16"/><path class="cls-5" d="M2462,139.3c6.34-9.82,3.09-23.3,3.56-34.31A67.82,67.82,0,0,1,2470,83.67s5.52,1.07,12.44-13.88c6.25-13.52-1.52-14.49-1.52-14.49-19.36-6.81-35.34,22.91-35.34,22.91-36.5,65.71-28.74,64.81-13.81,93.56,9.72-8.23,17.71-17.49,28.26-24.53C2458.86,145.87,2459.28,143.59,2462,139.3Z"/><path class="cls-5" d="M2564.06,170.13c-5.29-17.24-12.86-20.37-17.57-24.12-13.19-10.52-30.87,9.92-34.26,6.93-5.73,11.91-10.47,24.86-15.31,37.77.45.52.87,1,1.26,1.52,6.79,8.75,20.3,20.29,43.14,9.9C2544.55,200.66,2567.89,183.5,2564.06,170.13Z"/><path class="cls-13" d="M2469.69,157.46s12.22,11.13,29.69,9.85c0,0-19.72,8.37-29.79-8.95"/><path class="cls-6" d="M1980,354.88v37.24s-5.5,12.63-5.78,21.88c-.46,15.53,30.07,24,40.18-9.09l4.45-46.13Z"/><path class="cls-6" d="M2184.45,354.88v37.24s5.51,12.63,5.78,21.88c.46,15.53-30.07,24-40.17-9.09l-4.45-46.13Z"/><path class="cls-7" d="M2248.68,191.28C2247.08,77.1,2173,19.73,2081.8,19.73c-91.72,0-166.15,58-166.91,173.55,0,.59,0,1.18,0,1.78,0,116.69,74.74,161.53,166.93,161.53s166.92-44.84,166.92-161.53C2248.72,193.79,2248.7,192.53,2248.68,191.28Z"/><path class="cls-7" d="M2041.48,203.19s25.5-12.07,43.23,3c0,0,18.62-17.59,33-2.55L2090,235.3l-10.16-8.24S2062.3,204.5,2041.48,203.19Z"/><path class="cls-8" d="M2028.62,346.65c0,31-12.79,44.15-28.56,44.15s-28.56-13.12-28.56-44.15,12.79-56.19,28.56-56.19S2028.62,315.61,2028.62,346.65Z"/><path class="cls-8" d="M1962.46,323.74s6.19,8.65,9.16,27.85l15.73-19.2Z"/><path class="cls-8" d="M2023.47,374.83s2.67-10.53,13.92-8.14l-7-19.38S2016,358,2023.47,374.83Z"/><path class="cls-8" d="M2136.79,346.65c0,31,12.79,44.15,28.56,44.15s28.56-13.12,28.56-44.15-12.79-56.19-28.56-56.19S2136.79,315.61,2136.79,346.65Z"/><path class="cls-8" d="M2203,323.74s-6.19,8.65-9.16,27.85l-15.72-19.2Z"/><path class="cls-8" d="M2141.95,374.83s-7.91-10.16-19.16-7.76l12.2-19.75S2149.45,358,2141.95,374.83Z"/><path class="cls-8" d="M1932,279.42S2078.56,318,2232.41,278c0,0-22.26,88.85-150.09,94C2082.32,372,1972.85,380.5,1932,279.42Z"/><path class="cls-9" d="M1931.27,278s0,8.6,4.79,10.76c2.67,1.2-.79,6.29,1,8.84,7.84,11.13,83,15.13,119.86-4.29C2056.92,293.34,1938.19,281.63,1931.27,278Z"/><path class="cls-9" d="M2233.89,278s.4,8.6-4.41,10.76c-2.67,1.2.79,6.29-1,8.84-7.86,11.13-83.29,15.13-120.24-4.29C2108.23,293.34,2226.95,281.63,2233.89,278Z"/><path class="cls-10" d="M2075.09,290.45s-29.28-3-29.32,18.31a119.43,119.43,0,0,1-6.71,38.56s16.05,10.49,30.16,4.28-7.6-54,29.28-58.67Z"/><path class="cls-10" d="M2105.6,290.45s29.28-3,29.33,18.31a119.37,119.37,0,0,0,6.71,38.56s-16.05,10.49-30.16,4.28,7.59-54-29.29-58.67Z"/><path class="cls-9" d="M2075.09,290.45s18-3.76,30.51,0c0,0,2,11.45-3.48,16h-23.55S2071.34,297.57,2075.09,290.45Z"/><path class="cls-11" d="M2122.79,71.45s25.41-48.37,79-65.92l-14.43,19.05,23.4,7.48S2134.47,56.72,2122.79,71.45Z"/><path class="cls-11" d="M2051.41,78.18s-17-51.93-66.88-78.18l11.05,21.19-24.32,3.47S2042.35,61.71,2051.41,78.18Z"/><path class="cls-11" d="M2189.81,84.83c10.46,38.14-48.82,53.46-109,53.46s-115.25-16-109-53.46c9.58-57.71,109,17.94,109,17.94S2174.26,28.17,2189.81,84.83Z"/><circle class="cls-12" cx="2013.77" cy="104.72" r="14.05"/><path class="cls-13" d="M2024,107.36a9.15,9.15,0,1,1-9.15-9.15A9.14,9.14,0,0,1,2024,107.36Z"/><path class="cls-13" d="M2000.95,82.94s16.54-7.53,26.15,10.9S2000.95,82.94,2000.95,82.94Z"/><circle class="cls-12" cx="2143.03" cy="104.72" r="14.05"/><path class="cls-13" d="M2134.5,107.36a9.15,9.15,0,1,0,9.15-9.15A9.14,9.14,0,0,0,2134.5,107.36Z"/><path class="cls-13" d="M2159.3,87.48s-13.47-12.2-28.22,2.45S2159.3,87.48,2159.3,87.48Z"/><path class="cls-13" d="M2088.39,130.7c-3.55,12.64-10.65,21.7-15.86,20.23s-6.54-12.89-3-25.53,9.21-16.55,14.41-15.09S2091.95,118.06,2088.39,130.7Z"/><path class="cls-14" d="M1927.93,118.65s77.47,50.83,136.9,63c0,0,14.88,3.52,19.28,25.22,3.54,17.42-9.1,1.93-25.37-12.58-15.63-13.95-115.84-6.69-141.2-35.7C1917.53,158.62,1914.87,120.4,1927.93,118.65Z"/><path class="cls-14" d="M2235.21,117.47s-75.29,52-134.26,64.22c0,0-12.47,3.52-16.84,25.22-3.51,17.42,6.74,1.93,22.88-12.58,15.51-13.95,113.2-11,138.37-40.06C2245.35,154.27,2252.37,130.55,2235.21,117.47Z"/><path class="cls-5" d="M2240.92,190.53c13.19,12.45,20.34,10.28,18,11.24-9.19,3.8-15.12,18.8-24.1,31.47,0,0,1,2-13.26-.41-7.66-1.3-10.11,9.13-4.28,11.78,14,6.34,1,18.72-4.27,26.17s13.56,17.65,30.81-15.3c28.18-8.12,49.27-33.63,53.51-53.72,4.71-22.36-21.09-25.08-27.63-44.15-4.82-14.06-23.89-21.69-23.89-21.69S2232.61,157.49,2240.92,190.53Z"/><rect class="cls-1" x="1823.64" y="59.05" width="64.73" height="12.46"/><path class="cls-2" d="M1808.8,88.45a4.55,4.55,0,0,1-4.67,4.42h-.46a4.55,4.55,0,0,1-4.67-4.42V42.21a4.55,4.55,0,0,1,4.67-4.43h.46a4.55,4.55,0,0,1,4.67,4.43Z"/><path class="cls-3" d="M1822,76.46h0a2,2,0,0,0,2-2V57.1a2,2,0,0,0-2-2h0"/><rect class="cls-4" x="1808.8" y="28.38" width="12.47" height="73.9" rx="5.94" ry="5.94"/><rect class="cls-4" x="1792.77" y="54.3" width="5.64" height="22.16"/><path class="cls-5" d="M1820.67,138.76c-3.69,11.79,9.57,29,23.53,35.46,15.12,13.53,32.87,25.57,62.61,26.23,0,0,25.77-47.46,15.45-49s-19-12.35-28-15.73c-17.74-6.7-38.27,3.43-38.27,3.43S1825.67,122.79,1820.67,138.76Z"/><path class="cls-5" d="M1887.06,56.16s7.07,28.87-24.89,33.44-46.27-46.48-15.84-49.08S1886.35,37.5,1887.06,56.16Z"/><path class="cls-2" d="M1903.62,88.45a4.55,4.55,0,0,0,4.67,4.42h.47a4.55,4.55,0,0,0,4.67-4.42V42.21a4.55,4.55,0,0,0-4.67-4.43h-.47a4.55,4.55,0,0,0-4.67,4.43Z"/><path class="cls-3" d="M1890.62,76.46h0a2,2,0,0,1-2-2V57.1a2,2,0,0,1,2-2h0"/><rect class="cls-4" x="1891.15" y="28.38" width="12.46" height="73.9" rx="5.94" ry="5.94"/><rect class="cls-4" x="1914" y="54.3" width="5.64" height="22.16"/><path class="cls-5" d="M1861.35,129.33c6.34-9.82,3.09-23.3,3.56-34.31a67.82,67.82,0,0,1,4.42-21.32s5.52,1.07,12.44-13.88c6.25-13.52-1.52-14.49-1.52-14.49-19.36-6.81-35.34,22.91-35.34,22.91-36.5,65.71-28.74,64.81-13.81,93.56,9.72-8.23,17.71-17.49,28.26-24.53C1858.16,135.9,1858.57,133.62,1861.35,129.33Z"/><path class="cls-5" d="M1962,170.13c-5.29-17.24-12.86-20.37-17.57-24.12-13.19-10.52-30.87,9.92-34.26,6.93-5.73,11.91-10.47,24.86-15.31,37.77.45.52.87,1,1.26,1.52,6.79,8.75,20.3,20.29,43.14,9.9C1942.52,200.66,1965.86,183.5,1962,170.13Z"/><path class="cls-13" d="M1869.41,148.19s10.44,12.81,27.91,14.13c0,0-20.74,5.36-28.15-13.25"/><path class="cls-6" d="M1378.07,354.88v37.24s-5.5,12.63-5.78,21.88c-.46,15.53,30.07,24,40.18-9.09l4.45-46.13Z"/><path class="cls-6" d="M1582.55,354.88v37.24s5.51,12.63,5.78,21.88c.46,15.53-30.07,24-40.17-9.09l-4.45-46.13Z"/><path class="cls-7" d="M1646.78,191.28c-1.6-114.18-75.7-171.56-166.89-171.56-91.72,0-166.15,58-166.91,173.55,0,.59,0,1.18,0,1.78,0,116.69,74.74,161.53,166.93,161.53s166.92-44.84,166.92-161.53C1646.82,193.79,1646.8,192.53,1646.78,191.28Z"/><path class="cls-7" d="M1439.57,203.19s25.5-12.07,43.23,3c0,0,18.62-17.59,33-2.55l-27.71,31.67L1478,227.06S1460.4,204.5,1439.57,203.19Z"/><path class="cls-8" d="M1426.72,346.65c0,31-12.79,44.15-28.56,44.15s-28.56-13.12-28.56-44.15,12.79-56.19,28.56-56.19S1426.72,315.61,1426.72,346.65Z"/><path class="cls-8" d="M1360.56,323.74s6.19,8.65,9.16,27.85l15.73-19.2Z"/><path class="cls-8" d="M1421.56,374.83s2.67-10.53,13.92-8.14l-7-19.38S1414.06,358,1421.56,374.83Z"/><path class="cls-8" d="M1534.89,346.65c0,31,12.79,44.15,28.56,44.15S1592,377.68,1592,346.65s-12.79-56.19-28.56-56.19S1534.89,315.61,1534.89,346.65Z"/><path class="cls-8" d="M1601.06,323.74s-6.19,8.65-9.16,27.85l-15.72-19.2Z"/><path class="cls-8" d="M1540,374.83s-7.91-10.16-19.16-7.76l12.2-19.75S1547.55,358,1540,374.83Z"/><path class="cls-8" d="M1330.13,279.42S1476.65,318,1630.51,278c0,0-22.26,88.85-150.09,94C1480.42,372,1370.95,380.5,1330.13,279.42Z"/><path class="cls-9" d="M1329.37,278s0,8.6,4.79,10.76c2.67,1.2-.79,6.29,1,8.84,7.84,11.13,83,15.13,119.86-4.29C1455,293.34,1336.29,281.63,1329.37,278Z"/><path class="cls-9" d="M1632,278s.4,8.6-4.41,10.76c-2.67,1.2.79,6.29-1,8.84-7.86,11.13-83.29,15.13-120.24-4.29C1506.33,293.34,1625,281.63,1632,278Z"/><path class="cls-10" d="M1473.19,290.45s-29.28-3-29.32,18.31a119.43,119.43,0,0,1-6.71,38.56s16.05,10.49,30.16,4.28-7.6-54,29.28-58.67Z"/><path class="cls-10" d="M1503.7,290.45s29.28-3,29.33,18.31a119.37,119.37,0,0,0,6.71,38.56s-16.05,10.49-30.16,4.28,7.59-54-29.29-58.67Z"/><path class="cls-9" d="M1473.19,290.45s18-3.76,30.51,0c0,0,2,11.45-3.48,16h-23.55S1469.44,297.57,1473.19,290.45Z"/><path class="cls-11" d="M1520.89,71.45s25.41-48.37,79-65.92l-14.43,19.05,23.4,7.48S1532.57,56.72,1520.89,71.45Z"/><path class="cls-11" d="M1449.51,78.18s-17-51.93-66.88-78.18l11.05,21.19-24.32,3.47S1440.45,61.71,1449.51,78.18Z"/><path class="cls-11" d="M1587.91,84.83c10.46,38.14-48.82,53.46-109,53.46s-115.25-16-109-53.46c9.58-57.71,109,17.94,109,17.94S1572.36,28.17,1587.91,84.83Z"/><circle class="cls-12" cx="1411.87" cy="104.72" r="14.05"/><path class="cls-13" d="M1422.09,107.36a9.15,9.15,0,1,1-9.15-9.15A9.14,9.14,0,0,1,1422.09,107.36Z"/><path class="cls-13" d="M1399,82.94s16.54-7.53,26.15,10.9S1399,82.94,1399,82.94Z"/><circle class="cls-12" cx="1541.13" cy="104.72" r="14.05"/><path class="cls-13" d="M1532.59,107.36a9.15,9.15,0,1,0,9.15-9.15A9.14,9.14,0,0,0,1532.59,107.36Z"/><path class="cls-13" d="M1557.4,87.48s-13.47-12.2-28.22,2.45S1557.4,87.48,1557.4,87.48Z"/><path class="cls-13" d="M1486.49,130.7c-3.55,12.64-10.65,21.7-15.86,20.23s-6.54-12.89-3-25.53,9.21-16.55,14.41-15.09S1490,118.06,1486.49,130.7Z"/><path class="cls-14" d="M1326,118.65s77.47,50.83,136.9,63c0,0,14.88,3.52,19.28,25.22,3.54,17.42-9.1,1.93-25.37-12.58-15.63-13.95-115.84-6.69-141.2-35.7C1315.63,158.62,1313,120.4,1326,118.65Z"/><path class="cls-14" d="M1633.31,117.47s-75.29,52-134.26,64.22c0,0-12.47,3.52-16.84,25.22-3.51,17.42,6.74,1.93,22.88-12.58,15.51-13.95,113.2-11,138.37-40.06C1643.45,154.27,1650.47,130.55,1633.31,117.47Z"/><path class="cls-5" d="M1639,190.53c13.19,12.45,20.34,10.28,18,11.24-9.19,3.8-15.12,18.8-24.1,31.47,0,0,1,2-13.26-.41-7.66-1.3-10.11,9.13-4.28,11.78,14,6.34,1,18.72-4.27,26.17s13.56,17.65,30.81-15.3c28.18-8.12,49.27-33.63,53.51-53.72,4.71-22.36-21.09-25.08-27.63-44.15-4.82-14.06-23.89-21.69-23.89-21.69S1630.71,157.49,1639,190.53Z"/><path class="cls-5" d="M1226.34,125.49c-5,11.32,6.32,29.91,19.48,37.84,13.54,15.11,29.85,29,59.35,33,0,0,30.84-44.33,20.75-47s-18.36-12.81-26.88-17.16c-16.89-8.61-37.6-2.35-37.6-2.35S1233.07,110.16,1226.34,125.49Z"/><rect class="cls-1" x="1227.74" y="51.3" width="64.73" height="12.46"/><path class="cls-2" d="M1212.9,80.7a4.55,4.55,0,0,1-4.67,4.42h-.46a4.55,4.55,0,0,1-4.67-4.42V34.46a4.55,4.55,0,0,1,4.67-4.43h.46a4.55,4.55,0,0,1,4.67,4.43Z"/><path class="cls-3" d="M1226.14,68.71h0a2,2,0,0,0,2-2V49.35a2,2,0,0,0-2-2h0"/><rect class="cls-4" x="1212.9" y="20.63" width="12.47" height="73.9" rx="5.94" ry="5.94"/><rect class="cls-4" x="1196.87" y="46.55" width="5.64" height="22.16"/><path class="cls-5" d="M1291.16,48.41s7.07,28.87-24.89,33.44S1220,35.36,1250.43,32.76,1290.45,29.75,1291.16,48.41Z"/><path class="cls-2" d="M1307.72,80.7a4.55,4.55,0,0,0,4.67,4.42h.47a4.55,4.55,0,0,0,4.67-4.42V34.46a4.55,4.55,0,0,0-4.67-4.43h-.47a4.55,4.55,0,0,0-4.67,4.43Z"/><path class="cls-3" d="M1294.72,68.71h0a2,2,0,0,1-2-2V49.35a2,2,0,0,1,2-2h0"/><rect class="cls-4" x="1295.25" y="20.63" width="12.46" height="73.9" rx="5.94" ry="5.94"/><rect class="cls-4" x="1318.1" y="46.55" width="5.64" height="22.16"/><path class="cls-5" d="M1265.45,121.58c6.34-9.82,3.09-23.3,3.56-34.31a67.82,67.82,0,0,1,4.42-21.32s5.52,1.07,12.44-13.88c6.25-13.52-1.52-14.49-1.52-14.49C1265,30.77,1249,60.49,1249,60.49c-36.5,65.71-28.74,64.81-13.81,93.56,9.72-8.23,17.71-17.49,28.26-24.53C1262.26,128.15,1262.67,125.87,1265.45,121.58Z"/><path class="cls-5" d="M1363.39,172.22c-3.37-17.72-10.54-21.66-14.81-25.91-12-11.91-31.77,6.46-34.82,3.12-7,11.21-13.14,23.56-19.38,35.86.39.56.75,1.11,1.08,1.65,5.79,9.44,17.95,22.4,41.79,14.58C1340.64,200.42,1365.73,185.93,1363.39,172.22Z"/><path class="cls-13" d="M1273.75,140.22s9,13.88,26.18,17.11c0,0-21.21,3-26.52-16.26"/><path class="cls-6" d="M776,354.88v37.24s-5.5,12.63-5.78,21.88c-.46,15.53,30.07,24,40.18-9.09l4.45-46.13Z"/><path class="cls-6" d="M980.47,354.88v37.24S986,404.74,986.24,414c.46,15.53-30.07,24-40.17-9.09l-4.45-46.13Z"/><path class="cls-7" d="M1044.7,191.28C1043.1,77.1,969,19.73,877.81,19.73c-91.72,0-166.15,58-166.91,173.55,0,.59,0,1.18,0,1.78,0,116.69,74.74,161.53,166.93,161.53s166.92-44.84,166.92-161.53C1044.73,193.79,1044.72,192.53,1044.7,191.28Z"/><path class="cls-7" d="M837.49,203.19s25.5-12.07,43.23,3c0,0,18.62-17.59,33-2.55L886,235.3l-10.16-8.24S858.32,204.5,837.49,203.19Z"/><path class="cls-8" d="M824.64,346.65c0,31-12.79,44.15-28.56,44.15s-28.56-13.12-28.56-44.15,12.79-56.19,28.56-56.19S824.64,315.61,824.64,346.65Z"/><path class="cls-8" d="M758.47,323.74s6.19,8.65,9.16,27.85l15.73-19.2Z"/><path class="cls-8" d="M819.48,374.83s2.67-10.53,13.92-8.14l-7-19.38S812,358,819.48,374.83Z"/><path class="cls-8" d="M932.81,346.65c0,31,12.79,44.15,28.56,44.15s28.56-13.12,28.56-44.15-12.79-56.19-28.56-56.19S932.81,315.61,932.81,346.65Z"/><path class="cls-8" d="M999,323.74s-6.19,8.65-9.16,27.85l-15.72-19.2Z"/><path class="cls-8" d="M938,374.83s-7.91-10.16-19.16-7.76L931,347.32S945.46,358,938,374.83Z"/><path class="cls-8" d="M728,279.42S874.57,318,1028.43,278c0,0-22.26,88.85-150.09,94C878.34,372,768.86,380.5,728,279.42Z"/><path class="cls-9" d="M727.28,278s0,8.6,4.79,10.76c2.67,1.2-.79,6.29,1,8.84,7.84,11.13,83,15.13,119.86-4.29C852.94,293.34,734.2,281.63,727.28,278Z"/><path class="cls-9" d="M1029.9,278s.4,8.6-4.41,10.76c-2.67,1.2.79,6.29-1,8.84-7.86,11.13-83.29,15.13-120.24-4.29C904.25,293.34,1023,281.63,1029.9,278Z"/><path class="cls-10" d="M871.11,290.45s-29.28-3-29.32,18.31a119.43,119.43,0,0,1-6.71,38.56s16.05,10.49,30.16,4.28-7.6-54,29.28-58.67Z"/><path class="cls-10" d="M901.62,290.45s29.28-3,29.33,18.31a119.37,119.37,0,0,0,6.71,38.56s-16.05,10.49-30.16,4.28,7.59-54-29.29-58.67Z"/><path class="cls-9" d="M871.11,290.45s18-3.76,30.51,0c0,0,2,11.45-3.48,16H874.58S867.35,297.57,871.11,290.45Z"/><path class="cls-11" d="M918.8,71.45s25.41-48.37,79-65.92L983.37,24.59l23.4,7.48S930.49,56.72,918.8,71.45Z"/><path class="cls-11" d="M847.42,78.18S830.44,26.25,780.54,0l11.05,21.19-24.32,3.47S838.36,61.71,847.42,78.18Z"/><path class="cls-11" d="M985.83,84.83c10.46,38.14-48.82,53.46-109,53.46s-115.25-16-109-53.46c9.58-57.71,109,17.94,109,17.94S970.28,28.17,985.83,84.83Z"/><circle class="cls-12" cx="809.79" cy="104.72" r="14.05"/><path class="cls-13" d="M820,107.36a9.15,9.15,0,1,1-9.15-9.15A9.14,9.14,0,0,1,820,107.36Z"/><path class="cls-13" d="M797,82.94s16.54-7.53,26.15,10.9S797,82.94,797,82.94Z"/><circle class="cls-12" cx="939.04" cy="104.72" r="14.05"/><path class="cls-13" d="M930.51,107.36a9.15,9.15,0,1,0,9.15-9.15A9.14,9.14,0,0,0,930.51,107.36Z"/><path class="cls-13" d="M955.31,87.48s-13.47-12.2-28.22,2.45S955.31,87.48,955.31,87.48Z"/><path class="cls-13" d="M884.41,130.7c-3.55,12.64-10.65,21.7-15.86,20.23s-6.54-12.89-3-25.53,9.21-16.55,14.41-15.09S888,118.06,884.41,130.7Z"/><path class="cls-14" d="M723.94,118.65s77.47,50.83,136.9,63c0,0,14.88,3.52,19.28,25.22,3.54,17.42-9.1,1.93-25.37-12.58-15.63-13.95-115.84-6.69-141.2-35.7C713.55,158.62,710.89,120.4,723.94,118.65Z"/><path class="cls-14" d="M1031.22,117.47s-75.29,52-134.26,64.22c0,0-12.47,3.52-16.84,25.22-3.51,17.42,6.74,1.93,22.88-12.58,15.51-13.95,113.2-11,138.37-40.06C1041.37,154.27,1048.38,130.55,1031.22,117.47Z"/><path class="cls-5" d="M1036.94,190.53c13.19,12.45,20.34,10.28,18,11.24-9.19,3.8-15.12,18.8-24.1,31.47,0,0,1,2-13.26-.41-7.66-1.3-10.11,9.13-4.28,11.78,14,6.34,1,18.72-4.27,26.17s13.56,17.65,30.81-15.3c28.18-8.12,49.27-33.63,53.51-53.72,4.71-22.36-21.09-25.08-27.63-44.15-4.82-14.06-23.89-21.69-23.89-21.69S1028.63,157.49,1036.94,190.53Z"/><rect class="cls-1" x="634.68" y="40.52" width="64.73" height="12.46"/><path class="cls-2" d="M619.84,69.92a4.55,4.55,0,0,1-4.67,4.42h-.46A4.55,4.55,0,0,1,610,69.92V23.68a4.55,4.55,0,0,1,4.67-4.43h.46a4.55,4.55,0,0,1,4.67,4.43Z"/><path class="cls-3" d="M633.09,57.93h0a2,2,0,0,0,2-2V38.56a2,2,0,0,0-2-2h0"/><rect class="cls-4" x="619.84" y="9.85" width="12.47" height="73.9" rx="5.94" ry="5.94"/><rect class="cls-4" x="603.82" y="35.77" width="5.64" height="22.16"/><path class="cls-5" d="M698.11,37.62s7.07,28.87-24.89,33.44S626.94,24.58,657.38,22,697.4,19,698.11,37.62Z"/><path class="cls-2" d="M714.66,69.92a4.55,4.55,0,0,0,4.67,4.42h.47a4.55,4.55,0,0,0,4.67-4.42V23.68a4.55,4.55,0,0,0-4.67-4.43h-.47a4.55,4.55,0,0,0-4.67,4.43Z"/><path class="cls-3" d="M701.67,57.93h0a2,2,0,0,1-2-2V38.56a2,2,0,0,1,2-2h0"/><rect class="cls-4" x="702.2" y="9.85" width="12.46" height="73.9" rx="5.94" ry="5.94"/><rect class="cls-4" x="725.05" y="35.77" width="5.64" height="22.16"/><path class="cls-5" d="M672.39,110.8c6.34-9.82,3.09-23.3,3.56-34.31a67.82,67.82,0,0,1,4.42-21.32s5.52,1.07,12.44-13.88c6.25-13.52-1.52-14.49-1.52-14.49C671.93,20,656,49.71,656,49.71c-36.5,65.71-28.74,64.81-13.81,93.56,9.72-8.23,17.71-17.49,28.26-24.53C669.2,117.37,669.62,115.09,672.39,110.8Z"/><path class="cls-5" d="M634.56,110.16c-6.39,10.58,2.4,30.47,14.44,40,11.47,16.73,25.85,32.64,54.59,40.35,0,0,36.3-40,26.64-43.92S713,134,705.07,128.56c-15.64-10.72-36.26-9.6-36.26-9.6S643.22,95.83,634.56,110.16Z"/><path class="cls-5" d="M764.44,174.19c-1-18-7.66-22.84-11.34-27.6-10.32-13.35-32.34,2.31-34.93-1.4-8.4,10.21-16.07,21.67-23.84,33.06.31.61.6,1.2.86,1.78,4.52,10.11,14.91,24.53,39.56,19.86C738.24,199.22,765,188.09,764.44,174.19Z"/><path class="cls-13" d="M679.68,130.89s7.1,14.92,23.76,20.35c0,0-21.42.29-24.2-19.55"/><path class="cls-6" d="M174,354.88v37.24s-5.5,12.63-5.78,21.88c-.46,15.53,30.07,24,40.18-9.09l4.45-46.13Z"/><path class="cls-6" d="M378.51,354.88v37.24S384,404.74,384.28,414c.46,15.53-30.07,24-40.17-9.09l-4.45-46.13Z"/><path class="cls-7" d="M442.74,191.28C441.14,77.1,367,19.73,275.85,19.73c-91.72,0-166.15,58-166.91,173.55,0,.59,0,1.18,0,1.78,0,116.69,74.74,161.53,166.93,161.53s166.92-44.84,166.92-161.53C442.77,193.79,442.76,192.53,442.74,191.28Z"/><path class="cls-7" d="M235.53,203.19s25.5-12.07,43.23,3c0,0,18.62-17.59,33-2.55L284.08,235.3l-10.16-8.24S256.36,204.5,235.53,203.19Z"/><path class="cls-8" d="M222.68,346.65c0,31-12.79,44.15-28.56,44.15s-28.56-13.12-28.56-44.15,12.79-56.19,28.56-56.19S222.68,315.61,222.68,346.65Z"/><path class="cls-8" d="M156.51,323.74s6.19,8.65,9.16,27.85l15.73-19.2Z"/><path class="cls-8" d="M217.52,374.83s2.67-10.53,13.92-8.14l-7-19.38S210,358,217.52,374.83Z"/><path class="cls-8" d="M330.85,346.65c0,31,12.79,44.15,28.56,44.15S388,377.68,388,346.65s-12.79-56.19-28.56-56.19S330.85,315.61,330.85,346.65Z"/><path class="cls-8" d="M397,323.74s-6.19,8.65-9.16,27.85l-15.72-19.2Z"/><path class="cls-8" d="M336,374.83s-7.91-10.16-19.16-7.76L329,347.32S343.5,358,336,374.83Z"/><path class="cls-8" d="M126.09,279.42S272.61,318,426.47,278c0,0-22.26,88.85-150.09,94C276.38,372,166.9,380.5,126.09,279.42Z"/><path class="cls-9" d="M125.32,278s0,8.6,4.79,10.76c2.67,1.2-.79,6.29,1,8.84,7.84,11.13,83,15.13,119.86-4.29C251,293.34,132.24,281.63,125.32,278Z"/><path class="cls-9" d="M427.94,278s.4,8.6-4.41,10.76c-2.67,1.2.79,6.29-1,8.84-7.86,11.13-83.29,15.13-120.24-4.29C302.29,293.34,421,281.63,427.94,278Z"/><path class="cls-10" d="M269.15,290.45s-29.28-3-29.32,18.31a119.43,119.43,0,0,1-6.71,38.56s16.05,10.49,30.16,4.28-7.6-54,29.28-58.67Z"/><path class="cls-10" d="M299.66,290.45s29.28-3,29.33,18.31a119.37,119.37,0,0,0,6.71,38.56s-16.05,10.49-30.16,4.28,7.59-54-29.29-58.67Z"/><path class="cls-9" d="M269.15,290.45s18-3.76,30.51,0c0,0,2,11.45-3.48,16H272.63S265.39,297.57,269.15,290.45Z"/><path class="cls-11" d="M316.84,71.45s25.41-48.37,79-65.92L381.41,24.59l23.4,7.48S328.53,56.72,316.84,71.45Z"/><path class="cls-11" d="M245.46,78.18S228.48,26.25,178.58,0l11.05,21.19-24.32,3.47S236.4,61.71,245.46,78.18Z"/><path class="cls-11" d="M383.87,84.83c10.46,38.14-48.82,53.46-109,53.46s-115.25-16-109-53.46c9.58-57.71,109,17.94,109,17.94S368.32,28.17,383.87,84.83Z"/><circle class="cls-12" cx="207.83" cy="104.72" r="14.05"/><path class="cls-13" d="M218,107.36a9.15,9.15,0,1,1-9.15-9.15A9.14,9.14,0,0,1,218,107.36Z"/><path class="cls-13" d="M195,82.94s16.54-7.53,26.15,10.9S195,82.94,195,82.94Z"/><circle class="cls-12" cx="337.08" cy="104.72" r="14.05"/><path class="cls-13" d="M328.55,107.36a9.15,9.15,0,1,0,9.15-9.15A9.14,9.14,0,0,0,328.55,107.36Z"/><path class="cls-13" d="M353.35,87.48s-13.47-12.2-28.22,2.45S353.35,87.48,353.35,87.48Z"/><path class="cls-13" d="M282.45,130.7c-3.55,12.64-10.65,21.7-15.86,20.23s-6.54-12.89-3-25.53,9.21-16.55,14.41-15.09S286,118.06,282.45,130.7Z"/><path class="cls-14" d="M122,118.65s77.47,50.83,136.9,63c0,0,14.88,3.52,19.28,25.22,3.54,17.42-9.1,1.93-25.37-12.58-15.63-13.95-115.84-6.69-141.2-35.7C111.59,158.62,108.93,120.4,122,118.65Z"/><path class="cls-14" d="M429.26,117.47S354,169.48,295,181.69c0,0-12.47,3.52-16.84,25.22-3.51,17.42,6.74,1.93,22.88-12.58,15.51-13.95,113.2-11,138.37-40.06C439.41,154.27,446.42,130.55,429.26,117.47Z"/><path class="cls-5" d="M435,190.53c13.19,12.45,20.34,10.28,18,11.24-9.19,3.8-15.12,18.8-24.1,31.47,0,0,1,2-13.26-.41-7.66-1.3-10.11,9.13-4.28,11.78,14,6.34,1,18.72-4.27,26.17s13.56,17.65,30.81-15.3c28.18-8.12,49.27-33.63,53.51-53.72,4.71-22.36-21.09-25.08-27.63-44.15-4.82-14.06-23.89-21.69-23.89-21.69S426.67,157.49,435,190.53Z"/><rect class="cls-1" x="32.37" y="32.17" width="64.73" height="12.46"/><path class="cls-2" d="M17.53,61.57A4.55,4.55,0,0,1,12.86,66h-.46a4.55,4.55,0,0,1-4.67-4.42V15.33a4.55,4.55,0,0,1,4.67-4.43h.46a4.55,4.55,0,0,1,4.67,4.43Z"/><path class="cls-3" d="M30.77,49.58h0a2,2,0,0,0,2-2V30.21a2,2,0,0,0-2-2h0"/><rect class="cls-4" x="17.53" y="1.5" width="12.47" height="73.9" rx="5.94" ry="5.94"/><rect class="cls-4" x="1.5" y="27.42" width="5.64" height="22.16"/><path class="cls-5" d="M95.79,29.27s7.07,28.87-24.89,33.44S24.62,16.23,55.06,13.63,95.08,10.62,95.79,29.27Z"/><path class="cls-2" d="M112.34,61.57A4.55,4.55,0,0,0,117,66h.47a4.55,4.55,0,0,0,4.67-4.42V15.33a4.55,4.55,0,0,0-4.67-4.43H117a4.55,4.55,0,0,0-4.67,4.43Z"/><path class="cls-3" d="M99.35,49.58h0a2,2,0,0,1-2-2V30.21a2,2,0,0,1,2-2h0"/><rect class="cls-4" x="99.88" y="1.5" width="12.46" height="73.9" rx="5.94" ry="5.94"/><rect class="cls-4" x="122.73" y="27.42" width="5.64" height="22.16"/><path class="cls-5" d="M73.94,102.45C79.27,92,74.7,79,74.08,68A67.83,67.83,0,0,1,76.36,46.3s5.6.52,11-15.05C92.24,17.17,84.41,17,84.41,17,64.47,12.13,51.52,43.29,51.52,43.29c-29.8,69-22.16,67.34-4.45,94.47,8.85-9.15,15.89-19.16,25.69-27.21C71.42,109.3,71.61,107,73.94,102.45Z"/><path class="cls-5" d="M39.22,100.64c-7.21,10,0,30.57,11.18,41.06,10.1,17.6,23.16,34.61,51.19,44.59,0,0,39.39-37,30.07-41.65s-16.92-11.93-24.35-18c-14.73-11.93-34.66-14.54-34.66-14.54S49,87,39.22,100.64Z"/><path class="cls-5" d="M163.55,174.86c.4-18-5.81-23.38-9.09-28.42-9.21-14.13-32.42-.29-34.7-4.19-9.19,9.51-17.75,20.31-26.41,31,.26.63.51,1.24.72,1.84,3.7,10.44,12.89,25.64,37.84,23C135.43,197.71,163,188.76,163.55,174.86Z"/><path class="cls-13" d="M82.52,124.92s5.89,15.44,22.05,22.18c0,0-21.38-1.43-22.55-21.42"/></g></g></svg>