<svg xmlns="http://www.w3.org/2000/svg" viewBox="0 0 539.28 326.68"><defs><style>.cls-1{fill:#77c7cf;}.cls-2{fill:#fff;}</style></defs><title>map_m</title><g id="圖層_2" data-name="圖層 2"><g id="art_board_2" data-name="art board 2"><path class="cls-1" d="M474.49,144.07a4.16,4.16,0,0,0,.51-2,.55.55,0,0,0-.54-.54c-1.35-.12-2.62-1.32-3.7-2l-2.85-1.92a2,2,0,0,0,.67-1,4.5,4.5,0,0,0-.76-3.1,37.07,37.07,0,0,0-3.87-6.1.54.54,0,0,0-.84.11L461,131.12,460,133c-.2.35-.24.56-.64.33a2.37,2.37,0,0,1-.57-.72c-1.39-2-2.89-4.46-2.21-7a.54.54,0,0,0-.66-.66c-1.36.24-2.25-1.21-2.87-2.17-.52-.8-1.22-2-2.27-2.11s-1.66.94-2.63,1.09a2.88,2.88,0,0,1-2.72-1.09c-.32-.41-.83-.07-.87.35a.41.41,0,0,0-.36.38,12.71,12.71,0,0,0,0,3.93,1.73,1.73,0,0,0-.74.47.55.55,0,0,0-.08.65c.38.74,1.82.68,1.59,1.65s-1.23,1.5-1.74,2.3c-1.31,2.08,1.22,3.31,2.27,4.71,1.18,1.57,1.63,4.45-.56,5.46-.79.36-1.73.24-2.49.7a1.6,1.6,0,0,0-.54,2.14,16.75,16.75,0,0,1,.82,1.55,4.86,4.86,0,0,1-.67,4.46,3.8,3.8,0,0,0-1.28-.94c-.77-.34-1.86-.23-2.45-.91-1.27-1.45,0-3.78-.14-5.45a2.52,2.52,0,0,0-.87-1.86c-.79-.59-1.74-.06-2.59-.47-1-.49-2-1.15-2.94-1.73l-3-1.76c-.77-.45-1.82-1.36-2.79-1.13-.43.1-.63.42-.95.69a1.13,1.13,0,0,1-1.3.1,12.48,12.48,0,0,0-1.41-4.93.54.54,0,0,0-.84-.11,1.78,1.78,0,0,1-1.06.45c.26-1.57.57-3.14.95-4.69q.31-1.26.66-2.5a9.45,9.45,0,0,1,.77-2.21c.43-.73,1-.59,1.77-.74a1.54,1.54,0,0,0,1.22-1.06,2.11,2.11,0,0,0-.87-2.27,9.26,9.26,0,0,0,5.22-5.14,8.39,8.39,0,0,0,.55-2.06c0-.36,0-.89.23-1.19a1.89,1.89,0,0,1,.82-.46,3,3,0,0,0,1.51-1,3.3,3.3,0,0,0,.41-1.07c0-.09.19-.69.4-.8.05,1.66,2.08,2.46,3.52,1.65a4.2,4.2,0,0,0,1.69-5.22c-.35-.74-1.45-1.88-.86-2.71s1.26-1.09,1-2.09A3.13,3.13,0,0,0,437.69,96c-1.13-.57-2.28-1.11-3.42-1.66a.55.55,0,0,0-.73.19c-.86,1.4.2,2.74.18,4.18a5.74,5.74,0,0,1-1.05,2.48l-1.28,2.32c-1-.53-.68-2.36-.71-3.27,0-1.25-.41-2.67-1.77-3a.55.55,0,0,0-.61.25l-1,1.5A6.33,6.33,0,0,0,425,95.22c.76-1.06-.14-2.87-.62-3.89a33.58,33.58,0,0,0-3.53-5.85.55.55,0,0,0-.73-.19c-2.17,1.17-2.4,4-2.45,6.16a4.82,4.82,0,0,0,1,3.54,4.94,4.94,0,0,0,2.67,1.28c-.35,1,.3,2.22-.09,3.26a4.42,4.42,0,0,1-.84,1.06,2.21,2.21,0,0,0-.5,1.14,6.85,6.85,0,0,0,.12,1.49.94.94,0,0,1-.15.76l-.11.11a3.46,3.46,0,0,0-3.82-3.93c-.48.07-.49.76-.13,1-.2-.12-.17,0-.39.17a1.93,1.93,0,0,1-.5.18l-1.21.33a13.46,13.46,0,0,1-2.56.43,6.4,6.4,0,0,1-2.47-.3c-.81-.28-1.48-.83-2.26-1.17a3.91,3.91,0,0,0-5.06,2.33,4.58,4.58,0,0,0-3.13-.7c-1.72.17-4.1,1.44-5.68.29a1.84,1.84,0,0,1-.86-1.83c.12-.39.52-.6.76-.91a1.52,1.52,0,0,0,.34-.94,2,2,0,0,0-1.07-1.66,3.8,3.8,0,0,0-2.48-.17,8.27,8.27,0,0,1-6.2-1.36,3.05,3.05,0,0,0-4.24-1.2,3.52,3.52,0,0,0-.94.75c-.37.42-.51,1-1.11.52a7,7,0,0,1-1.08-1.26c-.39-.49-.76-1-1.12-1.52a.54.54,0,0,0-1,.13c-.05.14-.83-.41-.9-.45a2.39,2.39,0,0,0-1-.3,3.78,3.78,0,0,0-2.15.6c-.68.39-1.27.94-2,1.29a2.3,2.3,0,0,1-1.36.25,1.7,1.7,0,0,0-.92.06c-.54.23-.67.75-1,1.16s-1.36.19-2,.33a1.45,1.45,0,0,0-1.17,1c-.07.35.17.57.37.84l.34.46a9.21,9.21,0,0,1-4.95-2,7.79,7.79,0,0,0-2.5-1.43c-1.06-.3-2.16-.17-3.16-.71s-1.62-1.15-2.49-1.64a9.33,9.33,0,0,0-2.89-1.06,12.31,12.31,0,0,0-3.15-.09c-1,.07-2.37,0-2.59-1.16a.54.54,0,0,0-.52-.39,49.7,49.7,0,0,1-6.13-.47,2.05,2.05,0,0,0-.3-1.31,1.37,1.37,0,0,0-1.84-.3,14.91,14.91,0,0,0-2.33,2c-.73.64-1.52,1.66-2.51,1.79-1.74.23-2.72,1.55-3.36,3.09a10.24,10.24,0,0,1-1.28,2.68,2.07,2.07,0,0,1-2.28.83.54.54,0,0,0-.46,0,.58.58,0,0,0-.83.61.94.94,0,0,1-.53,1,.54.54,0,0,0,0,.92,10.27,10.27,0,0,1,2.71,2.84c.55.86.92,2.19,2.11,2.31.61.06,1.18-.33,1.63.23a2.5,2.5,0,0,1,.58,1.76c-.38,1.21-3.3.75-2.86-.76a.54.54,0,0,0-.79-.6l-5.71,3.57a.55.55,0,0,0-.19.73,1.43,1.43,0,0,0,.76.64,9.1,9.1,0,0,1,1.05.28c.38.21,0,.89,0,1.29a1.51,1.51,0,0,0,.47,1,3.09,3.09,0,0,0,2.31.64c.75-.05,2-.36,2.41.5a.54.54,0,0,0,.92,0,2.22,2.22,0,0,1,2-1.3,3.47,3.47,0,0,1-.31.5.54.54,0,0,0,.32.79c.56.19.55,1,.32,1.43a2.26,2.26,0,0,1-1.85.91,7.43,7.43,0,0,0-2,.17,3.52,3.52,0,0,0-1.43,1.52l-1.53,2.29a3.63,3.63,0,0,0-.9,2,1.74,1.74,0,0,0,.89,1.37c.23.15.51.26.73.43a.75.75,0,0,1,.26.33c.06.11,0,.25.11.23a.54.54,0,0,0-.46.8,5.14,5.14,0,0,0,2.8,2.6,2.32,2.32,0,0,0,.85,0c.33,0,.75-.3.91.09a3.45,3.45,0,0,1,0,1.25c0,.47-.05.94-.11,1.41a.53.53,0,0,0,.27.46,2,2,0,0,0,2.29-.15c.23-.19.58-.77.87-.8s.58.69.66,1a.54.54,0,0,0,.79.32q1.24-.53,2.49-1a5.25,5.25,0,0,0-1,.88c-.46.81.11,1.8-.55,2.51s-1.51,1.39-2.26,2.07l-2.55,2.31a.54.54,0,0,0,.52.89,18,18,0,0,0,6.25-3.3,4.28,4.28,0,0,0,1-1.14,4,4,0,0,1,.93-1.42c.79-.6,1.78-.82,2.45-1.59a2.18,2.18,0,0,0,.54-2.28c-.07-.16-.34-.38-.38-.53s.3-.67.42-.86l1-1.78,1-1.78c.31-.55.56-1,1.24-1.12a11.36,11.36,0,0,0,1.48-.15l.07.64a6.34,6.34,0,0,0-3,3.36.54.54,0,0,0,.25.6.75.75,0,0,1,.09,1.17.54.54,0,0,0,.13,1c1.44.37,2.35-.78,3.16-1.78a3.3,3.3,0,0,1,.73-.73,3.69,3.69,0,0,1,1-.32,1.3,1.3,0,0,0,.94-1.24,3.52,3.52,0,0,0-.13-.88,1.44,1.44,0,0,1-.07-.44l0-.17q.1-.25.06-.09a7.52,7.52,0,0,0,.42.68,1.37,1.37,0,0,0,.7.34c.64.13,1.26-.19,1.89-.08a3,3,0,0,1,1.59,1.29.42.42,0,0,0,.27.33c2.5,1.09,5.51,0,7.68,1.91a20.68,20.68,0,0,1,5.27,6.67,7.19,7.19,0,0,0,2.08,3,3.36,3.36,0,0,0,1.54.64c.48.06,1.42-.22,1.78.17s.28.92.75,1.23,1.33.06,1.64.68a3.39,3.39,0,0,1,.09,1.77,3.21,3.21,0,0,0,.39,1.95c.66,1.07,1.73,1.77,2.35,2.88a7,7,0,0,1,.69,1.78,4.22,4.22,0,0,0,.56,1.79c.7.87,2.16.73,3.14,1s2.16,1.26,1.45,2.34c-.15.23-.38.22-.56.4a1,1,0,0,0-.2.61,6,6,0,0,0,.19,2.16,15.26,15.26,0,0,1,.45,4.75c-.12,1.58-.39,3.14-.62,4.71l-.31,2.14a7.53,7.53,0,0,0-.18,2.16c.21,1.36,1.7,1.7,2.12,2.91.21.61.24,1.26.48,1.85a4.11,4.11,0,0,0,1.26,1.46c1,.92.77,2.48,1.5,3.58a2.24,2.24,0,0,0,1.24,1,9.23,9.23,0,0,0,2.08-.06l2.2,2.62c.63.75,1.72,1.63,1.75,2.67a4.17,4.17,0,0,0,.5,2.49c.37.56,1.5,1.65.82,2.36a.54.54,0,0,0,.24.89,6.3,6.3,0,0,1,4,3.75,7.36,7.36,0,0,0,1.18,2.59,2.28,2.28,0,0,0,2.23.76.54.54,0,0,0,.32-.79l-5.11-7a28.52,28.52,0,0,1-2.24-3.17c-.45-.83-.74-2.32.22-2.91,1.7,1.32,2.53,3.43,3.52,5.27a24.74,24.74,0,0,0,4.53,5.59,15.81,15.81,0,0,1,2.45,2.87,3,3,0,0,1,.19,2,3.68,3.68,0,0,0,.23,1.55c.78,2.08,3,3.32,4.76,4.45a21.34,21.34,0,0,0,6.89,3.17,10.51,10.51,0,0,0,3.59.15c1.26-.17,2.52-.49,3.7.16,1.59.88,2.63,2.56,4.39,3.17a3.38,3.38,0,0,0,1.2.19,3.4,3.4,0,0,1,1,0,2.3,2.3,0,0,1,.92.65l3.24,3a26.07,26.07,0,0,0,3.29,2.92,3.83,3.83,0,0,0,1.69.52,2.21,2.21,0,0,1,.92.22,2.24,2.24,0,0,1,.57.72c.63.87,1.92,1,2.22-.2.16-.61.41-1.15,1.09-1.3a1.4,1.4,0,0,1,1.59,1,.54.54,0,0,0,1.05-.14c-.06-2-2.42-2.21-3.92-1.91a4.65,4.65,0,0,1-2.08.17,2.22,2.22,0,0,1-1.26-1,10.45,10.45,0,0,1-1.27-3.06,3.52,3.52,0,0,1,.05-2,3.82,3.82,0,0,0,.34-1.49,2.58,2.58,0,0,0-1.84-2c-2-.78-4.12-.24-6.17.1.4-.92.75-1.87,1.1-2.81.47-1.27,1-2.53,1.41-3.81a1.45,1.45,0,0,0-1.1-2.11,5.5,5.5,0,0,0-3.47.06,2.53,2.53,0,0,0-1.56,2.19c0,.53.18,1.22-.41,1.49a7.16,7.16,0,0,1-1.76.39,4.67,4.67,0,0,1-3.66-.58,5.67,5.67,0,0,1-1.71-2.57,17.52,17.52,0,0,1-.92-3.31,3.58,3.58,0,0,1,.73-3.34.54.54,0,0,0-.24-.89,1.34,1.34,0,0,1-.54-1.71,4.58,4.58,0,0,1,1.5-1.77l1.89-1.57a4.13,4.13,0,0,1,1.13-.78,2.3,2.3,0,0,1,1.6.18,7.66,7.66,0,0,0,4.57.47c1.27-.36,2.49-2,3.87-1.26.94.48,1.71,1.45,2.85,1.43a1.89,1.89,0,0,0,.79-.2,4.23,4.23,0,0,1,.45-.25c.44-.15.56,0,.77.37a7.28,7.28,0,0,1,.86,2.13c.34,1.24.63,2.84,1.71,3.67.9.69,2.41.55,2.4-.84a6.68,6.68,0,0,0-.75-2.19,14.62,14.62,0,0,1-.71-2.42,6.18,6.18,0,0,1,.84-4.94.46.46,0,0,0,.1-.34,3.18,3.18,0,0,1,1.22-.8,3.14,3.14,0,0,0,1.1-.91,3,3,0,0,0,.53-1.41c.09-.7.73-.3,1.24-.27,1,.07,1.45-.72,2.24-1.2.45-.28,1-.22,1.43-.6a1.15,1.15,0,0,0,.32-.51.55.55,0,0,0,.22-.72q-.69-1.43-1.3-2.89-.29-.7-.57-1.42c-.15-.4-.57-1.06-.07-1.31s1.13-.14,1.64-.34a1.55,1.55,0,0,0,1-1.39c0-.45-.07-.88.33-1.2a3.79,3.79,0,0,1,1.25-.47c1.07-.33,2.16-.62,3.22-1a1.32,1.32,0,0,0,1-1.42,4,4,0,0,1,.74-2.49c1.1-1.54,2.91-2.27,4.6-3,.51-.21,1.09-.39,1.61-.65a2.88,2.88,0,0,1-1,.88c-.72.33-1.2.8-.86,1.65.26.66.69,1.56,1.53,1.31a3.13,3.13,0,0,0,1.16-.7c.4-.37.64-.9,1.06-1.25.66-.54,5.12-1.75,3.59-3.18a1,1,0,0,0-1-.16,3.49,3.49,0,0,1-1.75,0c-.43-.15-.76-.49-1.21-.63a2.32,2.32,0,0,0-.57-.11,1.31,1.31,0,0,1,0-.3c.08-.63.36-1.17-.12-1.74-.16-.2-.68-.43-.73-.67-.09-.45.64-.85.92-1.07a1.78,1.78,0,0,0-.24-3.16c-1.62-.85-3.16-.17-4.62.88.43-.47.87-.94,1.32-1.39,1.71-1.7,4-.31,6-.53s3.53-1.54,5.38-2.14a16,16,0,0,0,2.71-.84,3.57,3.57,0,0,0,1.65-1.93A3.52,3.52,0,0,0,474.49,144.07Zm-12.34,22,.19,0-.14,0Z"/><path class="cls-1" d="M537.27,19.37a5.15,5.15,0,0,0-7.69,2.33L528,20.58a.54.54,0,0,0-.79.32,6.76,6.76,0,0,1-1.93,2.6,11.41,11.41,0,0,0,.82-7.06.54.54,0,0,0-.79-.32l-4.26,2.21a3.36,3.36,0,0,0-3-1.4c-1.34,0-2.81.75-4.17.67l11.33-5.15a.54.54,0,0,0-.13-1A5,5,0,0,1,521.87,9c-.52-1-.63-2.33-1.68-2.93a1.91,1.91,0,0,0-1.71,0,12.51,12.51,0,0,1-2.1.76,7.55,7.55,0,0,1-3.74-.17,24.87,24.87,0,0,1,3.88-1.37.54.54,0,0,0,.13-1A5.25,5.25,0,0,1,514.53,1a.52.52,0,0,0-.37-.37l-3-.63a.56.56,0,0,0-.67.53l-5.16.06c-1.39,0-3-.15-4.24.73a1.76,1.76,0,0,0-.76,1.32c0,.78.57,1.27.69,2a1.44,1.44,0,1,1-2.86.36.54.54,0,0,0-.68-.52q-4.3,1-8.54,2.32a.54.54,0,0,0-.32.79C489.4,8.91,491,9,492.4,9c.94-.05,3-.25,3.57.82a12.16,12.16,0,0,1-4-.08.54.54,0,0,0-.66.66,15.67,15.67,0,0,1-.92,8.8,11.7,11.7,0,0,0-7.77-5.25.56.56,0,0,0-.61.25,3.65,3.65,0,0,0,.78,4.53,2.06,2.06,0,0,1-1.44.46,2.35,2.35,0,0,0-1.2-1.95c-.57-.4-3.22-1.15-2.59-2.19.33-.55-.39-1-.84-.65a21.27,21.27,0,0,1-6.47,3.59.54.54,0,0,0-.37.66,26.39,26.39,0,0,0,3.18,5.84c-.34.22-1.06-.26-1.28-.44a9.07,9.07,0,0,1-1.25-1.59c-.81-1-2-1.8-3.19-.89a.51.51,0,0,0-.14.52,5.12,5.12,0,0,1,.53,2.9A1.42,1.42,0,0,1,466,26.09a.54.54,0,0,0-.66.37L465,28.26a2.29,2.29,0,0,0-1-.1,2.8,2.8,0,0,0-.89.66,12.06,12.06,0,0,0-3.89,6.8.54.54,0,0,0,.52.68,21.43,21.43,0,0,1,3.2,0c-.42,1.65-.83,3.3-1.27,4.95a3.31,3.31,0,0,1-1.19,2.1,11,11,0,0,1-2.29.89,16.14,16.14,0,0,0-7.29,5.47.53.53,0,0,0,0,.54c1,2,2.23,4.37,4.5,5.2a4.27,4.27,0,0,0,4.6-.93,3.06,3.06,0,0,1,.37,1.27l-2.48,1a8.17,8.17,0,0,0-2.24,1,1.53,1.53,0,0,0-.56,1.66c.19.64.94,1.11,1,1.78a4.09,4.09,0,0,1-.36,1.21,2.34,2.34,0,0,0-.07,1,2.29,2.29,0,0,0,1,1.47,3.91,3.91,0,0,0,4.1-.06c.82-.41,1.57-1,2.42-1.28a6.62,6.62,0,0,1,2.47-.43,6.7,6.7,0,0,1,4.66,2,17.55,17.55,0,0,1,2.92,4.46,45.56,45.56,0,0,1,2.4,5.31c1.46,4,2.17,8.31.73,12.4a.54.54,0,0,0,.25.6l1.68.8a.54.54,0,0,0,.81-.46.5.5,0,0,1,.29-.54,20.15,20.15,0,0,1,2.77,6.11,5.91,5.91,0,0,1-2.51-1.43.54.54,0,0,0-.76,0c-1.28,1.39.44,2.91,1.31,3.95a6.07,6.07,0,0,1,1.24,5.08c-1.48.28-3.71,1.33-2.74,3.07a3.63,3.63,0,0,0,1.08,1,2.5,2.5,0,0,1,.89,1.5,26.67,26.67,0,0,1,.23,3.29,11.27,11.27,0,0,0,1.2,3.69c.51,1.08,1,2.16,1.58,3.23a44.43,44.43,0,0,0,3.75,6.31,21.45,21.45,0,0,0,5.81,5.57.54.54,0,0,0,.65-.08c3-3,2.92-7.44,3.47-11.34a19.73,19.73,0,0,1,.68-3.15,8.78,8.78,0,0,1,.58-1.46,2.9,2.9,0,0,1,1.33-1.23,18.29,18.29,0,0,0,8.54-10.07c2.26,1.12,4.92-.29,6.78-1.7,1.31-1,2.53-2.12,3.78-3.19l4.17-3.58a.54.54,0,0,0-.24-.89,24,24,0,0,1-3.9-1.53,18.29,18.29,0,0,0,.69-3.67,4.32,4.32,0,0,1,1.5,1.09c.21.24.39.68.72.78a1.22,1.22,0,0,0,.83-.12c1.27-.65,1.06-2.33.29-3.27-.5-.61-1.19-1-1.65-1.69a4.08,4.08,0,0,1-.71-2,4.37,4.37,0,0,1,1.18-3.49c1,.74,2.31,1.42,3.56.83a1.9,1.9,0,0,0,.89-2.87c-.36-.47-.89-.78-1.14-1.33a2.4,2.4,0,0,1-.1-1.49,2.49,2.49,0,0,1,2.12-2,.54.54,0,0,0,.46-.81c-.75-1.49.43-3.34.51-4.89a3.4,3.4,0,0,0-.69-2.28c-.54-.71-1.4-1.22-1.83-2-.24-.43-.44-1.51.2-1.72s1.45.42,2,.59c1.57.49,2.13-1.1,1.36-2.29-.51-.79-1.41-1.19-2-1.91-.22-.28-.74-1.63-.05-1.65a.55.55,0,0,0,.52-.68,2.88,2.88,0,0,0-2.56-2.42,5.76,5.76,0,0,1,.76-4.63c.88-1.32,2.36-2.11,2.12-3.92a27.25,27.25,0,0,1-.46-2.81,8.91,8.91,0,0,1,.37-2.82,6.67,6.67,0,0,1,.52-1.33c.33-.59.63-.53,1.25-.44a1.92,1.92,0,0,0,1.66-.37c.91-.81.8-2.3,1-3.4a3.73,3.73,0,0,1,.95-2c.74-.84,1.53-1.64,2.3-2.45l2-2.12a5.6,5.6,0,0,0,1.57-2.13C539.6,21.67,538.39,20.15,537.27,19.37Z"/><path class="cls-1" d="M467.68,106.3a6.54,6.54,0,0,1-2.62-2.06c-.63-.86-.87-2-1.68-2.7a10.53,10.53,0,0,0-2.7-1.32,6.8,6.8,0,0,1-2.1-1.54A4.66,4.66,0,0,0,461,97.43a.54.54,0,0,0-.24-.89,4.62,4.62,0,0,1-2.47-1.24l1-.59a.54.54,0,0,0,.11-.84,4.51,4.51,0,0,1-.91-1.37c-.15-.35-.6-.3-.84-.11a3,3,0,0,1-1.32.6l1-1a.54.54,0,0,0-.11-.84l-2.37-1.44a.53.53,0,0,0-.54,0c-.19.12-.38.22-.58.32l.09-.16A1.73,1.73,0,0,0,454,89a2.65,2.65,0,0,0-.95-1.67,3.69,3.69,0,0,0-3.37-.83c-.36-.6-.14-1.57-.31-2.22a1.59,1.59,0,0,0-.53-.87,2.26,2.26,0,0,0-1.42-.31c-.42,0-.37-.23-.51-.54a1.44,1.44,0,0,0-.35-.49,1.63,1.63,0,0,0-1.38-.3,3.63,3.63,0,0,0-1.31.56,3.47,3.47,0,0,1-.91.47c-.52.14-.73-.15-.83-.62a8.77,8.77,0,0,0-.43-1.71,7.53,7.53,0,0,0-1-1.61,17.93,17.93,0,0,0-1.2-1.39,2.88,2.88,0,0,0-1.44-1c-1.21-.23-2.28,1-3,1.79q-.69.7-1.31,1.47a6.37,6.37,0,0,0-1.21,1.75,1.23,1.23,0,0,0,0,.88c.08.19.47.53.39.75-.18.52-.76,0-.86-.3a1.72,1.72,0,0,1,.09-1.15,19,19,0,0,1,1.09-2.27A26.36,26.36,0,0,1,434.67,77a.54.54,0,0,0-.32-.79,9.4,9.4,0,0,0-3.22-.17.46.46,0,0,0-.44.06h0a.42.42,0,0,0-.38.42,16,16,0,0,0-3.65,7c-.28,1.2-.6,2.7.18,3.79a1.93,1.93,0,0,0,2.07.77l.74,1.7a4.31,4.31,0,0,1-.64-.3.54.54,0,0,0-.8.46c0,1.17.24,2.56,1.5,3a1.63,1.63,0,0,0,1.45-.11c.11-.07.2-.19.31-.25s.06-.11.25,0,.43.48.6.61a4.48,4.48,0,0,0,1.82.65q1.27.27,2.56.45a37.17,37.17,0,0,0,5.07.35.54.54,0,0,0,.46-.8c-.11-.21-.34-1.08,0-1.16s.91.81,1.26.93a1.27,1.27,0,0,0,1.44-.43c.72.41.79,2.13,1.15,2.73a2.2,2.2,0,0,0,1.16.9c.34.14.71.3.68.75a.66.66,0,0,1-.78.55.53.53,0,0,0-.46.27.83.83,0,0,0,.65,1.22c.37.05.73-.28,1.09-.17a2.94,2.94,0,0,1,1,.81,7.6,7.6,0,0,1,2.09,4.5,6.33,6.33,0,0,1,0,1.22c-.06.55-.52.64-.91.92a2.63,2.63,0,0,0-1,1.42,2.91,2.91,0,0,0,.39,2.44,6.13,6.13,0,0,0-2.62,1.75,11.89,11.89,0,0,0-1-.92c-.71-.31-1.27.27-1.51.9a2.14,2.14,0,0,0,2.31,2.95,5.07,5.07,0,0,0,1.11-.56c.6-.3,1.09,0,1.57.41a23,23,0,0,1,2.18,2.14,19,19,0,0,0,4.8,3.59c.83.45,4.09,2.61,4.51.59a.56.56,0,0,0-.37-.66,6.56,6.56,0,0,1-3.33-3.19L460,119c.79.44,2,1.14,2.46,0a11.9,11.9,0,0,0,.46-1.59,4.19,4.19,0,0,0,.29-1.78,2.25,2.25,0,0,0-.67-1.12c-.5-.53-1-1.05-1.52-1.58a13.55,13.55,0,0,1-2.47-2.81,1.62,1.62,0,0,1-.11-1.48.82.82,0,0,1,1.27-.39,8,8,0,0,1,2.43,2.69c.44.72.75,2.15,1.85,2s2-1.68,2.5-2.51a11,11,0,0,0,1.4-3.54A.55.55,0,0,0,467.68,106.3Z"/><path class="cls-1" d="M441.75,78.18c.43.35,1,.33,1.35.81s.25.79.52,1.12a3,3,0,0,0,2.61.56c.71-.13,1.9-.52,2-1.36.06-.48-.29-.82-.5-1.22a3.45,3.45,0,0,1-.32-1.65,1.58,1.58,0,0,0-1.44-1.7,7.29,7.29,0,0,1-1.62-.17,1.77,1.77,0,0,0-2.67,1.2l0,.08a4,4,0,0,0-.12.58.56.56,0,0,0,0,.15,2.13,2.13,0,0,0-.23.71A1.06,1.06,0,0,0,441.75,78.18Z"/><path class="cls-1" d="M411.56,93.34l-.41,0a1.69,1.69,0,0,0-.94-1.34,9.36,9.36,0,0,1-1.7-.71,6.25,6.25,0,0,1-.76-1.54,2.19,2.19,0,0,1,.3-1.26,2.77,2.77,0,0,0,.61-1.56,1.27,1.27,0,0,0-.92-1.08,3,3,0,0,0-.13-.77,9.61,9.61,0,0,0-.73-1.27l-.1-.31a5.41,5.41,0,0,1,.38-1.55,7.57,7.57,0,0,0,.17-1.65,5,5,0,0,0-.8-3,1.56,1.56,0,0,0-2.28-.28.54.54,0,0,0-.14.52,1.64,1.64,0,0,1-.16,1.1l-.24-.08a2,2,0,0,0-2.14.66,2.11,2.11,0,0,0-.26,1.34c0,.74.1,1.47.16,2.21l.15,2.08c0,.33.29,1.78-.08,1.8-.63,0-.5-1.38-.52-1.74A9.87,9.87,0,0,0,400,81c-.32-.65-.91-.68-1.57-.86a.54.54,0,0,0-.66.66,1.87,1.87,0,0,1-2.5,2.29,1.4,1.4,0,0,0,0-1.82,1.67,1.67,0,0,0-1.38-.55q.27-.31.56-.6a.54.54,0,0,0-.38-.91,2.78,2.78,0,0,1-1.3-.4.5.5,0,0,0-.67.14,10.4,10.4,0,0,0-2.51,1.56c-1,.56-1.9,1.13-2.82,1.73a1.69,1.69,0,0,0-.94,1.41,1.12,1.12,0,0,0,.2.61,4.79,4.79,0,0,0-.66,1.06,2.13,2.13,0,0,0,1.08,3c.95.29,2.1-.36,3-.14a8.53,8.53,0,0,1-1.18.65,1.8,1.8,0,0,0-.8,1.21,1.12,1.12,0,0,0,.65,1.11c.52.25,1.15,0,1.64.28s.75.63,1.36.6,1.22-.31,1.85-.34a5.45,5.45,0,0,1,3,.73,7.52,7.52,0,0,1-2.23.53,7.9,7.9,0,0,1-1.7-.06H392a.49.49,0,0,0-.45-.25c-1,0-2.59.24-3.19,1.16a.92.92,0,0,0,.09,1.17,1.09,1.09,0,0,0,.55.28l.15,0a1.3,1.3,0,0,0-.09.22,1.2,1.2,0,0,0,.08.85c.38.68,1.22.39,1.82.28l.61-.11a3.84,3.84,0,0,1,1.22.12.74.74,0,0,0,.1.17c.2.25.46.28.72.43s.3.68.25,1.06a.57.57,0,0,0,.25.6.8.8,0,0,1,.26.94.59.59,0,0,0,.26.74,2.22,2.22,0,0,0,2.3.1c.52-.22,1-.52,1.52-.74a12.16,12.16,0,0,1,1.7-.53c1.41-.38,3-1,3.67-2.36a9,9,0,0,0,5.08,2.14,1.56,1.56,0,0,0,1.36-.2,1,1,0,0,0,.21-1.26,2,2,0,0,0-1.13-.9c-.27-.12-.48-.25-.52-.45a.53.53,0,0,0,.15-.11,1.85,1.85,0,0,1,2.11-.5.55.55,0,0,0,.79-.32,4.07,4.07,0,0,0,.29-1.53A.54.54,0,0,0,411.56,93.34Z"/><path class="cls-1" d="M386.2,81.62l2-1.33,1.75-1.18c.43-.29.9-.6.83-1.19a3.58,3.58,0,0,0-.83-1.46,16.59,16.59,0,0,0-1.25-1.51c-.4-.42-1-1.21-1.56-1.39s-1,.19-1.37.37-.47,0-.75-.28a2.47,2.47,0,0,0-.72-.55,2.38,2.38,0,0,0-1.22-.23,1.63,1.63,0,0,0-1.75-.7c-1.24.2-2.47.62-3.68.93a.49.49,0,0,0-.38.55,2.32,2.32,0,0,0,.17,1.66,2.26,2.26,0,0,0,.56.69c.3.25.35.27.08.57a1.41,1.41,0,0,0-.37,1.32c.12.47.64.95.65,1.42s-.34.56-.54.79a4.49,4.49,0,0,0-.49.7,7.13,7.13,0,0,0-.62,1.58,10.26,10.26,0,0,1-1.31,3.6c-.32.42.21.84.6.79a1.87,1.87,0,0,1,1.59.54c.34.35.49.85.8,1.23.66.8,1.53.62,2.34.17a1.55,1.55,0,0,1,1.24-.29.91.91,0,0,0,1.08-.65,3.51,3.51,0,0,0-.09-1.68,1.36,1.36,0,0,1,0-.85c.19-.33.52-.2.84-.26,1.14-.22.82-1.31,1.08-2.12C385,82.26,385.73,81.93,386.2,81.62Z"/><path class="cls-1" d="M424.57,23.19c1.16.86,1.28,2.53,1.57,3.83a5.68,5.68,0,0,0,1.9,3.46,5,5,0,0,0,3.75,1,4.29,4.29,0,0,0,1-.27,4.09,4.09,0,0,1,.89-.39c.47-.06.6.51.91.77a1.66,1.66,0,0,0,1,.37,3.89,3.89,0,0,0,1.85-.52c.78-.39,1.56-.8,2.31-1.24a15.37,15.37,0,0,0,4-3.12c.22-.26.42-.55.65-.79s.91-.57.39.05-1.22.72-1.47,1.46a2.09,2.09,0,0,0,0,1c.05.53-.18.58-.62.77a13,13,0,0,0-2.34,1.34,13.3,13.3,0,0,0-2,1.8,6,6,0,0,0-1.48,2.15A1.77,1.77,0,0,0,437,36a5.57,5.57,0,0,0-1.69-1.84c-1.42-.88-3.85-.27-3.89,1.64a.54.54,0,0,0,.54.54c.62-.05.08,1.71.09,2a1.63,1.63,0,0,0,1.22,1.53,3,3,0,0,1,1.83,3.83.54.54,0,0,0,.14.52,2.43,2.43,0,0,0,1.76.67c.42,0,2,0,1.28.82s-2.24-.13-3.1-.27a4.31,4.31,0,0,0-2.58.45c-1.51.74-3.44,2.4-3.46,4.22a2.21,2.21,0,0,0,2.19,2.17c0,.23,0,.46.08.7a.54.54,0,0,0,.79.32l1.54-.91a1.05,1.05,0,0,1-.07.17.54.54,0,0,0,.19.73c.39.2.83.54.79,1s-.57.69-1,.44c-.64-.35-1-.94-1.77-1.11-1.22-.28-2.29.72-1.6,1.92a8.11,8.11,0,0,0,.51.69c.25.35.31.5-.09.78-.81.56-1.7,1-2.54,1.55-.59.36-1.17.82-1.07,1.59a9.31,9.31,0,0,0,.44,1.2,3.15,3.15,0,0,1,0,1.6.54.54,0,0,0,.25.6,4.39,4.39,0,0,0,5-1.15,2.68,2.68,0,0,0,1.86.89,1.72,1.72,0,0,0,1.51-.86l2.56-.53c.26-.06,1.25-.4,1.46-.19s0,.81,0,1a.54.54,0,0,0,.52.68c1.63,0,2.66-1.38,3.37-2.68a2.2,2.2,0,0,0,.27-2.26,2.5,2.5,0,0,0-1.3-.88c-.28-.11-1.19-.29-1.11-.72s1.22-.69,1.57-.87c1.28-.69,1.33-2,1-3.2a3.24,3.24,0,0,0,2.24-.65c.89-.79.61-1.88.66-2.92,0-.7.42-.75,1-1a1.36,1.36,0,0,0,.92-1c.18-1-.61-1.5-1.46-1.68l.1-.2a.55.55,0,0,0-.08-.65,12.3,12.3,0,0,1-1.18-1.53c-.15-.23-.9-1.24-.64-1.51s1.24,0,1.49,0a5.49,5.49,0,0,0,1.39-.2,3.07,3.07,0,0,0,2.31-3,2.76,2.76,0,0,0,1.21-.72,8.88,8.88,0,0,1,3-2.06.54.54,0,0,0,.24-.89,1.84,1.84,0,0,1-.44-.63c-.12-.3-.11-.36.21-.33a1.43,1.43,0,0,0,1.21-.34,2.08,2.08,0,0,0,.48-1.12,3.47,3.47,0,0,1,.6-1.66c1.86-2.43,3.94-4.7,5.91-7a.54.54,0,0,0-.11-.84,2.43,2.43,0,0,0-1.22-.27l.14-.1c.53-.39,1.08-.76,1.6-1.16a24.71,24.71,0,0,0,2.91-2.57c1.43-1.51,2.43-3.85.85-5.64a.52.52,0,0,0-.52-.14l-.5.2A8,8,0,0,0,463.92,8a.54.54,0,0,0-.84.11,5.12,5.12,0,0,1-2.89,2.38,2.18,2.18,0,0,0,1-2.16.54.54,0,0,0-.81-.46,2.55,2.55,0,0,1-3.07-.68,3,3,0,0,0-1.32-1,10,10,0,0,0-1.93-.28c-.76-.09-2.52-.64-3,.33a1.39,1.39,0,0,0,.29,1.35L452.31,9c-.23,0-.49-.06-.69-.06a1.76,1.76,0,0,0-.83.2,1.56,1.56,0,0,0-.27.18,15.5,15.5,0,0,1-2.58-3.23.54.54,0,0,0-.73-.19c-.49.35-1.13.21-1.67.43a1.55,1.55,0,0,0-1,1,1.17,1.17,0,0,0,.36,1.14c.29.28,1.09.73.47,1.18a2.28,2.28,0,0,0-.44-.7A3.12,3.12,0,0,0,442,8.12a4.16,4.16,0,0,0-2.59,2.21,8.34,8.34,0,0,0-.67,1.81c-.13.5-.5,1.89-1.28,1.31a.54.54,0,0,0-.8.46A2,2,0,0,0,438,15.67c.33.15,2.42.7,1.65,1.37a.54.54,0,0,0,.24.89l.29.12a4.64,4.64,0,0,1-1.65-.51,8.17,8.17,0,0,1-2.17-2.06c-1.11-1.24-3.21-2.07-4.29-.32a12.37,12.37,0,0,0-.72,2c-.46,1.14-1.43.67-2.4.82a2,2,0,0,0-1.45,2.65,10.23,10.23,0,0,0-3,1.72A.54.54,0,0,0,424.57,23.19Z"/><path class="cls-1" d="M419.12,35.68c.32.06.89.11.88.56,0,.65-.79.28-1.15.32a1.31,1.31,0,0,0-1.11,1.08c-.19.83.37,1.45.76,2.11a1.48,1.48,0,0,1,.22.51c0,.32-.1.36-.23.6a.79.79,0,0,0,0,.81,2.07,2.07,0,0,0,2,.71,4.6,4.6,0,0,0,.92-.2c.21-.07.78-.41,1-.34s.25.28.34.36a1.25,1.25,0,0,0,.4.22,1.81,1.81,0,0,0,1.2-.14c.17-.07.62-.34.8-.18-.09-.09-1.08.33-1.25.39a2.52,2.52,0,0,0-1.69,1.4,1.59,1.59,0,0,0-.07.79c.07.43.38.73-.13.92s-1.09.63-.92,1.3.74.81,1.17,1.14c.63.47.79,1.35,1.47,1.79,1.34.88,2.9-.16,3.58-1.37.45-.81.65-1.73,1.14-2.52s1.27-1,2.11-1.36a1.51,1.51,0,0,0,1-1.43c0-.88-1.24-1.6-.48-2.46a.53.53,0,0,0,.14-.52,20.49,20.49,0,0,1-.89-3.18c-.16-.83-.16-1.69-.95-2.18-.41-.25-.59-.37-.58-.9a2.29,2.29,0,0,0-.17-1.21c-.36-.66-1.08-.92-1.68-1.3-1.59-1-2-2.89-2.4-4.56-.37-1.44-1.59-3.25-3.34-2.53a.6.6,0,0,0-.26.87.56.56,0,0,0,.22.5,1.6,1.6,0,0,0,.54.26,4.06,4.06,0,0,1,.57.12c-.12,0-.4.52-.45.6l-.39.65a1.57,1.57,0,0,0-1.66.23,1.15,1.15,0,0,0-.14,1.53l.07.07-.13.12a1.12,1.12,0,0,0-.29.86,1.73,1.73,0,0,0,.35.87c.14.19.51.48.69.76a1.16,1.16,0,0,1-.84-.38.53.53,0,0,0-.52-.14,1.21,1.21,0,0,0-.68,1.58c.08.31.4.7.38,1s.1.07-.16.13a1.57,1.57,0,0,0-.58.18.54.54,0,0,0-.19.73A1.88,1.88,0,0,0,419.12,35.68Z"/><path class="cls-1" d="M428.68,73.09,434,73a4.23,4.23,0,0,0,2-.27,2.19,2.19,0,0,0,.62-.58,1.23,1.23,0,0,0,.15.51,1.33,1.33,0,0,0,1.11.61,7.36,7.36,0,0,0,3.52-1,.54.54,0,0,0,.11-.84,3.45,3.45,0,0,0,.7-.17,1.87,1.87,0,0,0,.66-.3.55.55,0,0,0,.25-.6.8.8,0,0,0-.87-.56c-.15,0-.37.12-.53.12.23,0,.53-.35.66-.52a1.85,1.85,0,0,0-1.59-2.94c-.75,0-1-.49-1.59-.91a1.74,1.74,0,0,0-1.35-.36c-.6.1-1.06.54-1.64.69s-1.25-.22-1.86.09-.67,1.05-1.23,1.25c-1.18.41-2.52-1.44-3.59-.45a2.2,2.2,0,0,0-.36.51c-.18.31-.23.41-.5.08a10.82,10.82,0,0,1-1-2.14,6.45,6.45,0,0,0-.92-1.76A1.66,1.66,0,0,0,426,63c-.38-.13-.54-.2-.65-.62-.14-.57-.29-1.11-.88-1.38s-1.09,0-1.66,0-.44-.83-.46-1.31a1.54,1.54,0,0,0-.64-1.27.54.54,0,0,0-.73.19c-.05.11-.78-.75-.84-.81a1.37,1.37,0,0,0-1-.39.54.54,0,0,0-.46.81s-1.47.23-1.61.28a1.21,1.21,0,0,0-.83,1.05c-.06.92.64,1.34,1.41,1.49a.52.52,0,0,0,.24.41,2.76,2.76,0,0,0,.72.34,1,1,0,0,0,.28.75,2,2,0,0,0,.95.5,3.31,3.31,0,0,0,2-.28,4.05,4.05,0,0,0,.85,1.19c.51.53,1.36,1.13,1.41,1.93s-.72,1.2-.76,1.92a10.76,10.76,0,0,0,.41,2.59,1.8,1.8,0,0,0,1,1.51,1.18,1.18,0,0,0,.77,0c.15,0,.24-.17.38-.22s0-.14.29.05a2.37,2.37,0,0,0,1.49.59,2.17,2.17,0,0,0,.6-.09v0A.54.54,0,0,0,428.68,73.09Z"/><path class="cls-1" d="M379.77,63.78c0,1,1.32,1.53,2.19,1.4a2,2,0,0,0,.66-.22c.08,0,.16-.13.25-.17l0,.06a1.2,1.2,0,0,0,1,.65c1.12,0,1.38-1,1.32-2a1.54,1.54,0,0,0,1-1c.13-.37.08-.78.22-1.16a1.71,1.71,0,0,1,.56-.76c.21.92.54,2.07,1.62,1.66l.26-.12c-.34.58.14,1,.7,1.4l-.11,0a1.55,1.55,0,0,0-.79.49,1,1,0,0,0-.22.81c0,.28.38.57.34.81s-.31.34-.4.45-.23.3-.34.46a5.54,5.54,0,0,0-.55,1.09c-.25.67-.45,1.51.29,1.93a6.53,6.53,0,0,0,2.49.36,2.66,2.66,0,0,0,2.25-.42c.4-.35.59-.55,1.16-.35.34.11.65.29,1,.41-1.37.45-2.65,1.21-1.77,2.74a2.13,2.13,0,0,0,2.2,1,3.64,3.64,0,0,0,1.55-.64,4.13,4.13,0,0,1,1.4-.87c1.09-.24,2.17.1,3.21-.44.4-.2.74-.49,1.11-.73a4.86,4.86,0,0,1,1.55-.46c.91-.25,1.08-1.18,1.05-2,0-1.36-.14-2.73-.21-4.09a.55.55,0,0,0-.54-.54,4,4,0,0,0-2,.49,7.24,7.24,0,0,1-.71-4.53.54.54,0,0,0-.66-.66c-1,.2-3.54,1.21-2.67,2.65.08.14.47.53.46.59s-.24.26-.29.34a1.36,1.36,0,0,0-.19.49c-.14.82.49,1.35.69,2.07,0,.07.1.41,0,.48s-.5-.26-.55-.3a4.16,4.16,0,0,1-.83-1c-.32-.56-.39-1.37-1.17-1.44-.37,0-.67.17-1,.06a5.37,5.37,0,0,1-.92-.5,2.76,2.76,0,0,0-1-.35,6.71,6.71,0,0,1-1.14,0,.44.44,0,0,0-.37-.59,4.52,4.52,0,0,0-2.29.16A9.09,9.09,0,0,0,391,59.65a.55.55,0,0,0-.08-.65q-.35-.3-.73-.57c.42-.66.21-1.62.69-2.29a.54.54,0,0,0-.19-.73,10.66,10.66,0,0,1-1.66-1,.49.49,0,0,0-.77.38.57.57,0,0,0-.08.14,1.31,1.31,0,0,0-.08.57,2,2,0,0,1-1,.06,1.25,1.25,0,0,0-1,.11,8.14,8.14,0,0,0-1.69,2.13c-.7,1.06-1.87,4.23-3.64,3.4a.56.56,0,0,0-.65.08,1,1,0,0,0-.28,1.08,1.57,1.57,0,0,1,.12.74C379.9,63.38,379.76,63.5,379.77,63.78Z"/><path class="cls-1" d="M394,54.91c.22.19.65.3.9.5a.68.68,0,0,0-.08.36.71.71,0,0,0,.49.6,2.85,2.85,0,0,0,1.91-.32,4,4,0,0,0,1.84-1.34c.33-.59-.12-1.09-.66-1.29a2.14,2.14,0,0,1-.44-.12c-.05-.18.27-.21.39-.27a1.63,1.63,0,0,0,.74-.53,1.19,1.19,0,0,0-.31-1.6c-1.19-.92-3.31.2-4.32.94a.57.57,0,0,0-.15.16.51.51,0,0,0-.25.43c0,.29-.34.55-.46.8a1.3,1.3,0,0,0-.12.87A1.51,1.51,0,0,0,394,54.91Z"/><path class="cls-1" d="M395.3,50c.35-.11.22-.24.46,0a1.15,1.15,0,0,0,.67.41c.74.14,1.25-.55,2-.56s1.32.16,1.53-.58a2.76,2.76,0,0,0-.2-1.69c-.29-.61-.86-.72-1.33-1.13a1.41,1.41,0,0,0-1.65-.28,2.52,2.52,0,0,0-.61.44l-.72.15a1.55,1.55,0,0,0-.79.31,1.17,1.17,0,0,0-.3,1.08l-.69.6a.54.54,0,0,0,0,.76A1.67,1.67,0,0,0,395.3,50Z"/><path class="cls-1" d="M405.48,45a.54.54,0,0,0-.1.83c.55.57,1.15.2,1.7-.14.36-.22.06-.09.19.08a1.74,1.74,0,0,0,.29.33,4.72,4.72,0,0,0,.63.28,2.21,2.21,0,0,0-.81.78c-.17.27-.16.58-.52.63s-.88-.33-1.19-.55-.76.11-.81.46a2.7,2.7,0,0,0,4.21,2.54,1.89,1.89,0,0,1-.29.8c-.2.38.14.95.6.79a2.34,2.34,0,0,1,1.51-.21c.46.17.8.73,1.16,1s1.16,1,1.79.58a1.85,1.85,0,0,0,.3-2.15c-.34-.88-1.23-1.65-.83-2.64.27-.67.4-1.36-.25-1.85-.29-.21-.68-.27-.94-.51a3.13,3.13,0,0,1-.52-1.11,2,2,0,0,0-2.5-1.27,2.59,2.59,0,0,1-.65-1.18,1.32,1.32,0,0,0-.81-.62,2.7,2.7,0,0,0-2.07.06.58.58,0,0,0-.62.81c-.09-.2-.52.6-.54.68a1.2,1.2,0,0,0,.17,1A1.38,1.38,0,0,0,405.48,45Z"/><path class="cls-1" d="M415.7,50.17c.26.32.05.68.26,1a1,1,0,0,0,.6.41l-.07.07a.54.54,0,0,0,0,.76c.51.46,1.31,1,2,.65a6.37,6.37,0,0,0,1.08-.91A14.42,14.42,0,0,1,421,51.1a.54.54,0,0,0,0-.92,1.78,1.78,0,0,1-.78-.84c-.08-.29,0-.55-.19-.82a3,3,0,0,0-1.52-1,1.59,1.59,0,0,1-.51-.2c-.15-.16-.06-.28-.09-.46a.91.91,0,0,0-.25-.65c-.47-.45-1.56-.36-2.17-.43-.41,0-.57.33-.49.65a2.49,2.49,0,0,0,.13,1.15,1.88,1.88,0,0,1,.16.59c0,.27-.16.26-.31.45C414.44,49.3,415.3,49.68,415.7,50.17Z"/><path class="cls-1" d="M416.62,66.08a2.06,2.06,0,0,0-.18-1.54c-.29-.58-.79-1-.64-1.71a2.08,2.08,0,0,0-.08-1.62,2.22,2.22,0,0,0-1.36-1c-.84-.22-3-.17-3.24,1a1.27,1.27,0,0,0,.55,1.15c.18.17.44.3.46.57a.47.47,0,0,1-.81.36c-.25-.24-.17-.59-.3-.88a.93.93,0,0,0-.55-.5c-.26-.09-.56.07-.79,0h-.05l-.07-.11c-.08-.12-.1-.28-.18-.4-.35-.51-.95-.42-1.39-.76-.28-.21-.32-.54-.7-.61a.72.72,0,0,0-.72.25.57.57,0,0,0,0,.68,1.59,1.59,0,0,0,.71,2.08,2,2,0,0,0-.38.61,1.24,1.24,0,0,0,.55,1.14c.38.3,1,.32,1,.9a5.45,5.45,0,0,0-.14,1.33.52.52,0,0,0,.37.37,2.63,2.63,0,0,0,1.8-.26c.51-.23,2.29-1,2,.24-.07.35-.38.65-.49,1a1.69,1.69,0,0,0-.08.95,1.57,1.57,0,0,0,1,1.06,2.51,2.51,0,0,0,1.8-.15c.47-.19,1.06-.41,1.24-.94s-.32-1.08-.1-1.67S416.46,66.63,416.62,66.08Z"/><path class="cls-1" d="M422.32,72.33a.54.54,0,0,0,.13-1c-.62-.46-.26-1.06-.17-1.67a2.07,2.07,0,0,0-.2-1.21,5,5,0,0,0-.5-1.17,5.58,5.58,0,0,0-1.42-.91.48.48,0,0,0-.63.08.53.53,0,0,0-.15.12L418,68.14a6.51,6.51,0,0,0-1.22,1.44c-.36.84.69,1.2,1.45,1.34a1.83,1.83,0,0,0,1.29,1.38A4.6,4.6,0,0,0,422.32,72.33Z"/><path class="cls-1" d="M413.55,75.76a.54.54,0,0,0-.18,0c-.65.2-1.9.33-2.2,1.06a1,1,0,0,0,.14,1l-.08,0a.54.54,0,0,0-.61.79,2.52,2.52,0,0,0,1.75,1.09,2.74,2.74,0,0,0-.48,1.14,1.5,1.5,0,0,0,.12.73.46.46,0,0,1-.72-.26,5.3,5.3,0,0,0-.37-.79,1.37,1.37,0,0,0-1.44-.65,1.08,1.08,0,0,0-.68,1.24c.11.65.71,1,.92,1.6a6.68,6.68,0,0,0,.57,1.65,2.26,2.26,0,0,0,1.53.83c1.49.34,2.16,1.77,2.75,3a.54.54,0,0,0,.73.19,3.48,3.48,0,0,0,1.81-2.12,4.61,4.61,0,0,0,0-1.1,2.81,2.81,0,0,0,0-.43c.45-.13.8-.37.68-1-.07-.37-.45-.58-.27-.94s.4-.49.43-.87c0-.79-.67-1.15-1.27-1.44s-.38-.61,0-1a5.2,5.2,0,0,0,.81-.89,1.47,1.47,0,0,0,.22-1,1.6,1.6,0,0,0-.17-.48c-.14-.27-.19-.16,0-.37s.45-.36.52-.76a1.17,1.17,0,0,0-.25-.92C416.7,73.81,414.56,74.89,413.55,75.76Z"/><path class="cls-1" d="M426.89,78.23a7.52,7.52,0,0,0-.13-1.25c0-.23,0-.18.09-.34s.25-.16.34-.28a1,1,0,0,0-.43-1.52,7.55,7.55,0,0,0-2.56-.44,13,13,0,0,0-3,0,.55.55,0,0,0-.38.22,1.56,1.56,0,0,0-1.13.92,1.22,1.22,0,0,0,0,.92,2.12,2.12,0,0,0,.41.57,1.56,1.56,0,0,1-.45.06.53.53,0,0,0-.46.27,1.2,1.2,0,0,0,.5,1.52c.42.32.27.36,0,.7a1.75,1.75,0,0,0-.37,1c-.12,1.49,1.1,2.85,2.25,3.63.38.25.76-.1.8-.46s.11-1,.19-1.45a1.16,1.16,0,0,1,0-.27,1.7,1.7,0,0,0,.29.25,1.33,1.33,0,0,0,1.67-.42c.53-.63.44-1.48,1.15-2S426.8,79,426.89,78.23Z"/><path class="cls-1" d="M481,156.33a.54.54,0,0,0-.81-.46c-.39.21-.5-1-.55-1.14a1.3,1.3,0,0,0-.39-.7,1.65,1.65,0,0,0-1.54,0,1.29,1.29,0,0,0,0-.94.92.92,0,0,0-1-.56l-.18,0a1.14,1.14,0,0,0,.1-.23,2.23,2.23,0,0,0,.15-.81,1.33,1.33,0,0,0-.63-1.18.47.47,0,0,0-.52,0,.55.55,0,0,0-.71.5,5.89,5.89,0,0,1-1.13,3.21,2.56,2.56,0,0,1-1.28,1,1.8,1.8,0,0,0-1.07.68c-.26.42-.11.67,0,1.09,0,.13.1.06,0,.18s-.2.12-.27.18a1.4,1.4,0,0,0-.4.42c-.44.74.17,1.35.93,1.33a2.16,2.16,0,0,0,1.22-.44,1.34,1.34,0,0,1,.2-.17h0a.11.11,0,0,0,0,.05,2.66,2.66,0,0,0,.62.4,2.16,2.16,0,0,0,1.2.16,3.76,3.76,0,0,0,.68-.2c.13,0,.27-.14.4-.07s0,.14,0,.33a.86.86,0,0,0,1.17,1.13,2.63,2.63,0,0,0,1-.67c.06-.06.35-.51.46-.51s.13.34.17.44a1,1,0,0,0,1.72.44C481.27,158.95,481.08,157.32,481,156.33Z"/><path class="cls-1" d="M443.59,205.8a1,1,0,0,0,.72.14,3,3,0,0,0-.13.59.4.4,0,0,0,.4.4l2.9-.2a7.79,7.79,0,0,0,2.36-.4c.25-.1.44-.46.18-.67a4.35,4.35,0,0,0-1.92-.9s0-.08,0-.12a.41.41,0,0,0-.51-.39,3.19,3.19,0,0,1-1.26.06,1.3,1.3,0,0,1-.8-.66.91.91,0,0,0-1-.4c-1.33.12-2-1.53-3.16-1.9a5.38,5.38,0,0,0-1.77-.1,13.27,13.27,0,0,0-2,.19,8.38,8.38,0,0,0-1.81.52,1.35,1.35,0,0,0-.5.35,3.21,3.21,0,0,0-.24.54,4.28,4.28,0,0,0-.41.34.4.4,0,0,0,.28.68c1.21,0,2.22-.86,3.37-1a.6.6,0,0,0,.59.68c.32,0,.63-.11,1,0a3.22,3.22,0,0,1,.93.63,2.52,2.52,0,0,0,.82.45c.35.1.69,0,1,.16S443.19,205.53,443.59,205.8Z"/><path class="cls-1" d="M457.86,208.29a10.08,10.08,0,0,0-1.67-1c-.45-.24-.57-.75-1.1-.93a2.83,2.83,0,0,0-1.33,0c-.41,0-.68-.17-1.07-.21a1.8,1.8,0,0,0-.79.09,1.44,1.44,0,0,0-1.46,1.09.41.41,0,0,0,.39.51,2,2,0,0,1,.72.2l-2.07.32c-.37.06-.35.56-.1.73a3.4,3.4,0,0,0,2.37.26,1.91,1.91,0,0,1,1.33.28,1.9,1.9,0,0,0,1,.44.4.4,0,0,0,.39-.51c-.15-.64.68-.27.87-.23a1.49,1.49,0,0,0,.57,0c.59-.1.83-.64,1.51-.41C457.83,209.08,458.17,208.55,457.86,208.29Z"/><path class="cls-1" d="M447.63,209a.35.35,0,0,0-.16-.13,4.43,4.43,0,0,0-2.33-.76c-.44.07-1.33.1-1.69.48a.47.47,0,0,0-.32.38c-.11.65.76.75,1.2.81a3.49,3.49,0,0,1,.65.06s0,.09.05.19a.78.78,0,0,0,.49.45c.68.22,1.58-.48,2.14-.77A.41.41,0,0,0,447.63,209Z"/><path class="cls-1" d="M505.44,242.42a5.73,5.73,0,0,0-2.6-.69c-1-.07-1.61-1.18-2.42-1.69a4.71,4.71,0,0,0-2.55-.69,16.65,16.65,0,0,1-1.79,0,7,7,0,0,1-1.61-.64c-.83-.29-1.42.21-2.1.57a6.27,6.27,0,0,0-.57-1.62c-.34-.55-.94-.32-1.39-.7a2.71,2.71,0,0,0-1.43-.79,3,3,0,0,0-1.65.28,6.52,6.52,0,0,0-1.55,1.12c-.2.17-.54.63-.81.6s-.12-.11-.13-.33a1.48,1.48,0,0,0-.07-.38l0-.08a1.31,1.31,0,0,0,1.11-.69,1.05,1.05,0,0,0-.61-1.59,2.76,2.76,0,0,0-2.36,1,1.36,1.36,0,0,0-.22.46h0a9.87,9.87,0,0,0-1,.37c0-.44,1-.8,1.22-1.08a2.21,2.21,0,0,0,.31-.6,1.85,1.85,0,0,1,.66-.86c.5-.4.94-1.2.46-1.7a4.07,4.07,0,0,0-1.93-3.86,12,12,0,0,1-2.12-1.16c-.3-.27-.39-.71-.72-.94s-.5-.13-.83-.09-.29.06-.47-.12-.21-.29-.38-.4a1.38,1.38,0,0,0-1-.15,8.06,8.06,0,0,0-1.2.46c-.66.21-1.22-.29-1.73-.65a29.43,29.43,0,0,1-2.68-2.19,2.06,2.06,0,0,0-1-.6,8.52,8.52,0,0,0-.86,0,1.07,1.07,0,0,0,0-.91c-.28-.67-.95-.8-1.58-1l0,0a.41.41,0,0,0,.14-.55c-.54-1-1.79-.87-2.68-.43a4.19,4.19,0,0,1-2.23.66,7.3,7.3,0,0,1-2.25-.76,1.86,1.86,0,0,0-.72-.15c-.34,0-.73.26-1.07.19-.54-.12-.91-.83-1.42-1.07a2.8,2.8,0,0,0-1.73-.1,8.68,8.68,0,0,1-2,.25,1.87,1.87,0,0,0-.05-.9.41.41,0,0,0-.66-.19.38.38,0,0,0-.19.17c-.78,1.3-2.62,1-3.85,1.55a1.64,1.64,0,0,0-1,1,2.43,2.43,0,0,0,0,.59c-.08.1-.59.1-.72.17-.39.2-.44.55-.57.93a.88.88,0,0,1-.53.59,1.12,1.12,0,0,0-.47.52,3,3,0,0,0-.15.65c-.08.41-.26.36-.62.55a1.18,1.18,0,0,0-.64,1,4.88,4.88,0,0,0,.28,1.54,5.74,5.74,0,0,1,.16,2,3.26,3.26,0,0,1-.76,1.88c-.37.42-.89.73-.94,1.35,0,.29.15.59,0,.86s-.4.46-.62.62a4.23,4.23,0,0,0-1.17,1c-.34.5-.42,1.12-.73,1.63s-.86.82-.76,1.49a1.79,1.79,0,0,0,1,1.21c.51.29.88.46.29,1a4.9,4.9,0,0,1-1,.64c-.44.25-1.19.48-1.22,1.09a1.76,1.76,0,0,0,.66,1.14l-.07,0a.74.74,0,0,0-.27.5,1,1,0,0,0,.74,1.07,2.61,2.61,0,0,1,1.11.59,3.92,3.92,0,0,1,.56.85c.44.82.84,1.67,1.26,2.51.84,1.68,1.74,3.34,2.48,5.06.49,1.13.7,2.85,2.08,3.25h0c1.37,1,2.47,2.3,3.83,3.31a7,7,0,0,0,2.11,1.11c.3.09.8.11,1,.38a1.16,1.16,0,0,1,.1.67c0,.44-.07.87-.05,1.31a3.7,3.7,0,0,0,.23,1.21c.16.4.6.78.64,1.2.06.69-.87,1.35-1.12,2a4.51,4.51,0,0,0,.25,2.74l.47,1.88a2,2,0,0,0-1.18,2,8.74,8.74,0,0,1-.21,1.87c-.14.56-.33,1.12-.44,1.69a5.38,5.38,0,0,0,0,1.63,4.89,4.89,0,0,1,.05,2,7.94,7.94,0,0,0-.46,1.25,4.38,4.38,0,0,0,.35,1.63,4.83,4.83,0,0,1-.24,2.17l-.49,2c-.14.61-.28,1.22-.44,1.82a1.55,1.55,0,0,1-1,1.26c-.78.32-.78,1-.46,1.68a3.11,3.11,0,0,1,.43,1.76,4.84,4.84,0,0,1-.69,1.67,2.27,2.27,0,0,0-.32,1.48,2.7,2.7,0,0,1,.22.9,3.73,3.73,0,0,0-.14.74.88.88,0,0,0,.53.79.75.75,0,0,0,.49,0c.07,0,.17-.11.23-.12l.13-.09a.59.59,0,0,1,.12.65.4.4,0,0,0,.15.4.45.45,0,0,0,0,.16,17.37,17.37,0,0,1-1.54,5,4.17,4.17,0,0,0-.39,2.19c0,.12.11.29.07.4s-.2-.17-.27-.27a1.58,1.58,0,0,0-.62-.58.41.41,0,0,0-.59.24,2.35,2.35,0,0,1-.86,1.32.41.41,0,0,0-.18.45.74.74,0,0,0,.68.52c.23,0,.44-.06.67-.05.41,0,.37.26.43.64a1.25,1.25,0,0,0,.86,1.08c0,.11,0,.23.06.34l-1.1.51c-.35.16-.19.62.1.73,1.17.48-.07,1.44-.2,2.08a.89.89,0,0,0,.2.77c.16.2.31.19.26.49,0,.15-.21.34-.29.47a1.74,1.74,0,0,0,.12,2c.46.63,1.2.95,1.73,1.5a1.83,1.83,0,0,0-.53.83.4.4,0,0,0,.39.51c.88,0,.61,1.1,1.35,1.34a1.17,1.17,0,0,0,.73,0,2.89,2.89,0,0,0-.17.34c-.11.26.16.49.39.51a1.33,1.33,0,0,1,1.14.87.4.4,0,0,0,.77,0,1.62,1.62,0,0,0-.12-1c-.14-.35-.28-.58,0-.94a2.33,2.33,0,0,1,.6-.48,2.35,2.35,0,0,0,1-1.17,8.29,8.29,0,0,0,1.12.36.41.41,0,0,0,.45-.59,4.52,4.52,0,0,1-.74-3.32,1.81,1.81,0,0,1,.91-1.1,1.62,1.62,0,0,0,.81-.68c.2-.44-.07-.82,0-1.24s.83-.79,1.19-1.09a7,7,0,0,0,1.84-2.45.41.41,0,0,0-.14-.55c-1-.63-2.51-1.54-2.19-3s1.94-.57,2.73-1.45c.58-.65.28-1.59.21-2.36a.87.87,0,0,1,.58-1.06c.37-.19.71-.44.65-.9a.42.42,0,0,0-.4-.4c-.07,0,.23-.65.24-.73a1.55,1.55,0,0,0-.37-.9A3,3,0,0,1,463,299a4.41,4.41,0,0,0,3.07.65c.46-.07,1-.2,1-.74a4.8,4.8,0,0,0-.36-1.65,2.26,2.26,0,0,0,.84-.27.38.38,0,0,0,.08-.61,6.67,6.67,0,0,0,4.86-1.51c.45-.34.87-.7,1.28-1.08a6,6,0,0,0,1.12-1.12,1.09,1.09,0,0,0,0-1.06c-.09-.19-.24-.36-.31-.55s.11-.51.32-.77a.41.41,0,0,0-.28-.69c-.19,0-.49-1-.63-1.15a1.32,1.32,0,0,0-.48-.32,1.63,1.63,0,0,1-.35-.21,14.23,14.23,0,0,0,4.14.93.35.35,0,0,0,.39-.4.34.34,0,0,0,.39.11,3.84,3.84,0,0,0,1.64-1,6.75,6.75,0,0,0,1-1.83c.15-.3.4-.52.58-.8s.22-.74.45-1c.36-.48.86-.7,1-1.31a.38.38,0,0,0,0-.18c.67-.72,1.35-1.44,2-2.19a3.11,3.11,0,0,0,.83-2.15,1.92,1.92,0,0,1,0-.53c.1-.32.33-.3.56-.44a1.26,1.26,0,0,0,.52-.63,3.78,3.78,0,0,0-.2-2.24c-.24-1.21.84-1.21,1.57-1.76a1.68,1.68,0,0,0,.54-.66c.13-.29.15-.65.43-.87a1.49,1.49,0,0,1,.6-.2,25.82,25.82,0,0,0,2.85-.92,10,10,0,0,1,3.52-.49.41.41,0,0,0,.35-.6c-.41-.54,0-.19.4-.34a.67.67,0,0,0,.41-.35.42.42,0,0,0,.13-.18,7.6,7.6,0,0,0,.67-2c0-.43.1-.52.48-.7a2,2,0,0,0,.62-.35,1.13,1.13,0,0,0,.22-1.21c-.12-.41-.26-.62.12-1a2.31,2.31,0,0,0,.56-.58c.67-1.19-.23-2.76.15-4,.16-.55.63-.92.4-1.52-.15-.39-.49-.61-.5-1.06a1,1,0,0,1,.94-1.08.43.43,0,0,0,.37-.36,2.45,2.45,0,0,0,1.12-1.38,2.76,2.76,0,0,1,.86-1.38,6,6,0,0,0,1.08-.85,4.82,4.82,0,0,0,1.26-2.4,29.26,29.26,0,0,0,.18-3.31C505.78,244,506.11,242.83,505.44,242.42Z"/><path class="cls-1" d="M280.19,97.95a24,24,0,0,0-2.7-2.29c-1-.88-2-1.8-3-2.77a8.2,8.2,0,0,1-1.18-1.4,4.7,4.7,0,0,1-.59-1.91,5.94,5.94,0,0,0-1.09-3,9.05,9.05,0,0,0-2.17-1.95,11.19,11.19,0,0,0-3.29-1.76c-.72-.18-2.45,0-2.6-.94a.39.39,0,0,0-.7-.09c-.78,1.63-2.83.68-4,.06a.39.39,0,0,0-.46.06,2.33,2.33,0,0,0-.43,2.21,4.05,4.05,0,0,1,.19,1.53c-.06.29-.19.52-.5.54-.11,0-.47,0-.44-.22a.39.39,0,0,0-.57-.44c-.3.16-.75.42-1.11.3s-.41-.35-.58-.56a2.39,2.39,0,0,0-.7-.64,2.55,2.55,0,0,0-1.74-.16c-1.25.24-2.8,1.25-4,.44a1.8,1.8,0,0,0-2-.31,2.06,2.06,0,0,0-.73.66,2.92,2.92,0,0,0-1-.7l0-2.5c0-.6.21-1.54-.17-2.07s-1.07-.35-1.5-.78-.65-1-1.09-1.42c-1.08-1-2.45-.27-3.56.27a7.7,7.7,0,0,1-4.76.66,1.13,1.13,0,0,0-.25-.49,1.71,1.71,0,0,0-.73-.43,1.1,1.1,0,0,1-.63-.37,3.83,3.83,0,0,1-.21-.53,2.55,2.55,0,0,0-1.88-1.46l.82-.68a.39.39,0,0,0-.08-.61c-1.36-.63-2.54-2.3-4.23-1.81a2.35,2.35,0,0,0-1.34,1.23c-.26.46-.68,1.54-1.33,1.66l.17-.26a.4.4,0,0,0-.06-.47,6.66,6.66,0,0,0-1.23-1.2l.89-1.08a.39.39,0,0,0-.08-.6,17,17,0,0,0-2-1.22c-.58-.25-.9,0-1.33.35-.65.6-1.81-.33-2.58-.31a1.05,1.05,0,0,0-.9.45c-.27.47.16.72.35,1.08.32.59-1,.47-1.32.54a1.15,1.15,0,0,0-1,.82.38.38,0,0,0,.1.38,1.93,1.93,0,0,1,.71,1.94,1.4,1.4,0,0,0-1.25.68l-3.41-.6a.4.4,0,0,0-.47.27c-.24.61-1.27-.09-1.53-.32a4,4,0,0,0-1.41-1c-.4-.12-.94-.13-1.16.27a7.17,7.17,0,0,0-.43,2.21,3.54,3.54,0,0,1-.77,2,1.49,1.49,0,0,1-1.67.51c-.6-.31-.67-1.17-.78-1.76a7.31,7.31,0,0,0-.5-1.72A6.68,6.68,0,0,0,200,73.53c-.24-.16-.93-.5-.39-.75.25-.11.67.08.92.12a1.36,1.36,0,0,0,1.42-.51,3.27,3.27,0,0,0,.1-3.14,2,2,0,0,0-1.2-.72,2.74,2.74,0,0,1-1.75-.92,2.53,2.53,0,0,0-1.54-1,6.05,6.05,0,0,1-1.21-.31c-.35-.15-.68-.33-1-.45-1-.33-2.5.08-2.4,1.35v0a.88.88,0,0,0-.61.82,1.62,1.62,0,0,0,.27.84c.24.51,0,.65-.46.67a7,7,0,0,1-2.44-.77l-1.37-.53c-.21-.08-.69-.18-.76-.42s.09-.31.1-.42c.08-.69-.47-.94-1-1.13a9,9,0,0,0-2.45-.52,3.77,3.77,0,0,0-2.15.55,10.41,10.41,0,0,1-1.65,1.09c.24-.3.64-.65.72-.9a1,1,0,0,0-.52-1.18,2.1,2.1,0,0,0-1.82.08,1.64,1.64,0,0,1-1.49-.05,2.52,2.52,0,0,0-.89-.3,1.07,1.07,0,0,0-1.2.8c-.07.39.14.78-.08,1.14s-1,.53-1.48.58a5.83,5.83,0,0,0-2.77.89,4.42,4.42,0,0,1,1.2-1.5,6.71,6.71,0,0,0,1.28-1,4.84,4.84,0,0,0,.59-1.4c.36-1,1.3-1.41,2.19-1.88a4.45,4.45,0,0,0,2-1.81c.46-.86.66-1.84,1.06-2.73s1.25-1.43,1.81-2.25a1.49,1.49,0,0,0-.09-1.94c-.37-.39-1.53-.79-1.57-1.35,0-.22.19-.47.22-.69a.9.9,0,0,0-.11-.6,3.41,3.41,0,0,0-1.16-1A7.28,7.28,0,0,0,174.7,49a.39.39,0,0,0-.33.58c.45.89-2,.9-2.45,1.09s-1.09.95-1.63,1a8.66,8.66,0,0,1,1.33-2.2c.26-.32-.07-.85-.47-.61-.73.44-1.64-.7-2.27-1a1.6,1.6,0,0,0-.93-.14,4.78,4.78,0,0,1,.5-.5,2.38,2.38,0,0,0,.54-.76,2.05,2.05,0,0,0-3.13-2.45c-1,.7-1.23,1.94-2,2.83-.4.49-1.09.67-1.29,1.31a8.62,8.62,0,0,0-.2,2.36l-1.71-.19a.39.39,0,0,0-.38.38l-.62-.07a.39.39,0,0,0-.33.58l1,1.48.24.37a1.29,1.29,0,0,0-.49-.17,2.08,2.08,0,0,0-1.36.48c-.33.22-1.51,1-1.65.19a.39.39,0,0,0-.7-.09c-.73,1.61-3.15.5-4.43.54a.39.39,0,0,0-.19.72l.32.22a3.74,3.74,0,0,1-1.76.61,9.61,9.61,0,0,0-2.22.59,7,7,0,0,0-2,1.27c-.58.53-1.13,1.41-2,1.48a.39.39,0,0,0-.19.72c.34.21-.77.68-.83.7a2.46,2.46,0,0,0-.71.38,1,1,0,0,0-.18,1.43c.19.25.48.39.67.62s.17.86.25,1.3.3.91.39,1.38a1.37,1.37,0,0,1-.06.86.53.53,0,0,1-.51.28,1.13,1.13,0,0,0-.57-1.64.39.39,0,0,0-.43.18c-.53,1.14-2.35.48-3.32.68a2.38,2.38,0,0,0-1.31.88c-.38.4-.64.25-1.1.21a1.75,1.75,0,0,0-.79.12,1.86,1.86,0,0,0-1.09,2.37,1.93,1.93,0,0,0,1.7,1.13,2.54,2.54,0,0,0,.5,1.85c.59.85,1.55,1.3,2.19,2.09.8,1,.51,2.55.43,3.73-.07.93,0,3.2-1.24,3.43a2.46,2.46,0,0,0-.41-.83c-.46-.71-.09-1.28,0-2a1.72,1.72,0,0,0-.55-1.59l1.12-1.33a.39.39,0,0,0-.08-.6l-5.8-2.9a.39.39,0,0,0-.57.23,2,2,0,0,1-.13.43,1.06,1.06,0,0,0-1.19.19.39.39,0,0,0-.06.47,5,5,0,0,1,.4.76c-.07.13-.43,0-.53,0-.38-.15-.66-.46-1.09-.52A1,1,0,0,0,127.95,75c0,.79.7,1.19,1.28,1.58a4.51,4.51,0,0,1,1.38,1.47c-.37-.22-.72-.46-1.07-.71-.65-.48-1.76-1.19-1.94-2a7.59,7.59,0,0,1,0-1.2,4.54,4.54,0,0,0-.22-1.07,6.21,6.21,0,0,1-.32-1.26c0-.25.08-.5.13-.75a.93.93,0,0,1,.26-.3.41.41,0,0,0-.14-.73.37.37,0,0,0-.59-.08,2.85,2.85,0,0,0-.71,2,4.66,4.66,0,0,0,.18.9V73c0,.41,0,.82,0,1.22a1,1,0,0,1-.35.31c-.55.32-1.16.47-1.37,1.15a1.54,1.54,0,0,0,.46,1.63l0,0a.39.39,0,0,0,.44.24c.55-.1,0,1.19,0,1.36a2.7,2.7,0,0,0,0,1.08c.14.83.58,1.62.29,2.47-.23.69-.71,1.35-.45,2.11a1.77,1.77,0,0,0,1.26,1c.76.23,1.55.26,2.3.54s2,.88,2.24,1.72c.11.42-.15.86-.17,1.29a2.54,2.54,0,0,0,.16,1A5.17,5.17,0,0,0,132,91.9a2.45,2.45,0,0,1-1.72.38,1.57,1.57,0,0,0,.12-.92,1.53,1.53,0,0,0-.25-.63c-.23-.32-.78-.45-.94-.8s0-.68.05-1a1.53,1.53,0,0,0-1.22-1.7,1.64,1.64,0,0,0-1.3.18c-.61.4-.34,1.15-.36,1.78a4.24,4.24,0,0,1-.64,2.38c-.43.61-1.07,1-1.46,1.68s-.35,1.42-.7,2.07a2.12,2.12,0,0,1-1.53,1,2.18,2.18,0,0,1-1,0c-.1,0-.71-.24-.71-.39s.57-.33.72-.43a1.5,1.5,0,0,0,.48-.63c.25-.58.27-1.19.77-1.64A7.43,7.43,0,0,0,123.82,92a2.41,2.41,0,0,0,.24-1.7.74.74,0,0,1,.46-.81,1.08,1.08,0,0,0,.59-.65c.17-.69-.55-1.06-.81-1.6a3.71,3.71,0,0,1-.16-1.43l-.08-1.71c-.09-2-.47-4.22.27-6.11.1-.26-.15-.46-.37-.49l-.88-.1H123a2.06,2.06,0,0,0-1-1,21.67,21.67,0,0,0,1.48-2.31,5.41,5.41,0,0,0,1-2.65,1.51,1.51,0,0,0-1.19-1.28,3.84,3.84,0,0,0-1-.14,6.36,6.36,0,0,1-1.3,0c-.53-.13-.81-1.15-1.49-.75a.86.86,0,0,0-.36.74,15.51,15.51,0,0,1-.2,1.59,12.58,12.58,0,0,1-2.6,5.42c-.68.86-.26,1.81-.24,2.82a9.87,9.87,0,0,1-.7,3.78.38.38,0,0,0,.1.37,10.5,10.5,0,0,0,2.91,2.4l-1,1.84-.08,0c-.21-.13-.42-.26-.63-.4a9.23,9.23,0,0,1-1.24-1c-.59-.59-1.09-1.55-2-1.72-.5-.1-.9.1-1.13-.47a9.51,9.51,0,0,0-.33-.91,1.6,1.6,0,0,0-1.71-.76,3.79,3.79,0,0,1-2.8-.93c-.48-.43-1-1-1.72-.65a.86.86,0,0,0-.22,1.43c.65.78,1.42,1.49,2.14,2.22a3,3,0,0,0-1.11,2.13c0,.29,0,.84-.22,1-.46.38-.48-.17-.54-.42a1.25,1.25,0,0,0-.57-.92.39.39,0,0,0-.57.23c-.21.65-1.38.22-1.83.2a1.79,1.79,0,0,0-.83.12c-.26.11-.38.34-.6.48s-.54,0-.85-.08a1.31,1.31,0,0,0-.67.13c-.33.14-1,.9-1.49,1a4.14,4.14,0,0,0,.65-2.59A.39.39,0,0,0,98.5,86,9.08,9.08,0,0,0,95,89.11a4.21,4.21,0,0,0-1.91.84,9.92,9.92,0,0,1-1,.66,5.3,5.3,0,0,1-1.4.37c-1,.21-1.06.9-1.26,1.73-.08.34-.26.63-.69.37a3.51,3.51,0,0,1-.55-.55c-.16-.17-.48-.37-.47-.6s.24-.31.37-.46a2,2,0,0,0,.25-2.13.9.9,0,0,0-.71-.55c-.21,0-.42,0-.63,0a1.24,1.24,0,0,1-.91-.52c-.39-.44-1.15-.9-1.62-.27a1.13,1.13,0,0,0-.08.94,14.24,14.24,0,0,1,.23,2c0,.69,0,1.36-.05,2a1,1,0,0,0,.58,1c.51.32.2,1.09,0,1.56a5.49,5.49,0,0,1-.58,1.14,1.27,1.27,0,0,0-.45-.15,1.76,1.76,0,0,0-.68,0,1.13,1.13,0,0,0-1.44-1c-.57.14-.72.62-1,1.05a3.72,3.72,0,0,1-1.85,1.11.4.4,0,0,0-.28.37,3.56,3.56,0,0,0,.75,2.09c-.41.44-1,1-1,1.51a.21.21,0,0,0,0,0,6.29,6.29,0,0,0-.86-.07,1.63,1.63,0,0,1-1.11-.27c-.34-.31-.5-.67-.9-.95s-1.31-.7-1.75,0,.24.95.57,1.34,0,1.32.57,1.85c.18.18,1.09.56.28.65-.47.05-.83-.37-1.11-.69a2,2,0,0,0-.85-.71c-.29-.09-.78.11-1,0-.38-.21.11-.95.13-1.28a1,1,0,0,0-.3-.81l0,0a.38.38,0,0,0,0-.11,2.53,2.53,0,0,0-.44-1.34,1.19,1.19,0,0,0,.32-1,1.07,1.07,0,0,0-.46-.73c-.12-.08-.28-.08-.39-.15-.39-.23-.26-.42-.28-.77-.08-1.5-1.76-1.3-2.55-2.13.43-.16,1.29.4,1.56.54.63.32,1.27.64,1.92.93a11.15,11.15,0,0,0,3.73,1A5.61,5.61,0,0,0,81,94.31a.4.4,0,0,0-.06-.47l-.23-.25a1.18,1.18,0,0,0-.32-1.93,1.06,1.06,0,0,0-.06-.62c-.23-.58-.82-.74-1.36-.92a5.88,5.88,0,0,1-2.56-2.49A5,5,0,0,0,74,85.58c-1.34-.41-2.76.11-4.11-.17a2.08,2.08,0,0,0-.1-1.53.39.39,0,0,0-.6-.08c-.16.2-.32-.52-.34-.57a.73.73,0,0,0-.2-.27.81.81,0,0,0-.7-.15,3.05,3.05,0,0,0-.9.44,1.45,1.45,0,0,1-1.45,0,.43.43,0,0,0-.11-.13l-1.23-.95a8.2,8.2,0,0,0,1.66-.45.67.67,0,0,0,.39-1c-.3-.52-1-.52-1.44-.8-.63-.38-.78-1.16-1.39-1.56-1.07-.7-2.45,0-3.38.59-.47.32-.91.66-.81,1.28.06.4.2.61-.22.86a1.68,1.68,0,0,1-.45.17,2.3,2.3,0,0,0-.09-1.38.39.39,0,0,0-.64-.17,5.14,5.14,0,0,1-3,1.63,2.92,2.92,0,0,0-2.19,1,.39.39,0,0,0,.13.52l-.79.14a2,2,0,0,0-1.34.54c-.28.36-.29.83-.59,1.18a5.53,5.53,0,0,1-1.15.82,3.35,3.35,0,0,0-.86.75,13.88,13.88,0,0,0-.71,1.52,16.75,16.75,0,0,1-2.27,2.35,18.11,18.11,0,0,0-2.9,5.52,25.06,25.06,0,0,1-1.34,3,18.58,18.58,0,0,1-2.21,3,30.48,30.48,0,0,0-2.36,3c-.65,1-1.42,3.15-3,2.59a.39.39,0,0,0-.43.18,1.07,1.07,0,0,0-.12.91,1.93,1.93,0,0,0-1.25,1.17,1.43,1.43,0,0,0,0,.5q.06.28.12.57a1.57,1.57,0,0,1-.2.48,7,7,0,0,0-.53,1.44,5.65,5.65,0,0,0,.19,3c.29.79,1.36,2.2.62,3a.39.39,0,0,0,.27.66c.12,0,.17.32.05.36a.39.39,0,0,0,0,.74c1.28.46,2.74.86,4,0A7.46,7.46,0,0,0,37.34,119l1.11-1.3a2.75,2.75,0,0,0,.65,1.21c.3.32.72.51.93.91a10.63,10.63,0,0,1,.57,1.7l1,3.2a5.32,5.32,0,0,0,1,2.28,1.29,1.29,0,0,0,1.74,0,3.5,3.5,0,0,0,.72-.9,2.48,2.48,0,0,1,1.26-1c1.68-.81.91-2.66.53-4a1.7,1.7,0,0,1,.27-1.78c.33-.32.76-.51,1.1-.81a1.76,1.76,0,0,0,.65-1.61,1.53,1.53,0,0,0,.55-1.81,3.46,3.46,0,0,0-.88-1.18,2.74,2.74,0,0,1-.89-2.2,7.09,7.09,0,0,1,2.08-3.94c1-1.2,2.12-2.34,3.12-3.55a4.38,4.38,0,0,0,.84-1.35,7.81,7.81,0,0,0,0-2.31,1.07,1.07,0,0,1,.44-.94c.23-.13.52-.13.76-.26a1.08,1.08,0,0,0,.45-.47c0-.08.05-.17.09-.24.13-.29.18-.31.46-.36a5.39,5.39,0,0,1,1.23.14,6.34,6.34,0,0,1,1.22.15c1.11.37-.1,1.57-.39,2.11s-.34,1.22-.66,1.79A17.5,17.5,0,0,1,56,104.33a15.58,15.58,0,0,1-1.64,1.87c-.53.51-1.29.91-1.63,1.59a1.11,1.11,0,0,0,.29,1.35c.62.68.35,1.51.08,2.3a.39.39,0,0,0,.1.37l.47.53a2.48,2.48,0,0,0,.81,2.59,2.94,2.94,0,0,0,1.43,1,3,3,0,0,0,1.73-.46,3,3,0,0,1,2.29-.35,2.31,2.31,0,0,0,1.71.12c.53-.23.85-.82,1.44-.89a1.27,1.27,0,0,1,1.23.61c-.81.31-1.64.85-1.62,1.73-2.16,0-4.77-.84-6.36,1.07a.39.39,0,0,0,.17.64c.2,0,.16.35,0,.39a.39.39,0,0,0-.17.64,3.72,3.72,0,0,0,1.27.71,8.76,8.76,0,0,1-.57,2.06c-.42.83-.73-.32-1-.64-.72-.94-2.05,0-2.57.69a.39.39,0,0,0,.23.57c.18.09.2.19.07.32l0,.08a.39.39,0,0,0-.1.15c-.07.17-.38.25-.52.37a1,1,0,0,0-.32.44.66.66,0,0,0,0,.51c.13.24.25.19.21.45-.07.41-.29.6,0,1a1.34,1.34,0,0,1,.25,1.09c0,.27-.09.69-.35.77s-.48-.05-.7,0a1.66,1.66,0,0,0-.72.31c-.38.27-1,1.21-1.51.93-.37-.2-.37-.65-.91-.64s-.73.4-1.09.62a1.54,1.54,0,0,0-.77.13,4.16,4.16,0,0,1-1.56.43,1.45,1.45,0,0,0-1.12.39c-.13.15-.08.19-.28.2a.94.94,0,0,1-.44-.18,1.52,1.52,0,0,1-.67-.61c-.17-.34-.25-.66-.71-.65s-.63.57-1.05.77-1,.15-1.38.41c-.11.07-.42.45-.49.45s-.13-.74-.14-.93a.39.39,0,0,0-.49-.37l-.2.06a2.21,2.21,0,0,0-.42-.25c-.4-.2-.29-.37-.07-.69a1,1,0,0,0,.23-.76c-.08-.43-.63-.54-.17-1,.25-.25.61-.35.82-.66a1.46,1.46,0,0,0,.2-1c-.11-1.06-.29-2.12-.44-3.17a.39.39,0,0,0-.57-.23A5.69,5.69,0,0,0,35.87,124a.43.43,0,0,0,0,.17,2.07,2.07,0,0,0-.73,1.52,2,2,0,0,0,.32.82c.3.55-.08,1-.44,1.41a.39.39,0,0,0,.17.64c.59.12.47,1,.6,1.44s.59.78.42,1c-.44.7-2.26-.06-2.94,0-.88.13-1.3.8-1.9,1.37a2.67,2.67,0,0,1-1.1.5.78.78,0,0,0-.56.61,1.24,1.24,0,0,0,.1.53,1.38,1.38,0,0,1-.06,1,2.77,2.77,0,0,1-1.2,1.13c-.54.31-1.1.58-1.65.86a5.61,5.61,0,0,0-1.29.7.68.68,0,0,0-.21.74c.06.24.23.37.18.65s-.35.48-.68.53a1.18,1.18,0,0,0-1,.69c-.47-.1-1-.56-1.45-.6a1,1,0,0,0-1,.47.38.38,0,0,0,0,.39,2.38,2.38,0,0,1,.36,1.13.39.39,0,0,0,0,.1c-.69.35-1.55-.07-2.29,0a6.28,6.28,0,0,0-2.31.86c-.32.15-.19.6.09.7s.63.21.74.57c0,.14,0,.29.06.43a.75.75,0,0,0,.71.35,3,3,0,0,1,1.63.41,3.15,3.15,0,0,1,1.3,1c.27.5-.25.92,0,1.39.16.27.52.24.68.45s-.09,1.32-.14,1.65c-.08.64-.15,1.29-.28,1.92s-.54,1.54-1.33,1.2c-.36-.15-.63-.45-1-.58a1.67,1.67,0,0,0-1.09.1,1.14,1.14,0,0,1-1-.11A2.64,2.64,0,0,0,17,152a4.08,4.08,0,0,0-1.39,0,3.35,3.35,0,0,1-1.48-.11c-1-.3-1.91.55-2.73,1a.39.39,0,0,0-.08.6l.77.77a1.23,1.23,0,0,0,.11.82c-.5.69-.2,1.41-.19,2.21a6.65,6.65,0,0,1-1.19,3.3.39.39,0,0,0,.06.47c.3.3,1.06.41,1.1.88a3.93,3.93,0,0,1-.2,1l-.24,1.19a.39.39,0,0,0,.37.49,3.43,3.43,0,0,0,2.61-.93c.41.22.55.85.74,1.23a1.63,1.63,0,0,0,1.08,1,.4.4,0,0,0,.47-.27c.28-.69,1.35-.37,1.88-.33a3.13,3.13,0,0,0,1.44-.23,3.24,3.24,0,0,0,1.68-1.6,8.26,8.26,0,0,0,1.64-.11.39.39,0,0,0,.17-.64c-.31-.33.88-1.22,1-1.51a.39.39,0,0,0-.14-.53c-.85-.39.21-1.39.51-1.78a2.57,2.57,0,0,0,.42-.72c.1-.29.05-.7.29-.93a3.9,3.9,0,0,1,.94-.49,8,8,0,0,0,1-.54A3.19,3.19,0,0,0,28.73,155a2.26,2.26,0,0,0,.22-.7c0-.33-.07-.82.29-1s1,0,1.38-.33c.15-.1.3-.4.45-.46h0a.41.41,0,0,0,.11.11,2.21,2.21,0,0,0,2.41.43c.46-.27.76-.68,1.32-.76a1.83,1.83,0,0,0,1-.31c.39-.33.42-.94,1-1a1.81,1.81,0,0,1,.6.13,3.6,3.6,0,0,1,.41.18.32.32,0,0,1,.22.42,1.69,1.69,0,0,0,.36.79c.25.26.59.42.84.68s.21.68.41,1a2.75,2.75,0,0,0,.94.81,27,27,0,0,1,2.81,2.14A14.85,14.85,0,0,1,46,159.61c.63.89-.27,1.83-.3,2.78a.39.39,0,0,0,.66.27c.48-.45,1-.89,1.45-1.34.29-.28.68-.62.65-1.07s-.64-.66-.52-1.16a1.64,1.64,0,0,1,.22-.41q.08-.33.34-.19a2.91,2.91,0,0,1,.78.39.39.39,0,0,0,.47-.6A5.65,5.65,0,0,0,48.35,157a5.35,5.35,0,0,0-.82-.44c-.19-.08-1.12-.41-.74-.74a.39.39,0,0,0-.17-.64,7.64,7.64,0,0,1-2.3-1,2.75,2.75,0,0,1-1.12-1.92,1.5,1.5,0,0,0-1-1.2c-.93-.47-.72-1.41-.46-2.25h0l1.11-.57a1.64,1.64,0,0,1,0,.79.39.39,0,0,0,.27.47,2.55,2.55,0,0,0,1,.08,1.16,1.16,0,0,0,.53,1.17,1.44,1.44,0,0,0,.35.11,1,1,0,0,1,.58.32,3.57,3.57,0,0,0,.76.64,16,16,0,0,1,2.23,1.5,14.34,14.34,0,0,0,1.86,1.71,1.65,1.65,0,0,0,.89.24c.11,0,.45-.09.47.11s-.33.38-.39.49c-.21.34-.13.52-.13.89s-.28.57-.28.91c0,.6.63.73.83,1.2.13.31-.16.66-.09,1a1.29,1.29,0,0,0,.53.72,4,4,0,0,1,1.05,1,.89.89,0,0,1,.18.78c0,.13-.14.24-.13.4,0,.39.4.61.67.82l1.44,1.1a.39.39,0,0,0,.53-.14,2.51,2.51,0,0,0,.32-1.63,1.49,1.49,0,0,0,1.22-.76,1.86,1.86,0,0,0-.52-2c-.29-.34-.82-.72-.88-1.2-.08-.68.51-.66,1-.8a1.27,1.27,0,0,0,1-.94c.47.06.93.52,1.46.32a.86.86,0,0,0,.39-.28,1.36,1.36,0,0,0,1.23.2,2.61,2.61,0,0,0,.68-.53,1.42,1.42,0,0,1,1.41-.21c.45.15.61-.46.3-.7l-1.09-.83a3.17,3.17,0,0,1-.58-.44s.15-.06.22-.11a2,2,0,0,0,.86-1.38,1.59,1.59,0,0,1,.68-.9,1.46,1.46,0,0,0,.53-.62,1.21,1.21,0,0,0,0-.74c-.08-.32-.39-.7-.09-1s1-.19,1.24-.67c.13-.23,0-.47.06-.66s.44-.2.56-.29c.69-.48.74-1.52,1.26-2.11a1.51,1.51,0,0,0,.95.82.33.33,0,0,0,.27.1c.79-.06,1.76.63,2.34-.26l0-.06a.92.92,0,0,0,.2.17,1.11,1.11,0,0,0,1,.09,2.2,2.2,0,0,0,.54-.32c.21-.15.21-.17.41-.15s.23.12.36.13a.9.9,0,0,0,.46-.09c.56-.24,1.07-.56,1.66-.75a8.45,8.45,0,0,1,1.49-.34l.37.34-1.71,1.73a.39.39,0,0,0,.08.6l.87.64-.17.09a.38.38,0,0,0-.19.33c-.22,2.15,1.76,3.26,3.5,3.93a2.82,2.82,0,0,0,.92,2.66,5.57,5.57,0,0,1-4.13.81,7,7,0,0,0-3.1-.37,1.87,1.87,0,0,0-.3-1.17,1,1,0,0,0-.63-.4c-.42-.07-.55.21-.92.35-.75.27-1.62,0-2.41.14a1.76,1.76,0,0,0-1.26.9l-2.89.3c-.48,0-.5.79,0,.77h0a6.42,6.42,0,0,1-.82.74,2.92,2.92,0,0,1-1.75.16,2.89,2.89,0,0,0-1.5.26.39.39,0,0,0-.14.53l.18.31a1.23,1.23,0,0,0-.5,1.32,1.46,1.46,0,0,0,1.61.95,3,3,0,0,0,2.39,2.85,9.92,9.92,0,0,0,2.84.2l3.31-.07,1.6,0a2.76,2.76,0,0,1,.77,0c.37.11.25.34.09.6a3.28,3.28,0,0,0-.61,2.13c0,.78.34,1.76-.17,2.45-.25.33-.63.55-.85.91a2.83,2.83,0,0,0-.32.89,4.07,4.07,0,0,1-.24,1c-.23.43-.69.16-1.06.39a.65.65,0,0,0-.11,1,.39.39,0,0,0,.37.38,1.75,1.75,0,0,1,1.2,2.93.39.39,0,0,0,.27.66,2.27,2.27,0,0,1,1.25.43,1.26,1.26,0,0,0-.32.79,1.64,1.64,0,0,0,.87,1.49c.36.23.76.37,1.12.59a3.43,3.43,0,0,1,1,1.06c.52.79.93,1.67,1.39,2.5q1.5,2.68,3.21,5.24.89,1.33,1.83,2.62l.85,1.14c.35.46.73.85.63,1.48a4.41,4.41,0,0,0,.17,2.39c.29.8.83,1.76.39,2.59a.39.39,0,0,0,.33.58,20,20,0,0,0,3.23-.44,21.75,21.75,0,0,0,2.93-.71,8.32,8.32,0,0,0,2.35-1.22,7.15,7.15,0,0,1,2.61-1.61A7.61,7.61,0,0,0,98,196.1a15.11,15.11,0,0,0,2.16-2,23.67,23.67,0,0,0,4.09-4.52.83.83,0,0,0,.65-.34c.13-.16.5-1.45.62-1.41a.35.35,0,0,0,.46-.28.33.33,0,0,0,.29-.12,1.85,1.85,0,0,0,.49-1,.39.39,0,0,0-.27-.47c-.85-.17-1.11-.69-1.46-1.39a1.12,1.12,0,0,0-1-.68,7,7,0,0,0-1.37.3c-.83.13-.68-.8-.9-1.33a1,1,0,0,0-1.92-.17c-.05.09-.1.27-.19.32s-.41,0-.57,0a2,2,0,0,0-.74.2c-.34.16-1.62,1.09-1.81.31a.39.39,0,0,0-.7-.09c-.27.44-1,1.44-1.54.82a2.84,2.84,0,0,1-.37-.88l-.36-1c-.43-1.14-.79-2.34-1.31-3.44a2.31,2.31,0,0,0-.81-1c-.42-.27-1-.34-1.37-.71a1.16,1.16,0,0,1,.27-1.63,1.44,1.44,0,0,0,1,.87c.51.13,1-.13,1.53-.06.68.09.73.85,1,1.36.93,1.82,3.34,1.41,5,1.74a29.25,29.25,0,0,1,3.91,1.26c1.28.45,2.52,1.08,3.83,1.45,2.17.61,4.66,0,6.7,1.05.93.48,1.64,1.66,2.79,1.64.33,0,.66-.23.94.06a4.59,4.59,0,0,1,.53,1l1.11,2.13a.39.39,0,0,0,.6.08,3.39,3.39,0,0,1,.84-.64l.55,1a.39.39,0,0,0,.6.08c.58-.57,1.8-1.62,2.43-.52a6.1,6.1,0,0,1,.3,2.53,24.62,24.62,0,0,0,1.08,5.47c1.14,3.73,2.86,7.26,4,11a.39.39,0,0,0,.76-.1c.09-.67.94-.82,1.46-1a3,3,0,0,0,1.15-.58,3.66,3.66,0,0,0,1-2.13,56.42,56.42,0,0,0,.79-6.91,1.47,1.47,0,0,0,2-.94c1.36-.24,2.19-1.44,3.38-2.08a11.76,11.76,0,0,0,2.12-.91,3.89,3.89,0,0,0,1-1.47,17.77,17.77,0,0,1,.78-1.76,2.06,2.06,0,0,1,2.07-1,4.75,4.75,0,0,0,3.78-1.4,1.52,1.52,0,0,1,.18,1.28.39.39,0,0,0,.27.47,2.53,2.53,0,0,1,1.61,1.33c.49.71,1,1.44,1.44,2.15.77,1.16,1.8,2.89.61,4.13a.39.39,0,0,0,.27.66,5.85,5.85,0,0,0,3.28-1,4.74,4.74,0,0,0,.83,2,4.6,4.6,0,0,0,.94,1c.47.36,1,.54,1.16,1.18a9.2,9.2,0,0,1,0,1.84c0,.68,0,1.36,0,2s-.12,2.1-1.1,2.29a.39.39,0,0,0-.09.7,6.69,6.69,0,0,1,1.89,2.27,18.56,18.56,0,0,1,1.62,2.78c.35.78.48,1.56,1.39,1.84a2,2,0,0,1,1.15.85,3.49,3.49,0,0,0,.74.81c.46.33,1.3.57,1.74,0a3.5,3.5,0,0,0,.18-2.57c-.44-1.88-2-3.33-3.25-4.72a14.71,14.71,0,0,1-1.27-1.44,2.1,2.1,0,0,1,.07-1.8,6.93,6.93,0,0,1,1.55-2.59,1.12,1.12,0,0,0,.91.29,13.55,13.55,0,0,0,2.67,3.07l.09.07a.35.35,0,0,0,.35.24c.7,0,1.08-.51,1.41-1.07a3.81,3.81,0,0,1,1.49-1.5c1.18-.67,2.55-1.25,2.75-2.77a5.22,5.22,0,0,0-.43-2.62c-.32-.7-1-.8-1.53-1.25s-.4-.84-.6-1.31a2.09,2.09,0,0,0-.56-.76,2.2,2.2,0,0,0-1.33-.54,2,2,0,0,0-.18-1c-.26-.62-1.23-1.55-.88-2.27.26-.53,1.19-.69,1.63-1.06a2.83,2.83,0,0,0,.8-1.12,3.21,3.21,0,0,0,2.7-.6,3.45,3.45,0,0,0,1,2,.39.39,0,0,0,.66-.27,2.15,2.15,0,0,1,2.06-2,3.51,3.51,0,0,0,2.09-.5,5.46,5.46,0,0,0,.67-.94c.43-.54,1.13-.3,1.7-.23a2.57,2.57,0,0,0,2-.47,10.29,10.29,0,0,0,1.48-1.66,3.86,3.86,0,0,1,1-.88c.46-.27,1-.43,1.4-.74a1.92,1.92,0,0,0,.92-1.87c0-.21-.2-.38-.26-.58s.09-.42.29-.61a3.38,3.38,0,0,1,.5-.41.36.36,0,0,0,.44-.06l.38-.37.18-.07a.39.39,0,0,0,.26-.4,3.69,3.69,0,0,0,.92-1.54.87.87,0,0,0-.25-.88,2.25,2.25,0,0,0-.78-.17,1,1,0,0,0,0-.26c0-.51-.3-.71-.61-.94a1.52,1.52,0,0,0,1.23-1,1.16,1.16,0,0,0-.78-1.45,3.82,3.82,0,0,1-.47-.2c-.35-.22-.2-.49-.14-.85a3.54,3.54,0,0,0,.06-1.16,3,3,0,0,0-.44-1.17c-.25-.37-.69-.6-.9-1-.94-1.63,4.06-2,3.62-3.8-.09-.36-.41-.54-.7-.72a9.18,9.18,0,0,0-1.24-.74,1.1,1.1,0,0,0-.87-.06,1.82,1.82,0,0,0-.5.62.74.74,0,0,0-.65-.12c-.27.08-.39.31-.59.49a1.13,1.13,0,0,1-1.17.16,3,3,0,0,0-1-1.81,3.47,3.47,0,0,0,.47,0,1.82,1.82,0,0,0,.66-.27,5.41,5.41,0,0,0,1.17-1.26,3.79,3.79,0,0,1,.55-.6,1.26,1.26,0,0,1,1-.23,2,2,0,0,0,.68-.08l-.28,1.18a.39.39,0,0,0,.47.47c.87-.19,1.13-1,1.84-1.45s1.59,0,2.16-.56a2.63,2.63,0,0,1,.67,1c.21.6,0,1.19.15,1.77a1.23,1.23,0,0,0,1.6.73,7.33,7.33,0,0,1,0,4.89.39.39,0,0,0,.37.49l.46,0a1.32,1.32,0,0,0,2,.75c.28-.22.36-.52.69-.67s.62-.07.9-.27a1.8,1.8,0,0,0,.6-1.29,1.5,1.5,0,0,1,.43-1c.18-.18.37-.31.43-.58.11-.49-.27-.83-.66-1a9.52,9.52,0,0,1-1-.58l-.24-.23-.33-.27-.19-.24a1,1,0,0,1,0-1.2,1.12,1.12,0,0,0,.1-.66c.32-.21.65-.41.94-.64a4,4,0,0,0,1.28-2,12.48,12.48,0,0,1,1.35-2.85,3.66,3.66,0,0,0,3.91-1.36c.63-.73,1.1-1.57,1.71-2.31a8.29,8.29,0,0,1,2.33-1.77,6.49,6.49,0,0,0,3-3.76c.29-.82.51-1.67.86-2.48a9.46,9.46,0,0,1,1.41-2c.74-.95.26-1.9.17-3a7.07,7.07,0,0,1,.64-3.6.4.4,0,0,0-.14-.53c-.91-.64-.84-2-1.28-2.94a2.08,2.08,0,0,0-2-1.39.39.39,0,0,0-.37.49.86.86,0,0,1,0,.35,2.61,2.61,0,0,0-.6-.53.39.39,0,0,0-.46.06l-.92.95-.64-1.23a.39.39,0,0,0-.61-.08,1.31,1.31,0,0,1-.89.36,1.54,1.54,0,0,0,.11-.7c0-.82-.71-1.51,0-2.25a6,6,0,0,1,1.75-1.08,19.45,19.45,0,0,0,2-1.19,20.31,20.31,0,0,0,6-6.42.37.37,0,0,0,.5-.14c.62-1,2.38.14,3.2.23a1.86,1.86,0,0,0,1.34-.3c.44-.32.65-.9,1.25-1,.88-.1,1.77.47,2.62.6a2.21,2.21,0,0,0,1-.06,1.68,1.68,0,0,0,.47-.26c.21-.16.43-.54.67-.63.53-.2,1.31.62,1.75.85a4.67,4.67,0,0,0,1.54.51,2.51,2.51,0,0,0,2.58-1.17,8.66,8.66,0,0,0,.63-1.54,7.39,7.39,0,0,1,.87-1.66,7.62,7.62,0,0,1,2.65-2.35,5.8,5.8,0,0,1,1-.45.84.84,0,0,1,1,.3,1.55,1.55,0,0,0,1.38.58,2.91,2.91,0,0,0,1.44-.81c.36-.32,1-1,1.59-.9a1.69,1.69,0,0,0,0,1.84c-2.34,3.1-4.77,6.27-8.07,8.4-.74.48-1.35.84-1.54,1.75a2.63,2.63,0,0,1-.48,1.28c-.27.32-.6.59-.86.92a2.07,2.07,0,0,0-.37,2c.29,1,.71,2,1,3a40.83,40.83,0,0,1,1.46,7,2.21,2.21,0,0,0,.06.48c.1.41.8.34.76-.1,0-.14,0-.28,0-.42,0-1.19,1.59-2.18,2.17-3.09a3.11,3.11,0,0,0,.38-.82c.15-.51.08-1.06.63-1.31s1.38-.2,2-.67a3.26,3.26,0,0,0,.92-1.8,3.76,3.76,0,0,1,.42-1.12,4.69,4.69,0,0,1,1.11-.93,1.7,1.7,0,0,0,.75-1.8c-.12-.35-.39-.51-.63-.76-.4-.42-.07-.71.18-1.08a1.36,1.36,0,0,0,.09-1.76,1.89,1.89,0,0,0-1.31-.51l1.38-2.09c.58-.88,1.06-2,2.15-2.28S252,116,252.43,115c2.23,1.73,5.58-.7,7.51-1.92,1.51-1,3-2,4.45-3,1.29-.87,3.11-1.95,4.62-.95a.39.39,0,0,0,.58-.33l-.13-2.36a9,9,0,0,0-.18-1.83,1.84,1.84,0,0,0-1-1.33,1.42,1.42,0,0,0-.39-1.11,2,2,0,0,0-1.67-.54,1.37,1.37,0,0,1,.69-.49,1.51,1.51,0,0,1,1.49.44,3.28,3.28,0,0,0,2.19.71c1.48,0,3.64-1.17,4.92,0a.39.39,0,0,0,.66-.27c0-1.12,1.9-.76,2.56-.73a2.08,2.08,0,0,0,2.07-.92A2.15,2.15,0,0,0,280.19,97.95ZM99.35,156.46a1.73,1.73,0,0,1-1,.27,1.22,1.22,0,0,1,.15.38c.14.66-.23.94-.69,1.28-.3.22-.38.31-.2.69.09.19.19.38.29.57.2.39.42.77.59,1.18a3.68,3.68,0,0,1,.33,2,2.29,2.29,0,0,1-.95,1.59,3.4,3.4,0,0,1-2.29.19c-.81-.07-1.72.23-2.46-.2a1.39,1.39,0,0,1-.72-1,5.82,5.82,0,0,1-.79-.11.39.39,0,0,1-.23-.56.91.91,0,0,0-.71-1.22c-.33,0-.58-.54-.19-.72,2.07-.92.91-3.59.27-5.05a9.68,9.68,0,0,0-3.08-4.39.39.39,0,0,1-.08-.6l.25-.24-.29-.4a.39.39,0,0,1,.14-.53l1-.51-.46-.37c-.25-.2-.06-.54.17-.64l5.24-2.21.26-1.26a.38.38,0,0,1,.27-.27,2.24,2.24,0,0,1,2.43,1l.3-.28a.39.39,0,0,1,.66.27c0,1,.8,2.18.08,3.13a1.2,1.2,0,0,1-1.21.46l-.15.5a.39.39,0,0,1-.47.27c-.45-.07-.58-.15-.94.12a1.34,1.34,0,0,0-.6.76c-.13.74.69.6,1.09.93a.89.89,0,0,1,.17,1.09c-.15.42-.16.62.19.93a2.7,2.7,0,0,0,.77.44c.74.3,1.52.5,2.27.79a1.48,1.48,0,0,1,.95.73A.88.88,0,0,1,99.35,156.46Z"/><path class="cls-1" d="M94.85,202.49c-.21-.65-.55-.71-1.16-.55-1.81.46-3.61,1-5.42,1.45a10.81,10.81,0,0,1-2.49.43,1.73,1.73,0,0,1-1.15-.25c-.26-.21-.39-.54-.7-.71s-.76,0-.83-.59a3.83,3.83,0,0,0-.11-1,3,3,0,0,0-1.42-1.43,9.69,9.69,0,0,1-2.26-1.64c-.61-.62-1.19-1.28-1.77-1.93-.27-1.08-.33-2.16-.52-3.25a2.28,2.28,0,0,0-.49-1.16,3.75,3.75,0,0,0-.5-.4,1,1,0,0,1-.45-.91c-.08-1-.79-1.59-1.53-2.24a1.61,1.61,0,0,1-.74-1.64,3.1,3.1,0,0,0,.15-1.37,8.41,8.41,0,0,0-1.64-2.67,20,20,0,0,1-1.66-3.17c-.25-.59-.49-1.19-.73-1.78-.11-.27-.2-.57-.31-.87l.09,0a.89.89,0,0,0,.5-.71c.11-.94-.83-1.64-1.33-2.29-.24-.3-.12-.75-.4-1a1.09,1.09,0,0,0-.95-.25,2.58,2.58,0,0,0-1.2.41,6.68,6.68,0,0,1-1.08.77c-.46-.24-.8-.69-1.25-1a2.86,2.86,0,0,0-1.49-.34c-1.16,0-2.34.6-3.5.36s-1.79-1.66-3-2a1.74,1.74,0,0,0-1.34.1,2.15,2.15,0,0,0-.55.52,1.75,1.75,0,0,1-.21.24c-.3.23-.37.08-.62,0a1.06,1.06,0,0,0-1.65,1,1.83,1.83,0,0,0,.15.67c.08.2.46.76.39.94-.16.44-.69,0-.93-.1a3.82,3.82,0,0,0-1-.36,9,9,0,0,0-1.68,0c-.83,0-1-.48-1.51-1-.76-.94-2-.47-2.93-1s-1.8-1.55-2.82-2.15a4.24,4.24,0,0,0-.66-.32,7.66,7.66,0,0,1-1.07-.26c-.53-.32,0-.44.26-.6a1.24,1.24,0,0,0,.52-.5.39.39,0,0,0-.14-.53.59.59,0,0,1-.23-.78c.12-.21.41-.33.58-.5a1,1,0,0,0,.33-.86.71.71,0,0,0-.43-.57c-.07,0-.33,0-.39-.08s-.1-.36-.16-.51a1.76,1.76,0,0,0-1.69-1,6.42,6.42,0,0,0-1.5.3,12.27,12.27,0,0,1-1.92.31,50.72,50.72,0,0,0-6.68.64,10.73,10.73,0,0,0-2.89.82,5.77,5.77,0,0,0-1,.9,3,3,0,0,1-1.77.79.39.39,0,0,0-.32.23,5.38,5.38,0,0,1-4.88-.74c-.25-.18-.56.07-.58.33-.13,2-2.21,2.56-3.55,3.59-.68.52-1.33,1.09-2,1.67-.43.39-.9.86-.67,1.49.1.27.42.48.36.78s-.28.42-.42.57A2.48,2.48,0,0,0,9.23,176a2.42,2.42,0,0,0,.09.78c.1.56-.52.68-.94.89a7.28,7.28,0,0,0-2.08,1.17c-.45.48-.41,1.23-.8,1.77a22.83,22.83,0,0,1-1.61,1.67,20.78,20.78,0,0,0-2,3.65c-.56,1-2.23,2-1.62,3.27a1.09,1.09,0,0,0,.42.47c.28.17.63.12.87.33.56.49-.05,1.67.17,2.35a2.53,2.53,0,0,0,.52.82,1.26,1.26,0,0,1,.22,1.55,7.24,7.24,0,0,1-1.58,2A2.36,2.36,0,0,0,0,198.54a1.34,1.34,0,0,0,.55,1,.4.4,0,0,0,.11.54,4.74,4.74,0,0,1,1.68,2.15,1.71,1.71,0,0,0,.45.71c.33.27,1,.16,1.17.53s.13.67.26,1a4.5,4.5,0,0,0,.66,1c.66.82,1.38,1.59,2.07,2.38a16.93,16.93,0,0,0,3.85,3.78,5.35,5.35,0,0,0,4.91.23,5.24,5.24,0,0,1,.63-.31c.33-.1.48,0,.73.2a1.9,1.9,0,0,0,1,.39,20.35,20.35,0,0,0,2.63-.43,9.69,9.69,0,0,0,2.58-.4c.84-.27,1.64-.64,2.46-1a7.09,7.09,0,0,1,2.56-.58,3,3,0,0,1,1.2.22,1.58,1.58,0,0,1,.84,1.07c.54,1.4,2.17,1.29,3.37.94a5.48,5.48,0,0,1,1.46-.3,1.58,1.58,0,0,1,1.42.9,2.52,2.52,0,0,1,.58,1.54c-.06.45-.5.66-.7,1a.91.91,0,0,0,0,.87,1.14,1.14,0,0,1,.2.76,2.91,2.91,0,0,1-.31.8,2.35,2.35,0,0,0-.27,1.61.37.37,0,0,0,.06.18l0,0a1.68,1.68,0,0,0,.2.32l.06.06c1.2,1.73,2.73,3.21,3.85,5A8.13,8.13,0,0,1,41.48,228a6.23,6.23,0,0,0,.26,1.38c.18.45.51.6.78.95s0,1.12,0,1.58a8.28,8.28,0,0,0,.42,1.57,3.83,3.83,0,0,1-.53,3.36,31.38,31.38,0,0,1-2.33,2.76,1.61,1.61,0,0,0-.19,2.21c.7.95,1.6,1.62,1.64,2.88a8.31,8.31,0,0,0,1.2,3.33.36.36,0,0,0,0,.34l.8,1.46c.3.54,1,1.37.8,2-.1.39-.38.67-.39,1.1a2.2,2.2,0,0,0,.4,1.14,3.51,3.51,0,0,1,.59,1.38c.07.48,0,1,.11,1.45A3.37,3.37,0,0,0,46.53,259a7.33,7.33,0,0,1,1.67,2.65l.76,1.62a2.87,2.87,0,0,1,.45,2,3.32,3.32,0,0,0-.35,1.1,1.74,1.74,0,0,0,.48,1,6.12,6.12,0,0,0,2.14,1.81,2.82,2.82,0,0,0,2.32-.08c.44-.19.85-.44,1.3-.62a4.91,4.91,0,0,1,1.8-.28,7.56,7.56,0,0,0,3-.55,10.1,10.1,0,0,0,2.52-1.66c.86-.74,1.63-1.57,2.45-2.36s1.54-1.39,2.23-2.17c1.23-1.37,2.22-3.26,1.67-5.14-.08-.29-.29-.56-.16-.84s.42-.27.66-.39a3.9,3.9,0,0,0,1.89-1.94,2.87,2.87,0,0,1,1-1.38,2.09,2.09,0,0,0,.78-2.4,15.56,15.56,0,0,1-.43-1.86,6.81,6.81,0,0,1,.11-2.08.39.39,0,0,0,.18-.1,13.64,13.64,0,0,1,2.72-2A24,24,0,0,0,78.05,242a4.63,4.63,0,0,0,1.62-2,11.68,11.68,0,0,1,1.2-2.7,2.51,2.51,0,0,0,.25-2.53,11.41,11.41,0,0,0-1.29-2.68,7.14,7.14,0,0,1-1-3.08,19.76,19.76,0,0,1-.21-3.29,2,2,0,0,1,.65-1.51,2.61,2.61,0,0,0,.89-1c.33-.8-.06-3.16,1.29-3a.3.3,0,0,0,.32-.15.42.42,0,0,0,.13-.13c.7-1.09,1.89-1.69,2.81-2.57a4.2,4.2,0,0,0,.94-1.26c.31-.67.27-1.57.83-2.11a5.39,5.39,0,0,1,1.88-.85,6.48,6.48,0,0,0,1.72-1.05,10.06,10.06,0,0,0,4-5.42,14.16,14.16,0,0,0,.78-2.31A3.79,3.79,0,0,0,94.85,202.49Z"/><path class="cls-1" d="M37.45,153.84c0-.29-.26-.6-.55-.38l-.68.5c-.18.13-.47.28-.56.5a.57.57,0,0,0,.11.55,1.34,1.34,0,0,1,.28.73.39.39,0,0,0,.49.37,1.17,1.17,0,0,0,.78-.75,6.83,6.83,0,0,0,.14-1.38A.43.43,0,0,0,37.45,153.84Z"/><path class="cls-1" d="M37.86,157.45a1.09,1.09,0,0,0-.58-1c-.22-.09-.9,0-.9.29h0a.32.32,0,0,0-.4-.06.39.39,0,0,0-.35.28,1.72,1.72,0,0,0,.18,1.26,1.46,1.46,0,0,1,.23,1.08,4,4,0,0,0-.29.78c-.06.89,1.06,1,1.59.52C38.08,159.89,38,158.4,37.86,157.45Z"/><path class="cls-1" d="M45.33,163.43a1.06,1.06,0,0,1-.46-1.16.4.4,0,0,0-.26-.47.4.4,0,0,0-.29-.18,8.19,8.19,0,0,0-3.31.24.36.36,0,0,0-.26.43l0,.08c-.16.4.17.66.53.75s.68.05,1,.16.6.29.91.41a6.86,6.86,0,0,0,2,.47C45.55,164.19,45.62,163.62,45.33,163.43Z"/><path class="cls-1" d="M29.3,158.77l-.61-.18a.34.34,0,0,0-.41.15.4.4,0,0,0-.19.09,3,3,0,0,0-.49.54.39.39,0,0,0,.33.58.32.32,0,0,1,.35.15.39.39,0,0,0,.6.08,2.18,2.18,0,0,0,.68-.94A.39.39,0,0,0,29.3,158.77Z"/><path class="cls-1" d="M30.46,158.37a.39.39,0,0,0-.39.38v.06a.39.39,0,0,0,.77,0v-.06A.39.39,0,0,0,30.46,158.37Z"/><path class="cls-1" d="M26.79,160.56a.39.39,0,0,0-.53-.14.43.43,0,0,0-.14.15l0,0,0,0s-.07.05,0,0h0l0,0,0,0-.1.06a.39.39,0,0,0-.14.53.63.63,0,0,0,.88.19A.69.69,0,0,0,26.79,160.56Z"/><path class="cls-1" d="M168.93,223.42c0-.5.31-.94.25-1.42s-.42-.67-.69-.94l-1.27-1.24-2.45-2.39c-1.63-1.6-3.24-3.23-4.91-4.79-1.34-1.25-2.89-2.59-4.84-2.55a.39.39,0,0,0-.12.75,4.41,4.41,0,0,0,1.78,2.7,10,10,0,0,1,1.44,1.42,2.64,2.64,0,0,1,.42.78c.12.38.06.78.16,1.17.2.76,1.07,1.1,1.59,1.62.14.14.27.28.4.43,0,.1-.08.2-.11.32-.15.52.14.88.4,1.31.69,1.11,1.8,2.4,1.77,3.77a.36.36,0,0,0,0,.13c-.1.12-.2.24-.31.36a.39.39,0,0,0,.17.64,1.48,1.48,0,0,1,1.09.95,1.31,1.31,0,0,0,.62.75,1.51,1.51,0,0,0,1.14.08,1.54,1.54,0,0,0,.95-.16c.3-.14,1.2-.89,1.51-.48a.39.39,0,0,0,.53.14,2,2,0,0,0,.73-1.85C169.15,224.4,169,223.92,168.93,223.42Z"/><path class="cls-1" d="M173.49,218.24c.44.15.78.32.63.81a1,1,0,0,0-.1.64.83.83,0,0,0,.68.62l.37,1.58a1.43,1.43,0,0,0,.21.63,2,2,0,0,0,.76.36,5.16,5.16,0,0,0,1.59.28c.5,0,1.52-.35,1.93-.09s.46.63.78.85a1.06,1.06,0,0,0,1.11.07,1.85,1.85,0,0,0,.8-.95,2,2,0,0,1,1-1.23c.87-.41,1.51-.75,1.61-1.8,0-.56-.06-1.12.37-1.56s.67-.5.94-.82c.58-.7.2-1.34-.26-2-.7-1,.44-1.77.45-2.79,0-.42-.14-.73.28-1a4.26,4.26,0,0,0,.51-.24.81.81,0,0,0,.26-1c-.19-.44-.66-.62-1.05-.84a3.84,3.84,0,0,1-1.49-1.51.39.39,0,0,0-.66,0,32.17,32.17,0,0,1-4.48,4.85,2.4,2.4,0,0,1-1.56.76,3.05,3.05,0,0,0-1.21.17,1.18,1.18,0,0,0-.7,1.42c-.69,0-1.9-.36-2.46.14a1,1,0,0,0-.29.76c0,.21.24,1,0,1.06A.39.39,0,0,0,173.49,218.24Z"/><path class="cls-1" d="M181.16,230a.39.39,0,0,0,.08-.6,3.62,3.62,0,0,0-1.17-.92c-.58-.25-1.33,0-1.58-.66a.39.39,0,0,0-.7-.09c-.26.34-1-.11-1.38-.15s-.81.15-1-.05-.24-.38-.55-.41-.65.36-1,.46-1-.43-1.37-.68a1.83,1.83,0,0,0-1-.37,1.18,1.18,0,0,0-1.07.56.39.39,0,0,0-.14.12,1,1,0,0,0,.82,1.65,2.13,2.13,0,0,0,.53-.15,1.25,1.25,0,0,1,.78.16,7.59,7.59,0,0,0,1.74.35c.64.07,1.29.1,1.92.23a16,16,0,0,1,1.81.54A4.43,4.43,0,0,0,181.16,230Z"/><path class="cls-1" d="M205.71,220.89c-.07.59-.66,1.32-.69,1.87a1.13,1.13,0,0,0,.75,1.25.39.39,0,0,0,.43-.18c.45-.9,1.57.48,1.95.79a5.54,5.54,0,0,0,1.85.91c1.28.41,3.85,1,3.54,2.82a.39.39,0,0,0,.56.44c.82-.42,1.92.73,2.63,1a1.86,1.86,0,0,0,1.2.15c.42-.11.79-.62,1.19-.8a1.51,1.51,0,0,0,1.6.78,6.06,6.06,0,0,0,1.47-.6,2,2,0,0,1,2,.38,28.63,28.63,0,0,0,3,2.34,4.33,4.33,0,0,0,3.43.46.39.39,0,0,0,.09-.7,15.88,15.88,0,0,1-2.12-1.95,4.52,4.52,0,0,0-1-1,8.08,8.08,0,0,1,.8-.68.39.39,0,0,0,0-.66L225.6,226a1.27,1.27,0,0,0-.47-1,1.77,1.77,0,0,0-1.09-.39,1.46,1.46,0,0,0-.07-.94,2.71,2.71,0,0,0-1.82-1.31l-2.83-1v0a3,3,0,0,0-1.68-1.43,5.75,5.75,0,0,0-2.51,0h0a3,3,0,0,0-2.54.06,5.54,5.54,0,0,0-1.46,1.95,1.65,1.65,0,0,1-1,.75c-.59.16-.72-.16-.86-.66-.24-.81-.89-.84-1.61-.9-1-.08-.28-1.27-.7-1.9s-2-.13-2.63.18a.33.33,0,0,0-.2.29.35.35,0,0,0-.14.4A1.28,1.28,0,0,0,205.71,220.89Z"/><path class="cls-1" d="M232.17,252.06c-1.56-1.14-1.56-3.25-3-4.5a10.28,10.28,0,0,0-2.12-1.25,3.06,3.06,0,0,1-1.69-2.27,6.39,6.39,0,0,0-1.19-2.68,21.29,21.29,0,0,0-2.14-2.15,8.58,8.58,0,0,1-1.95-2.58A18,18,0,0,1,219,233a.39.39,0,0,0-.47-.27c-1.33.53-.91,2.27-.9,3.38a17.33,17.33,0,0,1-.86,5.44,9.06,9.06,0,0,1-6.54-2.95,2.29,2.29,0,0,0,.7-1.66,1.44,1.44,0,0,0-.39-.87l.31-.19a.39.39,0,0,0,0-.67l-2-.92a6.49,6.49,0,0,0-1.6-.62c-.73-.12-1.52.09-1.59.92a.32.32,0,0,0,.1.28l-.12.2a3.24,3.24,0,0,0-2.46.4c-.8.42-1.78.94-1.83,2,0,.6.13,1.15-.41,1.59a1.14,1.14,0,0,1-1.59-.17c-.29-.35-.27-.87-.62-1.18a1.15,1.15,0,0,0-1.07-.2c-2.13.52-3.29,3.08-4.56,4.62a17.11,17.11,0,0,1-5.51,4.5,30.06,30.06,0,0,1-8.23,2.27.39.39,0,0,0-.09.7c1.27.74.54,1.86.24,2.91a6.49,6.49,0,0,0-.08,2.83c.36,2.13,1.5,4,2.29,6a10.44,10.44,0,0,1,.81,3.12,5.3,5.3,0,0,1-.11,1.59c-.11.45-.37.87-.45,1.32a1.24,1.24,0,0,0,.66,1.27c.31.21,1.22.45,1.17.91a.39.39,0,0,0,.49.37l3.26-.87,1.56-.42a4.18,4.18,0,0,1,2,0,1.55,1.55,0,0,0,1.75-.7c.19-.3.3-.65.49-1a1.61,1.61,0,0,1,1.19-.7,10.54,10.54,0,0,0,2.54-.64,28.64,28.64,0,0,1,3-1.31,9.45,9.45,0,0,1,6-.12,6.3,6.3,0,0,1,4.07,4.16.39.39,0,0,0,.64.17c.49-.46,1.33-1.57,2-1.53.89,0,.4,1.25.16,1.73a.4.4,0,0,0,.06.47,22.14,22.14,0,0,1,2.2,2.43,5.86,5.86,0,0,1,.92,1.41,5,5,0,0,0,.54,1.16c1,1.28,2.79,1,4,1.88a.41.41,0,0,0,.47.06,5.25,5.25,0,0,0,1.31-.84c1.07,1,3.14.3,4.34,0a16,16,0,0,0,3-1.06c.79-.4.78-1.13.5-1.88-.83-2.25.78-4.07,2.08-5.75a9,9,0,0,0,1.48-2.49A7,7,0,0,0,234,261a6.39,6.39,0,0,1,.27-3.37,5,5,0,0,0,.74-2.53C234.86,253.53,233.27,252.87,232.17,252.06Z"/><path class="cls-1" d="M225.26,279.84c-.55.21-1.14.4-1.52-.2a3.34,3.34,0,0,0-.52-.79.37.37,0,0,0-.08-.16,1.14,1.14,0,0,0-1.58-.1c-.72.6-.16,1.6.11,2.28a16.67,16.67,0,0,0,1.46,3.1c.58.86,1.53.33,2.31.06a2.76,2.76,0,0,0,1.81-1.5,3,3,0,0,0,0-2.34C226.81,279.26,226,279.54,225.26,279.84Z"/><path class="cls-1" d="M269.36,273.31a3.2,3.2,0,0,0-1.21-.34,5,5,0,0,0-1.35.24c-1.06.21-1.27-1.48-2-2-.12-.1-.27-.15-.4-.25a1.5,1.5,0,0,1-.51-.74,2.54,2.54,0,0,0-.59-.85,6.18,6.18,0,0,0-2-1.14l-.11,0a.34.34,0,0,0-.25-.1.39.39,0,0,0-.38.38v.26a.39.39,0,0,0,.09.24l0,.08,1.61,2.6a4.62,4.62,0,0,1,.63,1.22,8.36,8.36,0,0,1,.06,1.31,2.44,2.44,0,0,0,.29.9c.07.14.27.38.26.54,0,.32-.31.24-.54.28-.53.09-.93.3-1,.87a.38.38,0,0,0,.28.37,1.2,1.2,0,0,1,.82.36c.17.22.19.5.37.72.47.58.87.95.65,1.77a.39.39,0,0,0,.47.47,2.64,2.64,0,0,0,1.58-1.21,2.54,2.54,0,0,0,.31-.92,4.55,4.55,0,0,1,0-.51c.13-.49.33-.5.72-.6s1.25-.45,1.25-1.12a1.67,1.67,0,0,0-.08-.36.71.71,0,0,1,.09-.61,13.45,13.45,0,0,1,.91-1.33A.39.39,0,0,0,269.36,273.31Z"/><path class="cls-1" d="M260.41,278.61a.39.39,0,0,0-.18.13h0c-1.07.92-.87,2.54-1.91,3.49-.46.42-1,.74-1.43,1.2a2.49,2.49,0,0,0-.4.58c-.19.38-.15.84-.49,1.12a5.14,5.14,0,0,1-1.11.51l-1.35.61a15.74,15.74,0,0,0-2.59,1.19.93.93,0,0,0-.34,1.22,1.48,1.48,0,0,0,1.55.62,2.73,2.73,0,0,1,1.09-.06,3.24,3.24,0,0,1,1,.72c.45.37,1,.77,1.61.51.21-.09.35-.34.55-.42s.44.18.76.17c.61,0,1-.82,1.18-1.31a2.92,2.92,0,0,0,.14-.89c0-.41-.29-1.36.37-1.43.23,0,.45.15.71.09a.76.76,0,0,0,.51-.44c.17-.39-.11-1,.11-1.36s.59,0,.82,0a1,1,0,0,0,.81-.22c.53-.48.29-1.29.2-1.89s.09-.75.44-1.14a1.9,1.9,0,0,0,.46-1A1.87,1.87,0,0,0,260.41,278.61Z"/><path class="cls-1" d="M223.68,152.59a7,7,0,0,0-.58-1.77,1,1,0,0,0-.79-.67,2.65,2.65,0,0,1-1.62-.6l-1.78-1.08c-.36-.21-.68.21-.54.51l0,0a.45.45,0,0,0-.24.32.4.4,0,0,0,.18.43l0,0,.1,0a4,4,0,0,1-.09,1,2.75,2.75,0,0,1-.71,1.29c-.55.56-1.48.58-2,1.19a1.05,1.05,0,0,0-.19.85c0,.19.18.42.17.6s-.23.33-.38.53a.77.77,0,0,0,.69,1.22,1.12,1.12,0,0,0,.82-.5c.12-.15.19-.33.3-.48.3-.4.52-.36.93-.17a1.57,1.57,0,0,0,1.81-.28c.23-.17.39-.35.71-.27.15,0,.27.15.43.18a1.27,1.27,0,0,0,1-.43c.43-.37.84-.77,1.25-1.15S223.72,153,223.68,152.59Z"/><path class="cls-1" d="M217.51,155.83a3.22,3.22,0,0,0-1.65,1.82.4.4,0,0,0,.16.52,8.56,8.56,0,0,1-3.13,5.15,11.25,11.25,0,0,1-3,1.49,1.84,1.84,0,0,0-1.36,1.73c-1.34.56-3-.37-4.21.7-.63.55-.88,1.36-1.7,1.7-.55.23-1.14.52-1,1.23a1.66,1.66,0,0,0,.47.74,1.15,1.15,0,0,1,.28,1.22c-.13.58-.24,1.26.3,1.68a1.37,1.37,0,0,0,1.65-.09c.7-.54.71-1.45,1.06-2.19a1,1,0,0,1,1.25-.65,2.58,2.58,0,0,0,1.2.1,2.89,2.89,0,0,0,1.35-1.08c.18-.21.4-.49.69-.55s.76.22,1.17.09a1.18,1.18,0,0,0,.58-.48,2.06,2.06,0,0,1,.32-.45c.26-.2.6-.08.9,0a3.62,3.62,0,0,0,3.75-1.12,5.87,5.87,0,0,0,.62-2.62,6.65,6.65,0,0,1,1.26-2.83,4.7,4.7,0,0,0,1.11-2.84,5.16,5.16,0,0,0-.34-2.46A1.47,1.47,0,0,0,217.51,155.83Z"/><path class="cls-1" d="M218.47,137.68a4,4,0,0,0,0,1.46,25.8,25.8,0,0,1,.47,3.41,10.64,10.64,0,0,1-.15,1.81,5.33,5.33,0,0,0-.25,1.41c.08.69.77.85,1.33.63.1,0,.33-.2.41-.18s.24.3.33.37a.86.86,0,0,0,.84.2c.86-.33.15-1.79,0-2.34a3.55,3.55,0,0,1,.09-2.92l.36.57a.39.39,0,0,0,.7-.09c1.18-2.94-2.13-5.49-1.09-8.38a1.82,1.82,0,0,0,.05-1.53,2.72,2.72,0,0,1-.31-1.15,1.65,1.65,0,0,0-.13-.63c-.37-.76-1.57-.59-1.52.17a3,3,0,0,0-.27,1.82.9.9,0,0,1-.52,1,1.67,1.67,0,0,0-.81.64c-.44.84.35,1.47.74,2.12S218.6,137.14,218.47,137.68Z"/><path class="cls-1" d="M118.4,51.18c-.09-.3-.39-.57-.32-.9s.24-.44.28-.7a1.79,1.79,0,0,0-1-1.87,1.79,1.79,0,0,0-2.37,1,.32.32,0,0,0,0,.27,11.46,11.46,0,0,1-4.93,3.28c-1.46.49-4.24.66-4.13,2.72-.78.42-1.74.37-2.47.89a1.77,1.77,0,0,0-.81,1.32c-1.28.14-1.91,1.65-2.33,2.76l-2.45,6.52a.39.39,0,0,0,.18.43,5.15,5.15,0,0,0,3.49.55,1.55,1.55,0,0,0,1.2-.86,13.4,13.4,0,0,0,1-1.77,14.47,14.47,0,0,0,.66-1.58c.23-.66.32-1.37.56-2s.88-.76,1.47-1a2.24,2.24,0,0,0,1.11-.8c.36-.52.49-1.09,1-1.5a7.69,7.69,0,0,1,1.78-.91l4.37-1.9a7.65,7.65,0,0,0,3.16-1.87,2.6,2.6,0,0,0,.55-1.3A2.08,2.08,0,0,0,118.4,51.18Z"/><path class="cls-1" d="M101.28,76.73c0-.67,0-1.34,0-2a5.7,5.7,0,0,0-.56-1.91,2.15,2.15,0,0,1-.29-1.36c.11-.4.48-.67.65-1A1.09,1.09,0,0,0,100.7,69a3.83,3.83,0,0,0-1.84-1,1.33,1.33,0,0,0-.73.15c-.09.05-.67.66-.6.69a.42.42,0,0,0-.58.46,1.68,1.68,0,0,0-.56.63c-.1.25,0,.38.06.61,0,.07.16.12.17.18.08.37-.28.47-.51.64a1.67,1.67,0,0,0-.68,1.19,7,7,0,0,1-.11,1.62c-.2.49-.85.42-1.14.86a1.13,1.13,0,0,0,.23,1.33c.65.74,1.72.73,2.46,1.33.46.38.26,1,.55,1.45a2,2,0,0,0,1.36.77c.74.15,1.5.24,2.25.34.49.06,1.45.4,1.74-.21.2-.42-.12-.91-.36-1.22A3.51,3.51,0,0,1,101.28,76.73Z"/><path class="cls-1" d="M153.37,26.67a7.15,7.15,0,0,1,3-.84c.63,0,1.44-.17,1.62-.9a1.31,1.31,0,0,0-.18-.92c-.27-.54-7.62-1.2-6.68-.79l-.56.58c-.22.22-.66.54-.7.89a.53.53,0,0,0,.24.51c.07.05.83.2.5.42a.39.39,0,0,0,.09.7C151.63,26.6,152.49,27.13,153.37,26.67Z"/><path class="cls-1" d="M161.69,35.46a1.75,1.75,0,0,0-.44-1.23c-.28-.36-1-.9-.82-1.43,0-.19.43-.4.56-.57a1.11,1.11,0,0,0,.2-.42,2.21,2.21,0,0,0-.06-1c-.08-.4-.27-.79,0-1.13s.54-.36.54-.81c0-.87-1.19-1.78-1.91-2.07a1,1,0,0,0-.95.06c-.14.09-.41.45-.63.6a4.26,4.26,0,0,0-.59-1.2,1.9,1.9,0,0,0-.7-.19c-.77.15-1.55.27-2.31.45l-.1,0h0c-.48.12-.86.35-.9.89,0,.38.12.7-.05,1.07a2.81,2.81,0,0,1-.78.82,2.35,2.35,0,0,0-.95,1.41,1.25,1.25,0,0,0,.44,1.19c.24.18.55.2.68.49a2,2,0,0,1,.06.74,1.46,1.46,0,0,0,.35,1.08,1.15,1.15,0,0,0,.55.25c.21.06.56.12.66.39s-.18.5-.26.63a.39.39,0,0,0,.33.58,1.49,1.49,0,0,0,.54-.1c.18-.07.54-.36.74-.32s.22.37.32.52a1,1,0,0,0,.41.35,3.87,3.87,0,0,0,1.43.19,17.44,17.44,0,0,0,1.8.09C160.65,36.77,161.59,36.38,161.69,35.46Z"/><path class="cls-1" d="M168.87,37.56c-.33-.62-.8-1.34-.45-2.06a.4.4,0,0,0-.06-.47,1.53,1.53,0,0,0-1-.48c-.28,0-1.44,0-1.36-.47a.41.41,0,0,0-.18-.43,1.42,1.42,0,0,0-.25-.13c.5-.63,1-1.47,0-1.66a2.07,2.07,0,0,0-2,.5h0a2.71,2.71,0,0,0-1.31,2,1.44,1.44,0,0,0,.28.85c.26.36.8.89.17,1.23-.31.17-.67,0-1,.25a1.11,1.11,0,0,0-.38.81,10.83,10.83,0,0,1,0,1.34,2.72,2.72,0,0,1-.78,1.34c-.48.48-1.05,1.08-.67,1.81a1.49,1.49,0,0,0,1.73.58,4.1,4.1,0,0,0,1.07-.6,3.74,3.74,0,0,1,1.4-.59,8.3,8.3,0,0,0,2.84-.79,7.8,7.8,0,0,0,1.24-1,3.73,3.73,0,0,0,1-1A1.19,1.19,0,0,0,168.87,37.56Z"/><path class="cls-1" d="M93.52,239.74a3.05,3.05,0,0,1-.27-1.39,2,2,0,0,0-.07-1.1.38.38,0,0,0-.09-.34l-1.33-1.54a.36.36,0,0,0-.43-.07.32.32,0,0,0-.24.26,2.47,2.47,0,0,1-2.38,2c-.22,0-.47.25-.37.49l.24.57-1.77.5a.39.39,0,0,0,0,.74c.32.13-.56.56-.65.6s-.42.14-.62.23a4.7,4.7,0,0,0-1.23.83A4.78,4.78,0,0,0,82.9,244a.39.39,0,0,0,.37.49c.44,0,1.12,0,1.3.47a4.65,4.65,0,0,1-.14,1.71c-.07.59,0,1.37-.49,1.79-.28.25-.58.35-.74.72-.29.67.12,1.34.35,2a2.52,2.52,0,0,1,.07,1.23,1,1,0,0,0,.41.88c1.35,1.14,3.47,1.95,4.82.39a11.73,11.73,0,0,0,1.43-2.48,25,25,0,0,0,1.32-3,26.74,26.74,0,0,0,1-7.18.7.7,0,0,0,.88-.47A1.18,1.18,0,0,0,93.52,239.74Z"/><path class="cls-2" d="M26.51,133.91c-.12-.8-.9-1-1.63-1.06.61-2-2-3.43-2.31-5.26-.13-.91-.08-2-1-2.59a1.32,1.32,0,0,0-.8-.2c.65-1.17,2-2.06,1.61-3.58a.38.38,0,0,0-.27-.27,6.76,6.76,0,0,0-2.24,0,1.43,1.43,0,0,1,.88-1,.37.37,0,0,0,.19-.33,1.19,1.19,0,0,0-1.42-1.15,7.45,7.45,0,0,0-2.83,1.17.39.39,0,0,0,.39.66l.11-.07a4.15,4.15,0,0,1-1.73,2.06.39.39,0,0,0,0,.66l.64.28a1.34,1.34,0,0,0,.21,1.58,4.09,4.09,0,0,0-.46,1.32.39.39,0,0,0,.27.47,1.7,1.7,0,0,1,1.07,2.31c-.09.2.09.41.27.47a2.07,2.07,0,0,0,1.12-.07c.57-.08.56.3.6.77a1.93,1.93,0,0,0,.37,1.16c-.33.22-1.09.29-1.33.51a.84.84,0,0,0-.26.74,2.35,2.35,0,0,0,.17.48c.12.34,0,.37-.29.58a1.17,1.17,0,0,0-.35,1.79,1.78,1.78,0,0,0,2.1.33,1.34,1.34,0,0,0,.72.79c-.5.33-1.11.51-1.61.84A2.31,2.31,0,0,0,17.57,139a.39.39,0,0,0,.49.37c2.16-.67,4.38-1.25,6.49-2A2.29,2.29,0,0,0,26.1,136a1.47,1.47,0,0,0,0-1A1.23,1.23,0,0,0,26.51,133.91Z"/><path class="cls-2" d="M15.65,127.81a1.26,1.26,0,0,0-1.85-.41l-.07,0-2.37,1.78a.39.39,0,0,0-.08.6c.14.12.28.23.42.34a2.05,2.05,0,0,1-1,.13,1.38,1.38,0,0,0-1.06.11.73.73,0,0,0-.22.83c.12.33.89.71.83,1,0,.13-.27.3-.34.44a.89.89,0,0,0-.08.42c0,.49.36.77.21,1.3-.19.7-.61,1.45,0,2.09a1.72,1.72,0,0,0,2.14.11,24.68,24.68,0,0,0,3-2,2.66,2.66,0,0,0,1.23-2.23,1.74,1.74,0,0,0-.14-.56c-.1-.22-.41-.56-.37-.79s.51-.61.57-1-.19-.62-.42-.92S15.9,128.25,15.65,127.81Z"/></g></g></svg>