<svg xmlns="http://www.w3.org/2000/svg" class="svg-outer" viewBox="0 0 104.97 96.66">
    <g>
        <g>
        <path class="svg-main" d="M91.23,59.57,79.94,48.28A34,34,0,1,1,48.38,16.72L37.09,5.43A46.06,46.06,0,1,0,91.23,59.57Z" />
        <path class="svg-main" d="M30.61,66.05A21.84,21.84,0,0,0,63.06,36.91L47.7,52.26l-8.54-8.54L53,29.91,65.81,17.08,96.43,47.69,105,39.15,74.35,8.54,65.81,0,57.28,8.54,31.1,34.72c-.16.15-.33.29-.48.45A21.84,21.84,0,0,0,30.61,66.05Z"
        />
        </g>
    </g>
</svg>