<svg xmlns="http://www.w3.org/2000/svg" viewBox="0 0 300.39 312.23"><defs><style>.cls-1,.cls-2{fill:#fff;}.cls-2{fill-rule:evenodd;}</style></defs><title>joinus</title><g id="圖層_2" data-name="圖層 2"><g id="圖層_1-2" data-name="圖層 1"><path class="cls-1" d="M201.7,196c-7.7-3.61-15.4-7.22-23-11-4.5-2.26-9.57-5.66-11.69-9.88-4.79-9.5,4.23-43.49,12.45-50.75,12-10.64,14.52-23.69,11.44-39C189,75.65,188.21,74.88,187.35,65c-1-11.16.92-32.38-2.9-42.45-2.31-6.09-12.32-9.24-18.86-13.73a16.92,16.92,0,0,1-1.79-1.38c-11.4-10.31-42.42-9.6-70.63.21C79.15,12.53,74.47,17.35,69,36c-2.21,7.57,1.48,15.82,1.25,23.7-.23,8.08-.68,16.45-3,24.13-3.76,12.62-3.52,25.57,5.41,34.09,9.84,9.39,13.5,20.66,16.89,32.3,7.14,24.56-2.16,28.9-9.11,32-11.74,5.22-27.4,14.39-41.36,20.72C14.37,214.14,2.67,231.63.39,257.56c-1.19,13.56-.34,15,13.26,17.87,39.47,8.47,45,12.24,115.18,12.24,29,0,47.05-.64,61.08-2-2.65-14.45-11-29-9.84-43.76C181.38,225.71,192.8,209.45,201.7,196Z"/><path class="cls-2" d="M225.7,312.23c-3.13-.68-6.28-1.27-9.38-2.05a67.09,67.09,0,0,1-50.59-65.05c0-35.43,26.39-64.24,61.78-67.45s67.73,22.82,72.36,57.93a13.88,13.88,0,0,0,.53,1.92v14.73a7.07,7.07,0,0,0-.49,1.39,67.22,67.22,0,0,1-50.37,56.59c-3,.76-6.07,1.33-9.11,2Zm7.46-117.75a50.56,50.56,0,0,0-50.54,50.19c-.08,27.61,22.57,50.62,49.83,50.63,28.15,0,51-22.36,51-49.93A50.48,50.48,0,0,0,233.15,194.49Z"/><path class="cls-2" d="M241.48,253.32c0,5.63,0,11,0,16.28s-3.39,9-8.45,9-8.37-3.61-8.38-9,0-10.64,0-16.21H208.42c-5.41,0-9-3.37-9-8.39s3.59-8.44,9-8.44h16.27c0-5.52,0-10.84,0-16.15s3.31-9.07,8.32-9.1c5.18,0,8.51,3.55,8.52,9.16,0,5.25,0,10.49,0,16.08H252c2.19,0,4.38,0,6.57,0a8.41,8.41,0,0,1,.06,16.81C253.08,253.37,247.47,253.32,241.48,253.32Z"/></g></g></svg>