 <svg xmlns="http://www.w3.org/2000/svg" viewBox="0 0 128.02 124.92" class="svg-outer" >
        <g>
          <g>
            <path class="svg-main" d="M125,120.8a59.78,59.78,0,0,0-7.37-.09V10.78c2.44,0,4.62,0,7-.12V0C111.72,0,16,.22,3.45.22v10.7h7V120.75c-2,0-3.86,0-5.65.08S0,120.67,0,123s3,1.91,4.74,1.92q59.23.08,118.46,0c.63,0,1.3,0,1.85,0,1.2-.08,3,0,3-2.08S126.08,120.93,125,120.8Zm-38.09-84h8.8V56.18h-8.8Zm0,28.17h8.81V84.59H86.91ZM68.41,36.77h8.8V56.18h-8.8Zm9.08,28.18V84.56h-8.8V64.94ZM32.06,36.79H41V56.19H32.06ZM31.88,65h9.07V84.56H31.88Zm9.28,47.63H32V93.09h9.2Zm17.9,0H49.86V93.09h9.19Zm0-28.08H50.3V64.94h8.8Zm.31-28.3H50.24V36.87h9.17ZM77.5,112.65H68.31V93.09H77.5Zm18.24,0H86.87V93.35h8.88Z"
            />
          </g>
        </g>
      </svg>