   <svg xmlns="http://www.w3.org/2000/svg" class="svg-outer" viewBox="0 0 151.29 126.67"> 
        <g >
          <g>
            <path class="svg-main" d="M75.61,126.67c-30.88,0-33.34-1.66-50.72-5.39-6-1.28-6.36-1.9-5.84-7.87,1-11.42,6.16-19.12,17.07-24.06,6.15-2.78,13-6.83,18.21-9.12,3.06-1.36,7.16-3.27,4-14.09-1.49-5.12-3.1-10.09-7.44-14.22-3.94-3.75-4-9.45-2.38-15a41.78,41.78,0,0,0,1.31-10.62c.1-3.47-1.52-7.1-.55-10.43C51.68,7.64,53.74,5.52,59.91,3.37,72.33-1,86-1.26,91,3.28a7.47,7.47,0,0,0,.79.61c2.88,2,7.29,3.37,8.3,6,1.68,4.43,1.18,9.7,1.6,14.61.38,4.35.39,8.77,1.24,13,1.36,6.75.27,12.49-5,17.18-3.62,3.2-7.59,18.16-5.48,22.35.94,1.86,3.17,3.36,5.15,4.35,7.58,3.81,15.38,7.16,22.92,11,7.19,3.69,13.73,16.8,11.92,24.56-.42,1.79-3.68,3.88-5.83,4.14C109.34,125,106.49,126.67,75.61,126.67Z"
            />
            <path class="svg-main" d="M107.22,63.78l-7.46-3.32c1.46-1.7,2.54-2.9,3.56-4.14,5.08-6.14,6-13.07,4.07-20.64a31.09,31.09,0,0,1-1.15-7.77c0-8.47,3.77-11.49,12.29-10.27,8.29,1.19,13.2,6.46,14.26,15.49.23,2,.17,4,.22,6,.2,7.93,1.85,11.65,8.85,18.88-3.75,1.27-7.06,2.29-10.29,3.52a37.7,37.7,0,0,0-4.52,2.44c1.36,1.28,2.52,2.91,4.11,3.76,4,2.11,8.18,3.71,12.14,5.82a13.92,13.92,0,0,1,4.89,4.08c5.67,8.28,3.48,13.15-6.34,15-6,1.16-11.23.78-16.84-2.93-7.29-4.81-15.76-7.78-23.55-11.87-1.94-1-4.39-3.19-4.49-4.95-.09-1.6,2.57-3.5,4.26-5A63.26,63.26,0,0,1,107.22,63.78Z"
            />
            <path class="svg-main" d="M45.7,27.08c-.78,3.62-1.53,6.15-1.83,8.74-.42,3.6-1.33,7.43-.53,10.8,1.24,5.21,3.86,9.95,2,15.72-.39,1.19,2.56,3.56,4.1,5.26s4.44,3.22,4.93,5.24c.86,3.57-2.88,4.16-5.32,5.43C40,83,30.9,87.86,21.8,92.59a6.81,6.81,0,0,1-3.29.74,87.85,87.85,0,0,1-9.4-.81C5.87,92,1.68,93,.29,88.74-1,84.79,2.21,76.89,6,74.65a104.64,104.64,0,0,1,11.16-5.5C25.32,65.5,27.15,59,21.3,52c-3.36-4-4.69-7.76-2.64-12.72.56-1.37,0-3.22-.12-4.85-.36-5.1-.41-10.71,4.22-13.56,5.89-3.64,13-5.23,19.45-1.69C44.35,20.4,44.75,24.76,45.7,27.08Z"
            />
          </g>
        </g>
      </svg>