  <svg xmlns="http://www.w3.org/2000/svg" class="svg-outer" viewBox="0 0 612.48 630.09">
        <g >
          <g>
            <path class="svg-main" d="M285.59,14.74c-8.66-6.37-17.1-9.37-25.4-12.69-9.79-3.91-18.11-2.28-25.4,5.48a26.73,26.73,0,0,1-13.15,7.82c-5.94,1.45-9.81,5.16-13.12,10-2.76,4-4.53,8.52-6.54,12.9-.71,1.54-1.17,3.17-3.4,3-5.95-.51-7.74,3.51-8.72,8.23s-2.12,5.27-6.15,2.84a11.66,11.66,0,0,1-4.86-4.87c-2.52-5.24-4.77-5.75-9.38-2.09-2.47,2-4.57,4.42-7.15,6.2-6,4.11-12.39,1.16-12.85-5.73-.24-3.6-3.61-5.65-7.66-4.33a33.74,33.74,0,0,0-6.22,3.15c-4.9,2.84-9.77,5.72-15.32,7.21-2.9.78-5.17.79-6.29-2.72a7,7,0,0,0-5.45-4.73c-8.11-1.44-16.29-.84-23.12,3.77a73.29,73.29,0,0,1-13.56,7.23A89,89,0,0,0,39.93,78c-2.61,2.82-4.86,6.23-3.81,9.84,1.54,5.29.92,9.94-.79,15-1,2.88-.46,6.26-.61,9.42-.09,2,.25,4.11-.3,6A163.59,163.59,0,0,1,20.24,151c-6.31,11.36-12.62,22.65-17.65,34.61C-3.22,199.43,1,213.56,12.78,223c11.52,9.24,17.93,21.4,20,36.12,2.79,19.87,10.84,36.24,31.35,43.48,1.1.39,2.12,1,3.21,1.39,3.69,1.37,6.45,3.85,9.08,6.76,3.53,3.9,6.79,8,11.25,11.16s9.86,3.43,14,6.26c8.6,5.87,17.6,10.53,27.79,12.77,1.35.3,2.66,2.24,4,.72,1.06-1.2.27-3-.37-4.26-4.3-8.06-10.92-14.05-18.16-19.34-6.89-5-13.56-10.48-18.13-17.58-6.93-10.78-11.67-22.75-16.3-34.7s2.68-27.71,14.77-31.51a60.91,60.91,0,0,0,8.59-3.85,36.59,36.59,0,0,1,24.32-2.75,8.87,8.87,0,0,1,6.35,4.48,42.27,42.27,0,0,0,6.77,9.23,14.9,14.9,0,0,1,4.25,10.42c-.1,9.14,4.86,12.37,14.42,13.86,2.88.45,3.58-.55,3-3.26-.77-3.62-1.46-7.56.83-10.69,5.63-7.68,8.13-16.74,11.83-25.26a26.72,26.72,0,0,1,8.65-11.35,41.63,41.63,0,0,0,10.54-11.9c9.19-14.91,17.2-30.86,33.71-39.62a11.77,11.77,0,0,0,4.35-4.73c2-3.77,5.33-5.31,9.16-6.26,6.74-1.67,13.66-1.46,20.4-.87,13.48,1.16,18.88-8.93,19.86-19.87.28-3.14,0-6.33.12-9.49.14-4.22,2.52-6.36,6.63-6.6a32.61,32.61,0,0,1,5.49.08c4.62.53,9.46,1.91,12.8-2.84,2.83-4,7.32-6.33,10.15-10.26a4.07,4.07,0,0,0,.27-2.87,25.5,25.5,0,0,1,2.56-17.36c4-7.84,4.88-15.27-1.61-23-4.73-5.62-11.1-9.53-18.37-7.79-9.9,2.36-19.64,5.2-28.21,11-9.24,6.3-18.78,10.42-29.92,4.3a8.1,8.1,0,0,0-7.27-.36,25.86,25.86,0,0,0-15,24.34c.08,2.1-.28,3.85-2.36,4.36-5.13,1.27-9.88,3.78-15.46,3.6-11.31-.37-22-3.57-32.63-6.82a5.28,5.28,0,0,1-4.12-5.09c-.07-3.19.8-6,3.76-7.64,4.7-2.69,9.81-2.89,15-2.43,3.15.28,6.31.46,9.46.63s4.37-1.49,4.63-4.53c.81-9.5.88-9.5,10.36-9.51a27,27,0,0,1,4,0c5.06.75,8.95-1,12.34-4.81,4.34-4.92,9.95-7.9,15.92-10.8,9-4.37,18.63-8.6,24.09-17.77C269.51,22.75,274.58,16.26,285.59,14.74Z"
            />
            <path class="svg-main" d="M232.65,580.2c.21,5.21-.46,9.25,1.85,13.23,5.29,9.08,12.5,17.31,13.52,28.45a9.65,9.65,0,0,0,1.1,2.78c2.64,5.93,9.7,7.32,14.29,2.66a20.68,20.68,0,0,0,5.87-14c.14-3-.3-6,.13-9,1.75-11.86,6.38-21.23,21.22-20.6,5.54.23,10.72,2.11,16.19,2.66,7.68.77,10.41-.87,11.85-8.31.89-4.58,2.48-8.47,7.26-10.56,12.42-5.43,21.71-14.51,28.63-26,3.16-5.24,6.51-10.07,12.38-12.54,5-2.09,9.5-4.8,12.95-9.08a6.85,6.85,0,0,1,4.32-2.26c7.17-1.37,9-3,9.24-10.59.29-8.15,4.26-14.57,8.39-21,2.7-4.19,5.89-8.06,8.82-12.11,1.37-1.89,2.83-3.81,2.6-6.33-.45-4.88,1.39-9,3.57-13.25,2.7-5.26,4.62-11.19,1.37-16.74-6.77-11.58-15.46-21.08-29.11-24.92a151.41,151.41,0,0,1-35.46-14.64c-2.77-1.62-4.89-3.62-5.63-6.64-1.48-6-5.63-10.45-8.61-15.59-4.63-8-16.22-10.27-23.33-8.07-8.62,2.66-17.81-.55-21.65-8.75-5-10.71-28.87-14.55-36.93-7.25-6.23,5.64-8.22,5.1-15.25.33-9.31-6.32-17-14.31-24.5-22.63-2.64-2.95-1.8-5.59.36-8,3.08-3.41,5.06-6.67,4.68-11.83-.43-5.87-.41-6.76-6.48-6.68a16.39,16.39,0,0,0-7.61,2.14c-6.9,3.69-13.72,7.45-20.35,11.65-13.77,8.73-19.23,19.79-16.21,35.77,1.07,5.64,0,10.26-4,14.15A30.32,30.32,0,0,0,160,381.38c-1.1,4.29-1.52,8.74-5.26,12.08-2,1.76-2.13,4.75-1.54,7.54a28.44,28.44,0,0,0,3.74,9.22c8.46,13.5,12.43,28.62,16.05,43.86,1.36,5.73,4,10.66,9,13.89,11.25,7.25,22.27,14.87,34.38,20.72,4.17,2,8.64,4.66,10.08,9.17,2.67,8.37,4.63,16.91,4.49,25.94s-1,18.37,4,26.75c.72,1.22.34,2.6.08,3.91C233.21,563.32,233.45,572.35,232.65,580.2Z"
            />
            <path class="svg-main" d="M612.44,321a301.39,301.39,0,0,0-5.35-60.07c-2.55-13.71-4.72-27.59-10.93-40.36-4.68-9.63-14-11.78-21.81-4.81a24.32,24.32,0,0,1-7.64,4.52c-5.73,2.22-11.48,4.52-15.6,9.5-4.35,5.26-4.53,9.9-.46,15.24.9,1.19,1.64,2.51,2.48,3.74,5,7.34,4.08,11.36-3.39,16.34-3.66,2.44-6.94,5.65-5.28,10.73,1.53,4.68,1.09,9.11-.23,13.71-2.05,7.16-6.56,13.65-4.66,21.91,1.1,4.79,2.22,9.14,6.59,11.68,5.71,3.32,11.4,6.89,17.52,9.23,4.36,1.67,9.42,4.15,14.19.45,6.78-5.26,9.08-5,11.79,3,3.32,9.79,11.49,10.35,19.46,7.55a4.44,4.44,0,0,0,3.34-4.84C612.4,332.67,612.44,326.84,612.44,321Z"
            />
            <path class="svg-main" d="M528.53,136.68c.51-4.13-2.08-7.88-4.29-11.79-4.94-8.74-3.46-11.85,6.26-13.43,1.15-.19,2.29-.42,3.44-.63,4.68-.86,5.45-2.51,2.6-6.25C527.52,92.8,517.41,82,507,71.47c-2.15-2.17-3.37-1.91-4.51,1.13s-3,5.55-4.44,8.34c-1.07,2-2.21,2.63-4.24,1a31.8,31.8,0,0,0-9.72-5c-5-1.78-7.06-.25-6.29,5.08a22.05,22.05,0,0,0,11,16.39c3.45,2,4.5,4.61,3.26,8.34-.73,2.2-1.92,4.54-1.07,6.79,2.85,7.66,6.63,15,12.1,21,2.63,2.87,4.81,5.22,4.93,9.1.18,5.49,4.45,6.31,8.44,7.51,3.59,1.08,6.14-.64,8.33-3.11C527.46,145,528.43,141.33,528.53,136.68Z"
            />
            <path class="svg-main" d="M285.59,14.74c-11,1.53-16.08,8-20.59,15.58-5.46,9.16-15.11,13.4-24.09,17.77-6,2.9-11.58,5.87-15.92,10.8-3.39,3.85-7.28,5.56-12.34,4.81a27,27,0,0,0-4,0c-9.49,0-9.56,0-10.36,9.51-.26,3-1.48,4.7-4.63,4.53s-6.31-.35-9.46-.63c-5.23-.46-10.34-.26-15,2.43-3,1.69-3.83,4.45-3.76,7.64a5.28,5.28,0,0,0,4.12,5.09c10.66,3.25,21.32,6.45,32.63,6.82,5.58.18,10.33-2.33,15.46-3.6,2.08-.51,2.44-2.25,2.36-4.36a25.86,25.86,0,0,1,15-24.34,8.1,8.1,0,0,1,7.27.36c11.14,6.11,20.68,2,29.92-4.3,8.57-5.84,18.31-8.68,28.21-11,7.27-1.73,13.64,2.17,18.37,7.79,6.49,7.71,5.56,15.14,1.61,23a25.5,25.5,0,0,0-2.56,17.36,4.07,4.07,0,0,1-.27,2.87c-2.84,3.93-7.33,6.24-10.15,10.26-3.33,4.75-8.18,3.37-12.8,2.84a32.61,32.61,0,0,0-5.49-.08c-4.12.23-6.49,2.38-6.63,6.6-.11,3.16.17,6.35-.12,9.49-1,10.94-6.39,21-19.86,19.87-6.74-.58-13.66-.79-20.4.88-3.83,1-7.12,2.49-9.16,6.26a11.77,11.77,0,0,1-4.35,4.73C212,172.38,204,188.32,194.82,203.24a41.63,41.63,0,0,1-10.54,11.9,26.72,26.72,0,0,0-8.65,11.35c-3.71,8.52-6.21,17.58-11.83,25.26-2.29,3.12-1.6,7.07-.83,10.69.58,2.71-.12,3.71-3,3.26-9.56-1.48-14.51-4.71-14.42-13.86a14.9,14.9,0,0,0-4.25-10.42,42.27,42.27,0,0,1-6.77-9.23,8.87,8.87,0,0,0-6.35-4.48,36.59,36.59,0,0,0-24.32,2.75,60.91,60.91,0,0,1-8.59,3.85c-12.09,3.79-19.39,19.6-14.77,31.51s9.37,23.92,16.3,34.7c4.56,7.1,11.23,12.55,18.13,17.58,7.24,5.29,13.86,11.28,18.16,19.34.65,1.21,1.44,3.06.38,4.26-1.34,1.52-2.65-.42-4-.72-10.19-2.24-19.19-6.91-27.79-12.77-4.16-2.84-9.61-3.13-14-6.26S80,314.68,76.43,310.78c-2.63-2.91-5.39-5.39-9.08-6.76-1.09-.41-2.11-1-3.21-1.39C43.62,295.39,35.58,279,32.78,259.15c-2.07-14.72-8.48-26.88-20-36.12-11.8-9.46-16-23.6-10.19-37.4,5-12,11.35-23.25,17.65-34.61a163.59,163.59,0,0,0,14.18-32.83c.55-1.86.21-4,.3-6,.14-3.16-.37-6.54.61-9.42,1.71-5,2.33-9.7.79-15-1.05-3.62,1.2-7,3.81-9.84A89,89,0,0,1,71.84,55.39,73.29,73.29,0,0,0,85.4,48.16c6.82-4.61,15-5.21,23.12-3.77A7,7,0,0,1,114,49.12c1.13,3.51,3.4,3.5,6.29,2.72,5.55-1.49,10.41-4.37,15.32-7.21a33.74,33.74,0,0,1,6.22-3.15c4-1.32,7.42.73,7.66,4.33.47,6.89,6.89,9.84,12.85,5.73,2.58-1.78,4.68-4.24,7.15-6.2,4.6-3.66,6.86-3.14,9.38,2.09a11.66,11.66,0,0,0,4.86,4.87c4,2.43,5.18,1.83,6.15-2.84s2.77-8.73,8.72-8.23c2.23.19,2.69-1.44,3.4-3,2-4.38,3.78-8.86,6.54-12.9,3.31-4.84,7.18-8.56,13.12-10a26.73,26.73,0,0,0,13.15-7.82C242.07-.23,250.4-1.87,260.19,2,268.49,5.36,276.93,8.37,285.59,14.74Z"
            />
            <path class="svg-main" d="M232.65,580.2c.8-7.84.57-16.87,2.31-25.74.26-1.31.64-2.69-.08-3.91-5-8.37-4.13-17.72-4-26.75s-1.82-17.58-4.49-25.94c-1.44-4.51-5.91-7.15-10.08-9.17-12.11-5.86-23.13-13.47-34.38-20.72-5-3.23-7.61-8.16-9-13.89-3.63-15.24-7.59-30.37-16.05-43.86a28.44,28.44,0,0,1-3.74-9.22c-.59-2.79-.43-5.77,1.54-7.54,3.74-3.34,4.16-7.78,5.26-12.08a30.32,30.32,0,0,1,8.11-14.66c4-3.89,5.11-8.51,4-14.15-3-16,2.44-27,16.21-35.77,6.63-4.2,13.45-8,20.35-11.65a16.39,16.39,0,0,1,7.61-2.14c6.07-.09,6.05.81,6.48,6.68.38,5.16-1.6,8.42-4.68,11.83-2.16,2.4-3,5-.36,8,7.46,8.32,15.19,16.3,24.5,22.63,7,4.78,9,5.31,15.25-.33,8.07-7.31,31.92-3.47,36.93,7.25,3.84,8.2,13,11.42,21.65,8.75,7.11-2.2,18.7.09,23.33,8.07,3,5.14,7.13,9.58,8.61,15.59.74,3,2.86,5,5.63,6.64a151.41,151.41,0,0,0,35.46,14.64c13.66,3.84,22.34,13.34,29.11,24.92,3.25,5.55,1.33,11.48-1.37,16.74-2.18,4.25-4,8.37-3.57,13.25.23,2.51-1.23,4.44-2.6,6.33-2.93,4-6.12,7.92-8.82,12.11-4.13,6.42-8.1,12.84-8.39,21-.27,7.63-2.07,9.23-9.24,10.59a6.85,6.85,0,0,0-4.32,2.26c-3.45,4.29-8,7-12.95,9.08-5.87,2.47-9.21,7.3-12.38,12.54-6.92,11.48-16.21,20.56-28.63,26-4.78,2.09-6.37,6-7.26,10.56-1.45,7.45-4.17,9.08-11.85,8.31-5.47-.55-10.65-2.43-16.19-2.66-14.84-.63-19.48,8.75-21.22,20.6-.43,2.94,0,6-.13,9a20.68,20.68,0,0,1-5.87,14c-4.59,4.66-11.65,3.27-14.29-2.66a9.65,9.65,0,0,1-1.1-2.78c-1-11.14-8.23-19.36-13.52-28.45C232.18,589.45,232.86,585.4,232.65,580.2Z"
            />
            <path class="svg-main" d="M612.44,321c0,5.83,0,11.66,0,17.49a4.44,4.44,0,0,1-3.34,4.84c-8,2.8-16.13,2.24-19.46-7.55-2.71-8-5-8.22-11.79-3-4.77,3.7-9.83,1.21-14.19-.45-6.12-2.34-11.81-5.91-17.52-9.23-4.38-2.54-5.49-6.89-6.59-11.68-1.91-8.26,2.6-14.74,4.66-21.91,1.32-4.6,1.76-9,.23-13.71-1.66-5.07,1.62-8.28,5.28-10.73,7.46-5,8.43-9,3.39-16.34-.85-1.23-1.58-2.55-2.48-3.74-4.07-5.35-3.89-10,.46-15.24,4.12-5,9.87-7.29,15.6-9.5a24.32,24.32,0,0,0,7.64-4.52c7.85-7,17.13-4.82,21.81,4.81,6.21,12.77,8.39,26.65,10.93,40.36A301.39,301.39,0,0,1,612.44,321Z"
            />
            <path class="svg-main" d="M528.53,136.68c-.1,4.65-1.06,8.31-3.73,11.31-2.19,2.47-4.73,4.19-8.33,3.11-4-1.2-8.27-2-8.44-7.51-.12-3.88-2.3-6.23-4.93-9.1-5.46-6-9.25-13.32-12.1-21-.84-2.25.35-4.59,1.07-6.79,1.24-3.73.19-6.3-3.26-8.34A22.05,22.05,0,0,1,477.8,82c-.77-5.34,1.29-6.86,6.29-5.08a31.8,31.8,0,0,1,9.72,5c2,1.66,3.17,1.08,4.24-1,1.46-2.79,3.34-5.42,4.44-8.34s2.36-3.29,4.51-1.13c10.42,10.52,20.52,21.33,29.53,33.1,2.86,3.73,2.09,5.39-2.6,6.25-1.15.21-2.29.44-3.44.63-9.72,1.58-11.2,4.7-6.26,13.43C526.45,128.8,529,132.55,528.53,136.68Z"
            />
          </g>
        </g>
      </svg>